<svg width="239" height="39" viewBox="0 0 239 39" fill="none" xmlns="http://www.w3.org/2000/svg">
<g clip-path="url(#clip0_25_238)">
<path d="M33.079 15.662C35.408 15.662 36.9117 16.8837 37.6193 18.9398H41.0984C40.2433 15.0362 37.1771 12.5928 33.079 12.5928C28.1849 12.5928 24.4997 16.4368 24.4997 21.4726C24.4997 26.5085 28.1849 30.2332 33.079 30.2332C37.1771 30.2332 40.155 27.6706 41.0984 23.8862H37.6193C36.9117 25.8231 35.3786 27.164 33.079 27.164C29.8654 27.164 27.8606 24.8398 27.8606 21.5024C27.8901 18.1353 29.8654 15.662 33.079 15.662ZM47.4369 14.4999H47.2897L47.1124 12.8312H44.1941V30.2928H47.4369V19.2378C47.4369 16.9136 49.2059 15.6322 51.5348 15.6322C52.0359 15.6322 52.1536 15.662 52.1536 15.662V12.4736C52.1536 12.4736 51.9476 12.414 51.5348 12.414C50.5326 12.414 48.7048 12.8312 47.4369 14.4999ZM82.2554 12.414C79.3665 12.414 77.5968 13.6656 76.8308 14.4999H76.6829L76.5063 12.8312H73.5872V30.2928H76.8308V19.2973C76.8308 16.8539 79.0126 15.5726 81.6954 15.5726C83.9949 15.5726 85.6462 16.7348 85.6462 19.1484V30.2928H88.889V18.9398C88.8596 14.1125 85.4982 12.414 82.2554 12.414ZM93.0457 12.8312H96.2886V30.2928H93.0457V12.8312ZM61.7063 12.5928C56.7828 12.5928 53.0389 16.3772 53.0389 21.413C53.0389 26.4489 56.7534 30.2332 61.7063 30.2332C66.6298 30.2332 70.3738 26.4489 70.3738 21.413C70.3738 16.3772 66.6298 12.5928 61.7063 12.5928ZM61.7063 27.0747C58.4929 27.0747 56.4289 24.6908 56.4289 21.413C56.4289 18.1353 58.4929 15.6918 61.7063 15.6918C64.9197 15.6918 66.9838 18.1353 66.9838 21.413C66.9838 24.6908 64.9197 27.0747 61.7063 27.0747ZM106.755 19.6847C103.542 18.9696 103.689 18.165 103.689 17.4499C103.689 16.5857 104.632 15.5131 106.195 15.5131C107.492 15.5131 108.878 16.1686 108.878 18.3736H112.003C112.121 14.7979 109.792 12.6226 106.195 12.6226C103.011 12.6226 100.446 14.8575 100.446 17.5989C100.446 21.0554 103.158 22.1282 106.106 22.7838C109.231 23.4691 109.497 24.4524 109.497 25.1378C109.497 26.4489 108.17 27.5812 106.313 27.5812C104.986 27.5812 102.952 26.7469 102.952 24.2141H99.8265C99.6205 28.207 102.48 30.5014 106.313 30.5014C109.939 30.5014 112.799 28.1474 112.799 25.0186C112.769 21.4428 109.674 20.3105 106.755 19.6847ZM10.7609 6.15643L-6.10352e-05 30.2928H3.44933L5.54258 25.4358H18.9275L21.0208 30.2928H24.4407L13.7387 6.15643H10.7609ZM12.1761 10.2685H12.3235L12.5004 10.7155L15.5371 17.7479H8.96255L11.9992 10.7155L12.1761 10.2685ZM6.75134 22.6944L7.7537 20.4297H16.7163L17.7187 22.6944H6.75134Z" fill="#00204D"/>
<path fill-rule="evenodd" clip-rule="evenodd" d="M126.063 0.0804443V38.8206H125.363V0.0804443H126.063Z" fill="#00204D"/>
<path d="M160.9 16.5351H158.656V9.18872H160.999C161.704 9.18872 162.307 9.33579 162.809 9.62993C163.311 9.92168 163.695 10.3414 163.962 10.889C164.23 11.4342 164.363 12.0871 164.363 12.8476C164.363 13.6128 164.229 14.2716 163.959 14.824C163.689 15.3741 163.296 15.7973 162.781 16.0939C162.265 16.388 161.638 16.5351 160.9 16.5351ZM159.537 15.7459H160.843C161.444 15.7459 161.942 15.6287 162.337 15.3944C162.732 15.16 163.027 14.8264 163.221 14.3936C163.415 13.9608 163.512 13.4454 163.512 12.8476C163.512 12.2545 163.416 11.7439 163.224 11.3159C163.033 10.8854 162.746 10.5554 162.365 10.3258C161.984 10.0939 161.51 9.97788 160.942 9.97788H159.537V15.7459Z" fill="#B9976F"/>
<path d="M153.035 16.5351V9.18872H153.915V15.7459H157.294V16.5351H153.035Z" fill="#B9976F"/>
<path d="M151.555 12.8619C151.555 13.6367 151.416 14.3063 151.139 14.8707C150.863 15.435 150.483 15.8703 150 16.1764C149.518 16.4825 148.966 16.6355 148.346 16.6355C147.726 16.6355 147.175 16.4825 146.692 16.1764C146.21 15.8703 145.83 15.435 145.553 14.8707C145.276 14.3063 145.138 13.6367 145.138 12.8619C145.138 12.0871 145.276 11.4175 145.553 10.8531C145.83 10.2887 146.21 9.8535 146.692 9.5474C147.175 9.24131 147.726 9.08826 148.346 9.08826C148.966 9.08826 149.518 9.24131 150 9.5474C150.483 9.8535 150.863 10.2887 151.139 10.8531C151.416 11.4175 151.555 12.0871 151.555 12.8619ZM150.703 12.8619C150.703 12.2258 150.598 11.6889 150.387 11.2513C150.179 10.8136 149.896 10.4824 149.539 10.2576C149.184 10.0329 148.786 9.92046 148.346 9.92046C147.906 9.92046 147.508 10.0329 147.15 10.2576C146.795 10.4824 146.513 10.8136 146.302 11.2513C146.094 11.6889 145.99 12.2258 145.99 12.8619C145.99 13.498 146.094 14.0349 146.302 14.4725C146.513 14.9101 146.795 15.2413 147.15 15.4661C147.508 15.6909 147.906 15.8033 148.346 15.8033C148.786 15.8033 149.184 15.6909 149.539 15.4661C149.896 15.2413 150.179 14.9101 150.387 14.4725C150.598 14.0349 150.703 13.498 150.703 12.8619Z" fill="#B9976F"/>
<path d="M142.963 11.4844C142.885 11.2429 142.782 11.0265 142.655 10.8352C142.529 10.6415 142.379 10.4765 142.204 10.3402C142.031 10.2038 141.835 10.0998 141.615 10.0281C141.395 9.95633 141.153 9.92046 140.891 9.92046C140.46 9.92046 140.068 10.0329 139.716 10.2576C139.363 10.4824 139.083 10.8136 138.875 11.2513C138.667 11.6889 138.562 12.2258 138.562 12.8619C138.562 13.498 138.668 14.0349 138.878 14.4725C139.089 14.9101 139.374 15.2413 139.734 15.4661C140.093 15.6909 140.498 15.8033 140.947 15.8033C141.364 15.8033 141.731 15.7136 142.048 15.5343C142.367 15.3525 142.616 15.0966 142.793 14.7666C142.973 14.4342 143.063 14.0432 143.063 13.5936L143.332 13.651H141.146V12.8619H143.914V13.651C143.914 14.2561 143.787 14.7822 143.531 15.2294C143.278 15.6766 142.928 16.0233 142.481 16.2696C142.036 16.5135 141.525 16.6355 140.947 16.6355C140.304 16.6355 139.738 16.4825 139.251 16.1764C138.766 15.8703 138.387 15.435 138.115 14.8707C137.846 14.3063 137.711 13.6367 137.711 12.8619C137.711 12.2808 137.788 11.7582 137.941 11.2943C138.098 10.828 138.318 10.431 138.602 10.1034C138.885 9.77578 139.221 9.52469 139.609 9.35011C139.997 9.17554 140.425 9.08826 140.891 9.08826C141.274 9.08826 141.631 9.14685 141.962 9.26402C142.296 9.37881 142.593 9.54262 142.853 9.75546C143.116 9.9659 143.335 10.2182 143.51 10.5123C143.685 10.8041 143.806 11.1281 143.872 11.4844H142.963Z" fill="#B9976F"/>
<path d="M140.463 29.9316C141.961 29.9316 143.021 29.2348 143.021 27.9316C143.021 27.1639 142.671 26.7293 142.192 26.4566C141.742 26.2042 141.162 26.0829 140.333 25.9518C139.403 25.8102 138.694 25.6286 138.694 24.8307C138.694 24.1032 139.293 23.578 140.252 23.578C141.232 23.578 141.902 24.0225 142.032 24.901H142.891C142.731 23.4973 141.652 22.8608 140.303 22.8608C138.903 22.8608 137.894 23.6384 137.894 24.901C137.894 25.6385 138.244 26.0829 138.744 26.3359C139.193 26.568 139.643 26.6591 140.233 26.76C140.732 26.8407 141.122 26.8912 141.502 27.0525C141.892 27.2144 142.192 27.4569 142.192 28.0325C142.192 28.8002 141.492 29.2145 140.472 29.2145C139.383 29.2145 138.594 28.7903 138.474 27.8306H137.624C137.754 29.255 138.833 29.9316 140.463 29.9316Z" fill="#00204D"/>
<path d="M144.88 29.8307H149.637V29.063H145.699V26.7397H148.308V25.972H145.699V23.7195H149.527V22.9618H144.88V29.8307Z" fill="#00204D"/>
<path d="M151.346 29.8307H152.166V27.0629H154.064L155.904 29.8307H156.883L154.944 26.9318C156.074 26.6788 156.573 25.881 156.573 24.9317C156.573 23.9111 156.013 22.9618 154.504 22.9618H151.346V29.8307ZM152.166 26.3051V23.7092H154.334C155.294 23.7092 155.703 24.2952 155.703 24.9718C155.703 25.6488 155.304 26.3051 154.175 26.3051H152.166Z" fill="#00204D"/>
<path d="M160.571 29.8307H161.56L164.089 22.9618H163.219L161.62 27.4871C161.39 28.1132 161.261 28.5176 161.121 28.9922H161.071C160.921 28.5378 160.79 28.1538 160.541 27.497L158.892 22.9618H157.992L160.571 29.8307Z" fill="#00204D"/>
<path d="M166.497 22.9618H165.658V29.8307H166.497V22.9618Z" fill="#00204D"/>
<path d="M171.698 29.9316C173.328 29.9316 174.467 28.9215 174.797 27.3762H173.957C173.657 28.578 172.848 29.1942 171.748 29.1942C170.31 29.1942 169.31 28.0429 169.31 26.3661C169.31 24.7397 170.31 23.5983 171.659 23.5983C172.788 23.5983 173.607 24.2244 173.928 25.3455H174.797C174.407 23.7903 173.288 22.8608 171.679 22.8608C169.79 22.8608 168.431 24.3155 168.431 26.3863C168.431 28.4567 169.76 29.9316 171.698 29.9316Z" fill="#00204D"/>
<path d="M176.526 29.8307H181.283V29.063H177.345V26.7397H179.954V25.972H177.345V23.7195H181.173V22.9618H176.526V29.8307Z" fill="#00204D"/>
<path d="M186.094 29.8307H186.914V27.0832H189.133C190.672 27.0832 191.361 26.0626 191.361 24.9822C191.361 23.9314 190.752 22.9618 189.303 22.9618H186.094V29.8307ZM186.914 26.3254V23.7195H189.162C190.032 23.7195 190.512 24.2145 190.512 25.0025C190.512 25.7701 190.052 26.3254 189.133 26.3254H186.914Z" fill="#00204D"/>
<path d="M193.294 29.8307H194.114V27.0629H196.013L197.852 29.8307H198.831L196.893 26.9318C198.022 26.6788 198.521 25.881 198.521 24.9317C198.521 23.9111 197.962 22.9618 196.453 22.9618H193.294V29.8307ZM194.114 26.3051V23.7092H196.283C197.242 23.7092 197.652 24.2952 197.652 24.9718C197.652 25.6488 197.252 26.3051 196.123 26.3051H194.114Z" fill="#00204D"/>
<path d="M203.798 29.9316C205.797 29.9316 207.216 28.4364 207.216 26.3661C207.216 24.3358 205.797 22.8608 203.798 22.8608C201.779 22.8608 200.34 24.3358 200.34 26.3661C200.34 28.4364 201.779 29.9316 203.798 29.9316ZM203.788 29.1942C202.289 29.1942 201.21 28.0226 201.21 26.3661C201.21 24.7397 202.289 23.5983 203.788 23.5983C205.288 23.5983 206.357 24.7397 206.357 26.3661C206.357 28.0226 205.288 29.1942 203.788 29.1942Z" fill="#00204D"/>
<path d="M210.878 29.8307H211.868L214.396 22.9618H213.527L211.928 27.4871C211.698 28.1132 211.568 28.5176 211.428 28.9922H211.378C211.228 28.5378 211.098 28.1538 210.849 27.497L209.199 22.9618H208.3L210.878 29.8307Z" fill="#00204D"/>
<path d="M216.745 22.9618H215.905V29.8307H216.745V22.9618Z" fill="#00204D"/>
<path d="M219.044 29.8307H221.482C223.591 29.8307 224.82 28.3157 224.82 26.3458C224.82 24.4165 223.711 22.9717 221.542 22.9717H219.044V29.8307ZM219.853 29.1135V23.6691H221.422C223.091 23.6691 223.951 24.76 223.951 26.3864C223.951 27.891 223.091 29.1135 221.422 29.1135H219.853Z" fill="#00204D"/>
<path d="M226.733 29.8307H231.491V29.063H227.553V26.7397H230.161V25.972H227.553V23.7195H231.381V22.9618H226.733V29.8307Z" fill="#00204D"/>
<path d="M233.403 29.8307H234.223V27.0629H236.122L237.961 29.8307H238.94L237.002 26.9318C238.131 26.6788 238.63 25.881 238.63 24.9317C238.63 23.9111 238.071 22.9618 236.562 22.9618H233.403V29.8307ZM234.223 26.3051V23.7092H236.392C237.351 23.7092 237.761 24.2952 237.761 24.9718C237.761 25.6488 237.361 26.3051 236.232 26.3051H234.223Z" fill="#00204D"/>
</g>
<defs>
<clipPath id="clip0_25_238">
<rect width="239" height="39" fill="white" transform="translate(0 0.000427246)"/>
</clipPath>
</defs>
</svg>
