<svg width="67" height="66" viewBox="0 0 67 66" fill="none" xmlns="http://www.w3.org/2000/svg">
<path d="M37.5311 7.73891C39.7524 5.74791 42.6131 4.38666 45.6184 4.13916C46.0437 7.90941 44.3395 11.6467 41.654 14.2647C39.5467 16.4674 36.5776 18.0322 33.4444 17.8094C33.0413 14.0392 34.84 10.3267 37.5311 7.73891Z" fill="black"/>
<path d="M11.7931 24.5882C14.5121 20.4494 19.4495 17.7242 24.4814 17.9937C27.6924 18.2137 30.5142 19.9819 33.6529 20.5017C35.8575 20.2542 37.8703 19.1872 39.9943 18.5904C45.7546 16.6544 52.8661 18.5519 56.3829 23.5899C53.8224 25.1382 51.5733 27.3712 50.5809 30.2257C49.5216 33.3084 49.6412 36.8009 50.9534 39.7929C52.3156 42.7849 54.9261 45.1472 57.9509 46.4424C56.4691 50.9799 53.8614 55.0967 50.6643 58.6414C49.1352 60.2832 47.1169 61.6884 44.7872 61.7737C41.1731 61.9029 38.1177 59.3097 34.4814 59.5324C31.0424 59.3977 28.1289 61.6252 24.7567 61.8397C22.3992 61.9772 20.353 60.5279 18.7739 58.9494C13.3138 53.2597 9.76367 45.7852 8.94911 37.9752C8.5043 33.3827 9.1326 28.4849 11.7931 24.5882Z" fill="black"/>
</svg>
