<svg width="77" height="89" viewBox="0 0 77 89" fill="none" xmlns="http://www.w3.org/2000/svg">
<path d="M76.2125 15.6311C76.2125 14.4859 75.4702 13.5575 74.5588 13.5575C73.645 13.5575 72.9026 14.4859 72.9026 15.6311V19.993C72.9026 21.1444 73.645 22.0732 74.5588 22.0732C75.4702 22.0732 76.2125 21.1444 76.2125 19.993V15.6311ZM67.114 9.90619C67.114 8.76138 66.3737 7.83128 65.4394 7.83128C64.5256 7.83128 63.7853 8.76138 63.7853 9.90619V19.993C63.7853 21.1444 64.5256 22.0732 65.4394 22.0732C66.3737 22.0732 67.114 21.1444 67.114 19.993V9.90619ZM57.9967 2.07402C57.9967 0.928772 57.2564 0 56.3429 0C55.4291 0 54.6889 0.928772 54.6889 2.07402V24.1379C54.6889 25.2898 55.4291 26.2182 56.3429 26.2182C57.2564 26.2182 57.9967 25.2898 57.9967 24.1379V2.07402ZM48.8773 9.90619C48.8773 8.76138 48.1374 7.83128 47.2235 7.83128C46.3118 7.83128 45.5695 8.76138 45.5695 9.90619V19.993C45.5695 21.1444 46.3118 22.0732 47.2235 22.0732C48.1374 22.0732 48.8773 21.1444 48.8773 19.993V9.90619ZM39.76 15.6311C39.76 14.4859 39.0201 13.5575 38.1116 13.5575C37.1977 13.5575 36.4525 14.4859 36.4525 15.6311V19.993C36.4525 21.1444 37.1977 22.0732 38.1116 22.0732C39.0201 22.0732 39.76 21.1444 39.76 19.993V15.6311ZM30.6576 9.90619C30.6576 8.76138 29.912 7.83128 28.9985 7.83128C28.0847 7.83128 27.3391 8.76138 27.3391 9.90619V19.993C27.3391 21.1444 28.0847 22.0732 28.9985 22.0732C29.912 22.0732 30.6576 21.1444 30.6576 19.993V9.90619ZM21.5445 2.07402C21.5445 0.928772 20.799 0 19.8851 0C18.9716 0 18.2261 0.928772 18.2261 2.07402V24.1379C18.2261 25.2898 18.9716 26.2182 19.8851 26.2182C20.799 26.2182 21.5445 25.2898 21.5445 24.1379V2.07402ZM12.4311 9.90619C12.4311 8.76138 11.6859 7.83128 10.7721 7.83128C9.85823 7.83128 9.11304 8.76138 9.11304 9.90619V19.993C9.11304 21.1444 9.85823 22.0732 10.7721 22.0732C11.6859 22.0732 12.4311 21.1444 12.4311 19.993V9.90619ZM3.31807 15.6311C3.31807 14.4859 2.57288 13.5575 1.65903 13.5575C0.746246 13.5575 0 14.4859 0 15.6311V19.993C0 21.1444 0.746246 22.0732 1.65903 22.0732C2.57288 22.0732 3.31807 21.1444 3.31807 19.993V15.6311ZM37.57 33.7174C37.4705 33.6833 35.9395 33.188 34.3126 33.188C31.2323 33.188 29.3778 35.2748 29.3778 38.3825C29.3778 41.1335 30.9292 42.5054 32.7911 43.2433C32.9976 43.3288 33.3017 43.4483 33.5042 43.5324C34.333 43.8596 34.9946 44.3456 34.9946 45.1877C34.9946 46.1293 34.23 46.7389 32.5678 46.7389C31.1071 46.7389 29.7067 46.2147 29.4117 46.1213V49.9449C29.5761 49.9887 31.2404 50.3986 33.0184 50.3986C35.5757 50.3986 38.5011 48.9966 38.5011 44.8229C38.5011 42.7984 37.5132 40.9347 35.3443 40.0697L34.4223 39.7013C33.8722 39.4835 32.8903 39.1307 32.8903 38.1191C32.8903 37.3201 33.6178 36.7574 34.9576 36.7574C36.1135 36.7574 37.5202 37.2448 37.57 37.2643V33.7174ZM65.8113 41.7935C65.8113 44.2111 64.3354 46.1669 62.3549 46.1669C60.3723 46.1669 58.9003 44.2111 58.9003 41.7935C58.9003 39.3808 60.3723 37.4241 62.3549 37.4241C64.3354 37.4241 65.8113 39.3808 65.8113 41.7935ZM62.3549 33.1933C58.2818 33.1933 55.3606 37.0478 55.3606 41.7935C55.3606 46.5467 58.2818 50.3986 62.3549 50.3986C66.4277 50.3986 69.3531 46.5467 69.3531 41.7935C69.3531 37.0478 66.4277 33.1933 62.3549 33.1933ZM16.9608 33.7887C16.6468 33.6718 15.486 33.1933 13.9137 33.1933C9.84694 33.1933 6.8616 36.8313 6.8616 41.7935C6.8616 47.147 10.1571 50.3986 13.9137 50.3986C15.4062 50.3986 16.5455 49.955 16.9608 49.8072V45.347C16.8172 45.4471 15.7248 46.2289 14.1533 46.2289C11.9269 46.2289 10.4909 44.2629 10.4909 41.7935C10.4909 39.2489 11.989 37.3617 14.1533 37.3617C15.7517 37.3617 16.8264 38.1608 16.9608 38.2489V33.7887ZM51.8422 33.7887C51.5257 33.6718 50.3638 33.1933 48.7968 33.1933C44.7241 33.1933 41.7387 36.8313 41.7387 41.7935C41.7387 47.147 45.0381 50.3986 48.7968 50.3986C50.2812 50.3986 51.4223 49.955 51.8422 49.8072V45.347C51.6954 45.4471 50.6016 46.2289 49.0304 46.2289C46.8058 46.2289 45.3712 44.2629 45.3712 41.7935C45.3712 39.2489 46.87 37.3617 49.0304 37.3617C50.6284 37.3617 51.7056 38.1608 51.8422 38.2489V33.7887ZM24.8965 50.1029H21.5544V33.4877H24.8965V50.1029Z" fill="#00BCEB"/>
<path d="M56.732 74.1655V67.1684H57.7706V68.2252H57.8435C57.9711 67.879 58.2019 67.5981 58.536 67.3825C58.87 67.1668 59.2466 67.059 59.6657 67.059C59.7447 67.059 59.8434 67.0605 59.9618 67.0636C60.0803 67.0666 60.1698 67.0712 60.2306 67.0772V68.1706C60.1941 68.1614 60.1106 68.1478 59.98 68.1296C59.8525 68.1083 59.7173 68.0977 59.5746 68.0977C59.2345 68.0977 58.9308 68.169 58.6635 68.3118C58.3993 68.4515 58.1897 68.6458 58.0349 68.8949C57.883 69.1409 57.8071 69.4218 57.8071 69.7376V74.1655H56.732Z" fill="#01BCEB"/>
<path d="M52.1992 74.311C51.525 74.311 50.9434 74.1622 50.4545 73.8646C49.9685 73.5639 49.5935 73.1448 49.3293 72.6073C49.0681 72.0667 48.9375 71.4381 48.9375 70.7213C48.9375 70.0046 49.0681 69.3729 49.3293 68.8263C49.5935 68.2766 49.961 67.8484 50.4317 67.5416C50.9055 67.2319 51.4582 67.077 52.0899 67.077C52.4543 67.077 52.8142 67.1377 53.1695 67.2592C53.5248 67.3807 53.8483 67.5781 54.1398 67.8514C54.4314 68.1217 54.6637 68.48 54.8368 68.9265C55.0099 69.3729 55.0965 69.9226 55.0965 70.5756V71.0311H49.7028V70.1018H54.0032C54.0032 69.707 53.9242 69.3547 53.7663 69.0449C53.6114 68.7352 53.3897 68.4907 53.1012 68.3115C52.8157 68.1323 52.4786 68.0427 52.0899 68.0427C51.6617 68.0427 51.2912 68.149 50.9783 68.3616C50.6686 68.5712 50.4302 68.8445 50.2631 69.1816C50.0961 69.5187 50.0126 69.8801 50.0126 70.2658V70.8853C50.0126 71.4138 50.1037 71.8617 50.2859 72.2292C50.4712 72.5936 50.7278 72.8715 51.0558 73.0628C51.3838 73.2511 51.7649 73.3453 52.1992 73.3453C52.4816 73.3453 52.7368 73.3058 52.9645 73.2268C53.1953 73.1448 53.3943 73.0234 53.5613 72.8624C53.7283 72.6984 53.8574 72.4949 53.9485 72.252L54.9871 72.5435C54.8778 72.8958 54.6941 73.2056 54.4359 73.4728C54.1778 73.737 53.8589 73.9436 53.4793 74.0924C53.0997 74.2381 52.673 74.311 52.1992 74.311Z" fill="#01BCEB"/>
<path d="M42.8368 69.956V74.1653H41.7617V67.1681H42.8004V68.2614H42.8915C43.0555 67.9061 43.3045 67.6206 43.6386 67.405C43.9727 67.1863 44.4039 67.077 44.9323 67.077C45.4061 67.077 45.8207 67.1741 46.176 67.3685C46.5313 67.5598 46.8077 67.8514 47.0051 68.2432C47.2025 68.6319 47.3012 69.1239 47.3012 69.7191V74.1653H46.2261V69.792C46.2261 69.2423 46.0834 68.8141 45.7979 68.5074C45.5124 68.1976 45.1206 68.0427 44.6226 68.0427C44.2794 68.0427 43.9727 68.1171 43.7024 68.2659C43.4351 68.4148 43.2241 68.6319 43.0692 68.9174C42.9143 69.2028 42.8368 69.5491 42.8368 69.956Z" fill="#01BCEB"/>
<path d="M40.1445 67.1684V68.0795H36.5184V67.1684H40.1445ZM37.5752 65.492H38.6503V72.1612C38.6503 72.4649 38.6944 72.6927 38.7824 72.8445C38.8735 72.9933 38.9889 73.0935 39.1286 73.1452C39.2714 73.1938 39.4217 73.2181 39.5796 73.2181C39.6981 73.2181 39.7953 73.212 39.8712 73.1998C39.9471 73.1846 40.0078 73.1725 40.0534 73.1634L40.2721 74.1291C40.1992 74.1565 40.0974 74.1838 39.9669 74.2111C39.8363 74.2415 39.6707 74.2567 39.4703 74.2567C39.1666 74.2567 38.869 74.1914 38.5774 74.0608C38.2889 73.9302 38.049 73.7313 37.8577 73.464C37.6694 73.1968 37.5752 72.8597 37.5752 72.4527V65.492Z" fill="#01BCEB"/>
<path d="M31.89 74.1655V67.1684H32.9287V68.2252H33.0016C33.1291 67.879 33.3599 67.5981 33.694 67.3825C34.0281 67.1668 34.4047 67.059 34.8238 67.059C34.9027 67.059 35.0014 67.0605 35.1199 67.0636C35.2383 67.0666 35.3279 67.0712 35.3886 67.0772V68.1706C35.3522 68.1614 35.2687 68.1478 35.1381 68.1296C35.0105 68.1083 34.8754 68.0977 34.7326 68.0977C34.3925 68.0977 34.0888 68.169 33.8216 68.3118C33.5573 68.4515 33.3478 68.6458 33.1929 68.8949C33.0411 69.1409 32.9651 69.4218 32.9651 69.7376V74.1655H31.89Z" fill="#01BCEB"/>
<path d="M26.7206 74.3292C26.2772 74.3292 25.8748 74.2457 25.5134 74.0787C25.152 73.9086 24.865 73.6642 24.6524 73.3453C24.4398 73.0234 24.3335 72.6346 24.3335 72.1791C24.3335 71.7782 24.4125 71.4532 24.5704 71.2042C24.7283 70.9521 24.9394 70.7547 25.2036 70.612C25.4678 70.4693 25.7594 70.363 26.0783 70.2931C26.4002 70.2202 26.7236 70.1625 27.0486 70.12C27.4738 70.0653 27.8184 70.0243 28.0827 69.997C28.3499 69.9666 28.5443 69.9165 28.6658 69.8467C28.7903 69.7768 28.8525 69.6554 28.8525 69.4822V69.4458C28.8525 68.9963 28.7295 68.6471 28.4835 68.398C28.2406 68.149 27.8716 68.0245 27.3766 68.0245C26.8633 68.0245 26.4609 68.1369 26.1694 68.3616C25.8778 68.5863 25.6728 68.8263 25.5544 69.0814L24.534 68.7169C24.7162 68.2918 24.9591 67.9607 25.2628 67.7238C25.5696 67.4839 25.9036 67.3169 26.265 67.2227C26.6295 67.1256 26.9878 67.077 27.3401 67.077C27.5649 67.077 27.823 67.1043 28.1146 67.159C28.4091 67.2106 28.6931 67.3184 28.9664 67.4824C29.2428 67.6464 29.4721 67.8939 29.6543 68.2249C29.8365 68.556 29.9276 68.9994 29.9276 69.5551V74.1653H28.8525V73.2177H28.7979C28.725 73.3696 28.6035 73.532 28.4334 73.7052C28.2634 73.8783 28.0371 74.0256 27.7547 74.147C27.4722 74.2685 27.1275 74.3292 26.7206 74.3292ZM26.8846 73.3635C27.3098 73.3635 27.6681 73.28 27.9597 73.1129C28.2543 72.9459 28.476 72.7303 28.6248 72.4661C28.7766 72.2019 28.8525 71.924 28.8525 71.6324V70.6484C28.807 70.7031 28.7068 70.7532 28.5519 70.7988C28.4 70.8413 28.2239 70.8793 28.0234 70.9127C27.826 70.943 27.6332 70.9704 27.4449 70.9947C27.2596 71.0159 27.1093 71.0341 26.9939 71.0493C26.7145 71.0858 26.4533 71.145 26.2104 71.227C25.9705 71.3059 25.7761 71.4259 25.6273 71.5869C25.4815 71.7448 25.4086 71.9604 25.4086 72.2337C25.4086 72.6073 25.5468 72.8897 25.8232 73.0811C26.1026 73.2693 26.4564 73.3635 26.8846 73.3635Z" fill="#01BCEB"/>
<path d="M16.6646 74.1656V64.836H19.817C20.5489 64.836 21.1472 64.9681 21.6119 65.2323C22.0796 65.4935 22.4258 65.8473 22.6505 66.2937C22.8752 66.7402 22.9876 67.2382 22.9876 67.7879C22.9876 68.3376 22.8752 68.8372 22.6505 69.2867C22.4288 69.7361 22.0856 70.0945 21.621 70.3618C21.1563 70.626 20.5611 70.7581 19.8352 70.7581H17.5757V69.7559H19.7988C20.2999 69.7559 20.7023 69.6693 21.006 69.4962C21.3097 69.3231 21.5299 69.0893 21.6665 68.7947C21.8062 68.4971 21.8761 68.1615 21.8761 67.7879C21.8761 67.4144 21.8062 67.0803 21.6665 66.7857C21.5299 66.4911 21.3082 66.2603 21.0014 66.0933C20.6947 65.9232 20.2877 65.8382 19.7806 65.8382H17.7944V74.1656H16.6646Z" fill="#01BCEB"/>
<path d="M58.9786 88.9138V85.211H59.5282V85.7703H59.5668C59.6343 85.5871 59.7565 85.4384 59.9332 85.3243C60.11 85.2102 60.3093 85.1531 60.5311 85.1531C60.5729 85.1531 60.6251 85.1539 60.6878 85.1555C60.7505 85.1572 60.7979 85.1596 60.83 85.1628V85.7413C60.8107 85.7365 60.7665 85.7293 60.6974 85.7196C60.6299 85.7084 60.5584 85.7028 60.4829 85.7028C60.3029 85.7028 60.1422 85.7405 60.0007 85.8161C59.8609 85.89 59.75 85.9929 59.6681 86.1246C59.5877 86.2548 59.5475 86.4035 59.5475 86.5706V88.9138H58.9786Z" fill="#005073"/>
<path d="M56.58 88.9912C56.2233 88.9912 55.9155 88.9124 55.6568 88.7549C55.3996 88.5958 55.2011 88.374 55.0613 88.0896C54.9231 87.8035 54.854 87.4708 54.854 87.0916C54.854 86.7123 54.9231 86.378 55.0613 86.0887C55.2011 85.7978 55.3956 85.5712 55.6447 85.4089C55.8954 85.245 56.1879 85.163 56.5222 85.163C56.715 85.163 56.9055 85.1952 57.0935 85.2595C57.2815 85.3237 57.4527 85.4282 57.607 85.5728C57.7613 85.7159 57.8842 85.9055 57.9758 86.1418C58.0674 86.378 58.1132 86.6689 58.1132 87.0144V87.2555H55.259V86.7637H57.5347C57.5347 86.5548 57.4929 86.3684 57.4093 86.2044C57.3274 86.0405 57.21 85.9111 57.0574 85.8163C56.9063 85.7215 56.7279 85.6741 56.5222 85.6741C56.2956 85.6741 56.0995 85.7303 55.934 85.8428C55.7701 85.9537 55.6439 86.0984 55.5555 86.2768C55.4671 86.4551 55.4229 86.6464 55.4229 86.8505V87.1783C55.4229 87.458 55.4711 87.695 55.5676 87.8895C55.6656 88.0824 55.8014 88.2294 55.975 88.3306C56.1485 88.4303 56.3502 88.4801 56.58 88.4801C56.7295 88.4801 56.8645 88.4592 56.985 88.4174C57.1072 88.374 57.2124 88.3098 57.3008 88.2246C57.3892 88.1378 57.4575 88.0301 57.5057 87.9015L58.0554 88.0558C57.9975 88.2423 57.9003 88.4062 57.7637 88.5476C57.6271 88.6874 57.4583 88.7967 57.2574 88.8755C57.0566 88.9526 56.8308 88.9912 56.58 88.9912Z" fill="#005073"/>
<path d="M52.2095 88.9913C51.9009 88.9913 51.6285 88.9134 51.3922 88.7575C51.156 88.6 50.9712 88.3782 50.8378 88.0921C50.7044 87.8045 50.6377 87.4646 50.6377 87.0724C50.6377 86.6835 50.7044 86.346 50.8378 86.0599C50.9712 85.7739 51.1568 85.5529 51.3946 85.397C51.6325 85.2411 51.9073 85.1632 52.2191 85.1632C52.4602 85.1632 52.6506 85.2033 52.7904 85.2837C52.9319 85.3624 53.0395 85.4524 53.1135 85.5537C53.189 85.6533 53.2477 85.7353 53.2894 85.7996H53.3376V83.9771H53.9066V88.9142H53.3569V88.3453H53.2894C53.2477 88.4128 53.1882 88.4979 53.111 88.6008C53.0339 88.702 52.9238 88.7928 52.7808 88.8732C52.6377 88.9519 52.4473 88.9913 52.2095 88.9913ZM52.2866 88.4802C52.5148 88.4802 52.7077 88.4208 52.8652 88.3019C53.0227 88.1813 53.1424 88.015 53.2243 87.8029C53.3063 87.5891 53.3473 87.3424 53.3473 87.0628C53.3473 86.7863 53.3071 86.5445 53.2268 86.3372C53.1464 86.1282 53.0275 85.9659 52.87 85.8502C52.7125 85.7329 52.518 85.6742 52.2866 85.6742C52.0455 85.6742 51.8446 85.7361 51.6839 85.8598C51.5248 85.982 51.4051 86.1483 51.3247 86.3589C51.246 86.5678 51.2066 86.8024 51.2066 87.0628C51.2066 87.3263 51.2468 87.5658 51.3271 87.7812C51.4091 87.9949 51.5296 88.1653 51.6887 88.2922C51.8495 88.4176 52.0487 88.4802 52.2866 88.4802Z" fill="#005073"/>
<path d="M49.2004 88.9142V85.2114H49.7693V88.9142H49.2004ZM49.4897 84.5943C49.3788 84.5943 49.2832 84.5565 49.2028 84.481C49.1241 84.4055 49.0847 84.3147 49.0847 84.2086C49.0847 84.1025 49.1241 84.0117 49.2028 83.9362C49.2832 83.8606 49.3788 83.8229 49.4897 83.8229C49.6006 83.8229 49.6954 83.8606 49.7742 83.9362C49.8545 84.0117 49.8947 84.1025 49.8947 84.2086C49.8947 84.3147 49.8545 84.4055 49.7742 84.481C49.6954 84.5565 49.6006 84.5943 49.4897 84.5943Z" fill="#005073"/>
<path d="M48.4496 85.211L47.0803 88.9138H46.5018L45.1325 85.211H45.7496L46.7718 88.1617H46.8103L47.8325 85.211H48.4496Z" fill="#005073"/>
<path d="M43.008 88.9912C42.6737 88.9912 42.3804 88.9116 42.1281 88.7525C41.8774 88.5934 41.6813 88.3708 41.5399 88.0848C41.4 87.7987 41.3301 87.4644 41.3301 87.0819C41.3301 86.6962 41.4 86.3595 41.5399 86.0718C41.6813 85.7842 41.8774 85.5608 42.1281 85.4017C42.3804 85.2426 42.6737 85.163 43.008 85.163C43.3422 85.163 43.6347 85.2426 43.8855 85.4017C44.1378 85.5608 44.3338 85.7842 44.4737 86.0718C44.6151 86.3595 44.6858 86.6962 44.6858 87.0819C44.6858 87.4644 44.6151 87.7987 44.4737 88.0848C44.3338 88.3708 44.1378 88.5934 43.8855 88.7525C43.6347 88.9116 43.3422 88.9912 43.008 88.9912ZM43.008 88.4801C43.2619 88.4801 43.4708 88.415 43.6347 88.2848C43.7987 88.1547 43.92 87.9835 43.9988 87.7714C44.0775 87.5592 44.1169 87.3294 44.1169 87.0819C44.1169 86.8344 44.0775 86.6038 43.9988 86.3901C43.92 86.1763 43.7987 86.0035 43.6347 85.8718C43.4708 85.74 43.2619 85.6741 43.008 85.6741C42.754 85.6741 42.5451 85.74 42.3812 85.8718C42.2173 86.0035 42.0959 86.1763 42.0172 86.3901C41.9384 86.6038 41.8991 86.8344 41.8991 87.0819C41.8991 87.3294 41.9384 87.5592 42.0172 87.7714C42.0959 87.9835 42.2173 88.1547 42.3812 88.2848C42.5451 88.415 42.754 88.4801 43.008 88.4801Z" fill="#005073"/>
<path d="M39.0907 88.9138V85.211H39.6404V85.7703H39.6789C39.7464 85.5871 39.8686 85.4384 40.0454 85.3243C40.2221 85.2102 40.4214 85.1531 40.6432 85.1531C40.685 85.1531 40.7372 85.1539 40.7999 85.1555C40.8626 85.1572 40.91 85.1596 40.9421 85.1628V85.7413C40.9228 85.7365 40.8786 85.7293 40.8095 85.7196C40.742 85.7084 40.6705 85.7028 40.595 85.7028C40.415 85.7028 40.2543 85.7405 40.1129 85.8161C39.973 85.89 39.8621 85.9929 39.7802 86.1246C39.6998 86.2548 39.6596 86.4035 39.6596 86.5706V88.9138H39.0907Z" fill="#005073"/>
<path d="M34.8587 88.9142V83.9771H36.5269C36.9142 83.9771 37.2308 84.047 37.4767 84.1868C37.7242 84.3251 37.9074 84.5123 38.0264 84.7485C38.1453 84.9848 38.2047 85.2483 38.2047 85.5392C38.2047 85.8301 38.1453 86.0945 38.0264 86.3323C37.909 86.5702 37.7274 86.7598 37.4815 86.9013C37.2357 87.0411 36.9207 87.111 36.5366 87.111H35.3409V86.5806H36.5173C36.7825 86.5806 36.9954 86.5348 37.1561 86.4432C37.3168 86.3516 37.4333 86.2279 37.5057 86.072C37.5796 85.9145 37.6165 85.7369 37.6165 85.5392C37.6165 85.3416 37.5796 85.1648 37.5057 85.0089C37.4333 84.853 37.316 84.7308 37.1537 84.6425C36.9914 84.5525 36.776 84.5075 36.5076 84.5075H35.4566V88.9142H34.8587Z" fill="#005073"/>
<path d="M32.0165 85.2113V85.6934H30.0976V85.2113H32.0165ZM30.6568 84.3242H31.2258V87.8534C31.2258 88.0141 31.2491 88.1346 31.2957 88.215C31.3439 88.2937 31.405 88.3468 31.4789 88.3741C31.5544 88.3998 31.634 88.4127 31.7175 88.4127C31.7802 88.4127 31.8316 88.4094 31.8718 88.403C31.912 88.395 31.9441 88.3886 31.9682 88.3837L32.084 88.8948C32.0454 88.9093 31.9916 88.9237 31.9224 88.9382C31.8533 88.9543 31.7658 88.9623 31.6597 88.9623C31.499 88.9623 31.3415 88.9277 31.1872 88.8586C31.0345 88.7895 30.9076 88.6843 30.8063 88.5428C30.7067 88.4014 30.6568 88.223 30.6568 88.0077V84.3242Z" fill="#005073"/>
<path d="M28.1183 88.9912C27.7712 88.9912 27.4722 88.9092 27.2215 88.7453C26.9708 88.5814 26.778 88.3556 26.643 88.0679C26.508 87.7802 26.4405 87.4516 26.4405 87.0819C26.4405 86.7059 26.5096 86.374 26.6478 86.0863C26.7876 85.797 26.9821 85.5712 27.2312 85.4089C27.4819 85.245 27.7744 85.163 28.1086 85.163C28.369 85.163 28.6036 85.2112 28.8126 85.3077C29.0215 85.4041 29.1926 85.5391 29.326 85.7127C29.4594 85.8862 29.5422 86.0887 29.5743 86.3201H29.0054C28.962 86.1514 28.8656 86.0019 28.7161 85.8718C28.5683 85.74 28.369 85.6741 28.1183 85.6741C27.8965 85.6741 27.702 85.7319 27.5349 85.8477C27.3694 85.9618 27.24 86.1233 27.1468 86.3322C27.0552 86.5395 27.0094 86.783 27.0094 87.0626C27.0094 87.3487 27.0544 87.5978 27.1444 87.8099C27.236 88.0221 27.3646 88.1868 27.5301 88.3041C27.6972 88.4215 27.8933 88.4801 28.1183 88.4801C28.2661 88.4801 28.4003 88.4544 28.5209 88.403C28.6414 88.3515 28.7435 88.2776 28.827 88.1812C28.9106 88.0848 28.9701 87.969 29.0054 87.8341H29.5743C29.5422 88.0526 29.4626 88.2495 29.3357 88.4247C29.2103 88.5982 29.044 88.7364 28.8367 88.8393C28.631 88.9406 28.3915 88.9912 28.1183 88.9912Z" fill="#005073"/>
<path d="M24.2155 88.9912C23.8587 88.9912 23.551 88.9124 23.2922 88.7549C23.0351 88.5958 22.8366 88.374 22.6968 88.0896C22.5586 87.8035 22.4895 87.4708 22.4895 87.0916C22.4895 86.7123 22.5586 86.378 22.6968 86.0887C22.8366 85.7978 23.0311 85.5712 23.2802 85.4089C23.5309 85.245 23.8234 85.163 24.1577 85.163C24.3505 85.163 24.541 85.1952 24.729 85.2595C24.917 85.3237 25.0882 85.4282 25.2425 85.5728C25.3967 85.7159 25.5197 85.9055 25.6113 86.1418C25.7029 86.378 25.7487 86.6689 25.7487 87.0144V87.2555H22.8945V86.7637H25.1701C25.1701 86.5548 25.1284 86.3684 25.0448 86.2044C24.9628 86.0405 24.8455 85.9111 24.6928 85.8163C24.5418 85.7215 24.3634 85.6741 24.1577 85.6741C23.9311 85.6741 23.735 85.7303 23.5695 85.8428C23.4055 85.9537 23.2794 86.0984 23.191 86.2768C23.1026 86.4551 23.0584 86.6464 23.0584 86.8505V87.1783C23.0584 87.458 23.1066 87.695 23.203 87.8895C23.3011 88.0824 23.4369 88.2294 23.6104 88.3306C23.784 88.4303 23.9857 88.4801 24.2155 88.4801C24.365 88.4801 24.5 88.4592 24.6205 88.4174C24.7426 88.374 24.8479 88.3098 24.9363 88.2246C25.0247 88.1378 25.093 88.0301 25.1412 87.9015L25.6908 88.0558C25.633 88.2423 25.5358 88.4062 25.3992 88.5476C25.2625 88.6874 25.0938 88.7967 24.8929 88.8755C24.692 88.9526 24.4662 88.9912 24.2155 88.9912Z" fill="#005073"/>
<path d="M21.6211 83.9771V88.9142H21.0522V83.9771H21.6211Z" fill="#005073"/>
<path d="M18.6536 88.9912C18.2968 88.9912 17.9891 88.9124 17.7303 88.7549C17.4732 88.5958 17.2747 88.374 17.1349 88.0896C16.9967 87.8035 16.9276 87.4708 16.9276 87.0916C16.9276 86.7123 16.9967 86.378 17.1349 86.0887C17.2747 85.7978 17.4691 85.5712 17.7183 85.4089C17.969 85.245 18.2615 85.163 18.5957 85.163C18.7886 85.163 18.979 85.1952 19.1671 85.2595C19.3551 85.3237 19.5263 85.4282 19.6805 85.5728C19.8348 85.7159 19.9578 85.9055 20.0494 86.1418C20.141 86.378 20.1868 86.6689 20.1868 87.0144V87.2555H17.3325V86.7637H19.6082C19.6082 86.5548 19.5664 86.3684 19.4829 86.2044C19.4009 86.0405 19.2836 85.9111 19.1309 85.8163C18.9798 85.7215 18.8014 85.6741 18.5957 85.6741C18.3691 85.6741 18.1731 85.7303 18.0075 85.8428C17.8436 85.9537 17.7174 86.0984 17.6291 86.2768C17.5407 86.4551 17.4965 86.6464 17.4965 86.8505V87.1783C17.4965 87.458 17.5447 87.695 17.6411 87.8895C17.7391 88.0824 17.8749 88.2294 18.0485 88.3306C18.2221 88.4303 18.4238 88.4801 18.6536 88.4801C18.8031 88.4801 18.9381 88.4592 19.0586 88.4174C19.1807 88.374 19.286 88.3098 19.3744 88.2246C19.4628 88.1378 19.5311 88.0301 19.5793 87.9015L20.1289 88.0558C20.0711 88.2423 19.9738 88.4062 19.8372 88.5476C19.7006 88.6874 19.5319 88.7967 19.331 88.8755C19.1301 88.9526 18.9043 88.9912 18.6536 88.9912Z" fill="#005073"/>
<path d="M15.5492 85.2108C15.5203 84.9665 15.403 84.7768 15.1973 84.6418C14.9916 84.5068 14.7393 84.4393 14.4403 84.4393C14.2218 84.4393 14.0305 84.4747 13.8666 84.5454C13.7043 84.6161 13.5773 84.7134 13.4857 84.8371C13.3957 84.9609 13.3507 85.1015 13.3507 85.259C13.3507 85.3908 13.382 85.5041 13.4447 85.5989C13.509 85.6921 13.591 85.77 13.6906 85.8327C13.7903 85.8938 13.8947 85.9444 14.004 85.9846C14.1133 86.0232 14.2137 86.0545 14.3053 86.0786L14.8068 86.2136C14.9353 86.2473 15.0784 86.294 15.2359 86.3534C15.395 86.4129 15.5468 86.494 15.6915 86.5969C15.8377 86.6981 15.9583 86.8283 16.0531 86.9874C16.1479 87.1465 16.1953 87.3418 16.1953 87.5732C16.1953 87.84 16.1254 88.0811 15.9856 88.2964C15.8474 88.5118 15.6449 88.6829 15.3781 88.8099C15.1129 88.9369 14.7907 89.0003 14.4114 89.0003C14.0578 89.0003 13.7517 88.9433 13.4929 88.8292C13.2358 88.7151 13.0333 88.556 12.8854 88.3519C12.7392 88.1478 12.6564 87.9107 12.6371 87.6407H13.2543C13.2703 87.8271 13.333 87.9814 13.4423 88.1036C13.5532 88.2241 13.693 88.3141 13.8618 88.3736C14.0321 88.4314 14.2153 88.4603 14.4114 88.4603C14.6396 88.4603 14.8445 88.4234 15.0261 88.3495C15.2077 88.2739 15.3516 88.1695 15.4576 88.0361C15.5637 87.9011 15.6167 87.7436 15.6167 87.5636C15.6167 87.3997 15.5709 87.2663 15.4793 87.1634C15.3877 87.0605 15.2672 86.977 15.1177 86.9127C14.9683 86.8484 14.8068 86.7922 14.6332 86.7439L14.0257 86.5704C13.64 86.4595 13.3346 86.3012 13.1096 86.0955C12.8846 85.8898 12.7721 85.6206 12.7721 85.2879C12.7721 85.0115 12.8469 84.7704 12.9963 84.5647C13.1474 84.3574 13.3499 84.1967 13.6038 84.0826C13.8594 83.9669 14.1446 83.909 14.4596 83.909C14.7778 83.909 15.0607 83.966 15.3082 84.0802C15.5557 84.1927 15.7517 84.3469 15.8964 84.543C16.0426 84.7391 16.1198 84.9617 16.1278 85.2108H15.5492Z" fill="#005073"/>
</svg>
