<svg width="107" height="51" viewBox="0 0 107 51" fill="none" xmlns="http://www.w3.org/2000/svg">
<g clip-path="url(#clip0_25_179)">
<path fill-rule="evenodd" clip-rule="evenodd" d="M107 7.12625C107 3.19369 103.814 0.00146484 99.8897 0.00146484H-2.28882e-05V43.8774C-2.28882e-05 47.8095 3.18604 51.0017 7.1104 51.0017H107V7.12625Z" fill="#1B2C5D"/>
<path d="M47.628 13.3359C48.7406 13.3359 49.5813 13.5006 50.1503 13.8276C50.719 14.1571 51.0035 14.7286 51.0035 15.5448C51.0035 16.069 50.858 16.5033 50.5675 16.8477C50.2768 17.1947 49.8576 17.4169 49.3095 17.5167V17.5791C49.6832 17.6365 50.0215 17.7438 50.3246 17.9035C50.6276 18.0608 50.8665 18.2855 51.0408 18.5775C51.2152 18.867 51.3024 19.2464 51.3024 19.7131C51.3024 20.5194 51.0261 21.1434 50.4741 21.5852C49.9218 22.0245 49.1683 22.2466 48.2134 22.2466H45.0871V13.3359H47.628ZM47.8522 17.1298C48.616 17.1298 49.1391 17.0075 49.4216 16.7604C49.7039 16.5158 49.8451 16.1513 49.8451 15.6696C49.8451 15.1779 49.6727 14.826 49.3282 14.6138C48.9834 14.4016 48.4334 14.2968 47.6779 14.2968H46.2081V17.1298H47.8522ZM46.2081 18.0658V21.2981H48.0017C48.7904 21.2981 49.3384 21.1434 49.6458 20.8364C49.953 20.5268 50.1067 20.125 50.1067 19.6258C50.1067 19.1591 49.9467 18.7822 49.6271 18.4951C49.3073 18.2081 48.7366 18.0658 47.9145 18.0658H46.2081Z" fill="white"/>
<path fill-rule="evenodd" clip-rule="evenodd" d="M49.6373 17.5416C50.0618 17.4168 50.3969 17.2072 50.6437 16.9126C50.9489 16.5507 51.1034 16.094 51.1034 15.5448C51.1034 14.6862 50.7984 14.0872 50.2001 13.7402C49.6199 13.4058 48.763 13.236 47.628 13.236H45.0871C45.0318 13.236 44.987 13.2785 44.987 13.3359V22.2467C44.987 22.3016 45.0318 22.3465 45.0871 22.3465H48.2134C49.1949 22.3465 49.9687 22.1168 50.5364 21.6626C51.1118 21.2033 51.4023 20.5543 51.4023 19.7132C51.4023 19.224 51.3089 18.8296 51.1265 18.5251C50.9424 18.2181 50.6906 17.981 50.3707 17.8137C50.1453 17.6964 49.9007 17.604 49.6373 17.5416ZM47.628 13.4357C48.7184 13.4357 49.5429 13.5929 50.1002 13.9149C50.6393 14.2269 50.9033 14.7711 50.9033 15.5448C50.9033 16.0415 50.7671 16.4559 50.491 16.7829C50.2143 17.1123 49.8135 17.322 49.2916 17.4168C49.244 17.4268 49.2094 17.4668 49.2094 17.5167V17.5791C49.2094 17.6265 49.2455 17.669 49.2941 17.6764C49.6563 17.7339 49.9846 17.8387 50.2783 17.9909C50.5648 18.1407 50.7902 18.3529 50.9551 18.6274C51.1215 18.907 51.2023 19.2689 51.2023 19.7132C51.2023 20.4844 50.9404 21.0835 50.4118 21.5054C49.875 21.9347 49.1416 22.1443 48.2134 22.1443H45.187V13.4357H47.628ZM46.2081 17.9635C46.1528 17.9635 46.108 18.0109 46.108 18.0658V21.2982C46.108 21.3531 46.1528 21.398 46.2081 21.398H48.0017C48.8255 21.398 49.3955 21.2283 49.7163 20.9063C50.0419 20.5793 50.2066 20.1525 50.2066 19.6258C50.2066 19.1291 50.0347 18.7273 49.6936 18.4203C49.3611 18.1232 48.7694 17.9635 47.9145 17.9635H46.2081ZM46.308 18.1657H47.9145C48.7034 18.1657 49.2535 18.2955 49.5604 18.57C49.8588 18.8371 50.0065 19.189 50.0065 19.6258C50.0065 20.0951 49.864 20.4744 49.5751 20.764C49.2814 21.0585 48.7555 21.1983 48.0017 21.1983H46.308V18.1657ZM47.8522 17.2296C48.6489 17.2296 49.1924 17.0923 49.4871 16.8353C49.7893 16.5732 49.945 16.1863 49.945 15.6696C49.945 15.138 49.7537 14.7586 49.3805 14.5289C49.0248 14.3093 48.4578 14.197 47.6779 14.197H46.2081C46.1528 14.197 46.108 14.2394 46.108 14.2968V17.1298C46.108 17.1847 46.1528 17.2296 46.2081 17.2296H47.8522ZM47.8522 17.0275H46.308V14.3967H47.6779C48.409 14.3967 48.9423 14.494 49.2759 14.6987C49.5918 14.8934 49.745 15.2179 49.745 15.6696C49.745 16.1164 49.6184 16.4584 49.3561 16.6855C49.0858 16.9202 48.5831 17.0275 47.8522 17.0275Z" fill="white"/>
<path d="M58.319 15.8103V22.7517H57.4222L57.2603 21.8656H57.2104C56.9945 22.2151 56.6955 22.4697 56.3136 22.6344C55.9315 22.7967 55.5247 22.8765 55.093 22.8765C54.2874 22.8765 53.9337 22.6818 53.5269 22.2974C53.1201 21.9081 52.9165 21.2916 52.9165 20.4429V15.8103H54.0251V20.368C54.0251 21.4338 54.2667 21.9655 55.2549 21.9655C55.9938 21.9655 56.5067 21.7583 56.7932 21.3415C57.0797 20.9246 57.2229 20.0735 57.2229 19.2922V15.8103H58.319Z" fill="white"/>
<path fill-rule="evenodd" clip-rule="evenodd" d="M57.1952 22.0653L57.3238 22.7691C57.3325 22.8166 57.3738 22.8515 57.4222 22.8515H58.319C58.374 22.8515 58.4189 22.8066 58.4189 22.7517V15.8103C58.4189 15.7554 58.374 15.7104 58.319 15.7104H57.2229C57.1676 15.7104 57.1227 15.7554 57.1227 15.8103V19.2922C57.1227 20.051 56.9892 20.8797 56.7107 21.284C56.4402 21.6784 55.9527 21.8656 55.2549 21.8656C54.891 21.8656 54.6356 21.7932 54.462 21.636C54.1955 21.3939 54.125 20.9695 54.125 20.368V15.8103C54.125 15.7554 54.0804 15.7104 54.0251 15.7104H52.9165C52.8615 15.7104 52.8166 15.7554 52.8166 15.8103V20.4429C52.8166 21.3265 53.0349 21.9654 53.4581 22.3698C53.8831 22.7717 54.2518 22.9763 55.093 22.9763C55.5384 22.9763 55.9584 22.8914 56.3525 22.7242C56.698 22.5794 56.979 22.3598 57.1952 22.0653ZM58.2188 15.9101V22.6518H57.5054L57.3584 21.8481C57.3497 21.8007 57.3083 21.7657 57.2603 21.7657H57.2104C57.1758 21.7657 57.1437 21.7832 57.1255 21.8132C56.9205 22.1452 56.637 22.3873 56.2745 22.542C55.9048 22.6993 55.511 22.7766 55.093 22.7766C54.3232 22.7766 53.9845 22.5944 53.5956 22.2225C53.2052 21.8531 53.0164 21.2566 53.0164 20.4429V15.9101H53.9252V20.368C53.9252 21.0444 54.0288 21.5136 54.3282 21.7832C54.532 21.9679 54.8282 22.0653 55.2549 22.0653C56.0351 22.0653 56.573 21.8381 56.8754 21.3988C57.1698 20.9695 57.3228 20.0959 57.3228 19.2922V15.9101H58.2188Z" fill="white"/>
<path d="M64.6741 20.7765C64.6741 21.4255 64.4332 21.9172 63.9517 22.2492C63.4702 22.5811 62.8225 22.7484 62.0086 22.7484C61.5435 22.7484 61.143 22.7109 60.8067 22.636C60.4704 22.5611 60.1734 22.4563 59.9161 22.324V21.3256C60.1819 21.4579 60.5035 21.5827 60.8814 21.6951C61.2593 21.8049 61.6432 21.8623 62.0335 21.8623C62.5898 21.8623 62.9926 21.7724 63.2417 21.5927C63.4908 21.4155 63.6154 21.1759 63.6154 20.8764C63.6154 20.7091 63.5698 20.5594 63.4784 20.4271C63.3869 20.2948 63.223 20.16 62.9864 20.0277C62.7497 19.8954 62.4114 19.7456 61.9713 19.5784C61.5396 19.4112 61.1699 19.2464 60.8627 19.0792C60.5556 18.912 60.3189 18.7123 60.1528 18.4802C59.9866 18.248 59.9037 17.9485 59.9037 17.5816C59.9037 17.015 60.1341 16.5782 60.5949 16.2712C61.0558 15.9642 61.6599 15.8094 62.4072 15.8094C62.814 15.8094 63.1939 15.8494 63.5469 15.9293C63.8999 16.0066 64.2299 16.1165 64.5371 16.2587L64.1634 17.1323C63.8812 17.015 63.5862 16.9151 63.2791 16.8328C62.9719 16.7504 62.6563 16.708 62.3325 16.708C61.8841 16.708 61.5416 16.7804 61.3049 16.9277C61.0682 17.0724 60.9499 17.2696 60.9499 17.5192C60.9499 17.7014 61.004 17.8587 61.1118 17.9885C61.2197 18.1158 61.4003 18.2406 61.6536 18.3629C61.907 18.4827 62.2453 18.6249 62.6688 18.7922C63.0923 18.9494 63.4535 19.1117 63.7524 19.2789C64.0513 19.4461 64.2798 19.6483 64.4374 19.8855C64.5951 20.1201 64.6741 20.4196 64.6741 20.7765Z" fill="white"/>
<path fill-rule="evenodd" clip-rule="evenodd" d="M64.774 20.7765C64.774 20.3971 64.6883 20.0801 64.5206 19.828C64.3547 19.5784 64.1153 19.3662 63.801 19.1915C63.4983 19.0218 63.1326 18.8596 62.7039 18.6998C62.2841 18.5326 61.9481 18.3903 61.6965 18.2704C61.4596 18.1581 61.2894 18.0433 61.1883 17.9235C61.0954 17.8112 61.0498 17.6764 61.0498 17.5191C61.0498 17.3045 61.1539 17.1373 61.3572 17.0125C61.5816 16.8727 61.9072 16.8078 62.3325 16.8078C62.6473 16.8078 62.9542 16.8478 63.2529 16.9301C63.5561 17.0125 63.8468 17.1098 64.1253 17.2246C64.1759 17.2446 64.2337 17.2221 64.2553 17.1722L64.629 16.2986C64.6502 16.2487 64.628 16.1913 64.5787 16.1688C64.2653 16.0241 63.9288 15.9118 63.5688 15.8294C63.2091 15.7495 62.822 15.7095 62.4072 15.7095C61.6367 15.7095 61.0147 15.8718 60.5394 16.1888C60.0494 16.5158 59.8038 16.98 59.8038 17.5815C59.8038 17.9709 59.8944 18.2904 60.0715 18.5375C60.2457 18.7821 60.493 18.9918 60.8151 19.1665C61.1258 19.3363 61.4989 19.5035 61.9354 19.6707C61.9356 19.6732 61.9359 19.6732 61.9359 19.6732C62.3701 19.8355 62.7039 19.9827 62.9376 20.115C63.1573 20.2398 63.3112 20.3596 63.3959 20.4844C63.4759 20.5993 63.5155 20.7316 63.5155 20.8763C63.5155 21.1409 63.4044 21.353 63.1834 21.5128C62.9465 21.6825 62.5624 21.7624 62.0335 21.7624C61.6529 21.7624 61.2782 21.7075 60.9098 21.5977C60.5384 21.4878 60.222 21.368 59.9607 21.2357C59.9298 21.2208 59.8929 21.2233 59.8635 21.2407C59.8341 21.2582 59.8162 21.2906 59.8162 21.3256V22.324C59.8162 22.3614 59.8371 22.3964 59.8703 22.4139C60.1346 22.5486 60.4395 22.656 60.785 22.7334C61.1273 22.8107 61.5353 22.8482 62.0086 22.8482C62.8464 22.8482 63.5125 22.6734 64.0085 22.3315C64.5174 21.9795 64.774 21.4629 64.774 20.7765ZM64.5742 20.7765C64.5742 21.388 64.3493 21.8523 63.8949 22.1668C63.4275 22.4887 62.7983 22.6485 62.0086 22.6485C61.552 22.6485 61.1587 22.611 60.8283 22.5387C60.5244 22.4713 60.2536 22.3789 60.016 22.2616V21.4828C60.2559 21.5927 60.5349 21.695 60.853 21.7899C61.2401 21.9047 61.6337 21.9621 62.0335 21.9621C62.6172 21.9621 63.0384 21.8622 63.3 21.675C63.5773 21.4754 63.7153 21.2108 63.7153 20.8763C63.7153 20.6891 63.6637 20.5194 63.5608 20.3696C63.4629 20.2274 63.2888 20.0826 63.0352 19.9403C62.7956 19.8055 62.4528 19.6533 62.0069 19.486C61.5797 19.3213 61.2142 19.1566 60.9103 18.9918C60.6178 18.8321 60.3922 18.6449 60.234 18.4227C60.0788 18.2056 60.0035 17.9235 60.0035 17.5815C60.0035 17.0524 60.2188 16.6431 60.6505 16.3535C61.0969 16.0565 61.683 15.9092 62.4072 15.9092C62.8063 15.9092 63.1789 15.9492 63.525 16.0265C63.8371 16.0964 64.1308 16.1913 64.4066 16.3086L64.1101 17.0025C63.8518 16.9002 63.5835 16.8128 63.3052 16.7354C62.9894 16.6506 62.6653 16.6081 62.3325 16.6081C61.8609 16.6081 61.5014 16.688 61.2526 16.8402C60.9825 17.0075 60.85 17.2346 60.85 17.5191C60.85 17.7288 60.9123 17.9061 61.0354 18.0508C61.1502 18.1881 61.341 18.3229 61.6108 18.4527C61.8656 18.5725 62.2062 18.7173 62.6324 18.8845C62.6329 18.8845 62.6334 18.887 62.6339 18.887C63.0519 19.0418 63.4086 19.2015 63.7038 19.3662C63.9873 19.5235 64.2048 19.7157 64.3542 19.9403C64.5022 20.1625 64.5742 20.442 64.5742 20.7765Z" fill="white"/>
<path d="M66.8194 13.3009C66.9853 13.3009 67.1328 13.3558 67.2616 13.4706C67.3901 13.5829 67.4547 13.7577 67.4547 13.9998C67.4547 14.2319 67.3901 14.4066 67.2616 14.5239C67.1328 14.6412 66.9853 14.6987 66.8194 14.6987C66.6366 14.6987 66.4831 14.6412 66.3586 14.5239C66.234 14.4066 66.1718 14.2319 66.1718 13.9998C66.1718 13.7577 66.234 13.5829 66.3586 13.4706C66.4831 13.3558 66.6366 13.3009 66.8194 13.3009ZM67.355 15.8094V22.4987H66.2589V15.8094H67.355Z" fill="white"/>
<path fill-rule="evenodd" clip-rule="evenodd" d="M67.4549 15.8094C67.4549 15.7545 67.4101 15.7096 67.355 15.7096H66.2589C66.2036 15.7096 66.159 15.7545 66.159 15.8094V22.4988C66.159 22.5537 66.2036 22.5986 66.2589 22.5986H67.355C67.4101 22.5986 67.4549 22.5537 67.4549 22.4988V15.8094ZM67.2551 15.9093V22.3989H66.3588V15.9093H67.2551ZM66.8194 13.2011C66.6099 13.2011 66.4343 13.266 66.2916 13.3958C66.1491 13.5231 66.0719 13.7228 66.0719 13.9998C66.0719 14.2669 66.1478 14.4641 66.2903 14.5963C66.4333 14.7311 66.6094 14.7985 66.8194 14.7985C67.0105 14.7985 67.1804 14.7336 67.3286 14.5988C67.4758 14.4641 67.5546 14.2669 67.5546 13.9998C67.5546 13.7228 67.4748 13.5231 67.3271 13.3933C67.1794 13.266 67.01 13.2011 66.8194 13.2011ZM66.8194 13.4007C66.9609 13.4007 67.0862 13.4482 67.1958 13.5455C67.3057 13.6404 67.3548 13.7927 67.3548 13.9998C67.3548 14.1995 67.3047 14.3493 67.1946 14.4491C67.0852 14.549 66.9604 14.5988 66.8194 14.5988C66.6637 14.5988 66.5327 14.549 66.4266 14.4516C66.32 14.3518 66.2716 14.1995 66.2716 13.9998C66.2716 13.7927 66.3187 13.6404 66.4253 13.543C66.5317 13.4482 66.6632 13.4007 66.8194 13.4007Z" fill="white"/>
<path d="M72.527 15.8094C73.3242 15.8094 73.926 16.0017 74.3331 16.391C74.7399 16.7779 74.9434 17.4019 74.9434 18.268V22.6236H73.8598V18.3429C73.8598 17.2696 73.3615 16.733 72.3651 16.733C71.626 16.733 71.3173 16.9401 71.0349 17.357C70.7526 17.7738 70.6114 18.3728 70.6114 19.1541V22.6236H69.5153V15.9342H70.3996L70.5616 16.8453H70.6238C70.8398 16.4958 71.1387 16.2363 71.5206 16.064C71.9028 15.8943 72.1035 15.8094 72.527 15.8094Z" fill="white"/>
<path fill-rule="evenodd" clip-rule="evenodd" d="M70.6298 16.658L70.498 15.9167C70.4896 15.8693 70.4482 15.8343 70.3996 15.8343H69.5153C69.4602 15.8343 69.4154 15.8793 69.4154 15.9342V22.6235C69.4154 22.6785 69.4602 22.7234 69.5153 22.7234H70.6114C70.6667 22.7234 70.7115 22.6785 70.7115 22.6235V19.154C70.7115 18.3978 70.8443 17.8162 71.1176 17.4143C71.3819 17.0225 71.6728 16.8327 72.3651 16.8327C72.83 16.8327 73.1804 16.9526 73.4129 17.2047C73.6475 17.4568 73.7596 17.8362 73.7596 18.3428V22.6235C73.7596 22.6785 73.8045 22.7234 73.8598 22.7234H74.9434C74.9985 22.7234 75.0433 22.6785 75.0433 22.6235V18.2679C75.0433 17.3694 74.8248 16.7205 74.4018 16.3161C73.9791 15.9143 73.3551 15.7095 72.527 15.7095C72.0864 15.7095 71.8774 15.7969 71.48 15.9741C71.1303 16.1314 70.8468 16.3585 70.6298 16.658ZM72.527 15.9092C73.293 15.9092 73.8732 16.0914 74.2641 16.4633C74.6549 16.8327 74.8433 17.4368 74.8433 18.2679V22.5237H73.9597V18.3428C73.9597 17.7762 73.8227 17.352 73.5591 17.0674C73.2933 16.7804 72.8965 16.6331 72.3651 16.6331C71.5789 16.6331 71.2526 16.8577 70.9524 17.2995C70.661 17.7288 70.5115 18.3478 70.5115 19.154V22.5237H69.6154V16.034H70.3159L70.4632 16.8627C70.4716 16.9101 70.5132 16.9451 70.5616 16.9451H70.6238C70.6585 16.9451 70.6906 16.9276 70.7088 16.8976C70.9141 16.5657 71.1983 16.3186 71.5615 16.1563C71.9282 15.9941 72.1205 15.9092 72.527 15.9092Z" fill="white"/>
<path d="M79.5885 15.8094C80.1615 15.8094 80.6535 15.9342 81.0645 16.1839C81.4755 16.4335 81.7912 16.7854 82.0111 17.2397C82.2311 17.6914 82.3412 18.2231 82.3412 18.8296V19.4911H77.77C77.7867 20.2474 77.9798 20.8239 78.3492 21.2183C78.7186 21.6152 79.2355 21.8124 79.8999 21.8124C80.3234 21.8124 80.6991 21.7724 81.0271 21.6951C81.3552 21.6152 81.6935 21.5003 82.0423 21.3506V22.3116C81.7017 22.4613 81.3654 22.5711 81.0334 22.6435C80.7013 22.7134 80.3067 22.7484 79.8501 22.7484C79.2191 22.7484 78.6606 22.6186 78.1748 22.3615C77.6891 22.1044 77.3112 21.7175 77.0414 21.2083C76.7716 20.6966 76.6366 20.0701 76.6366 19.3288C76.6366 18.5975 76.7591 17.9685 77.004 17.4444C77.2489 16.9202 77.5937 16.5158 78.0378 16.2338C78.482 15.9517 78.9989 15.8094 79.5885 15.8094ZM79.5761 16.708C79.0529 16.708 78.6399 16.8752 78.3367 17.2147C78.0336 17.5516 77.853 18.0184 77.7949 18.6175H81.1953C81.1871 18.0509 81.054 17.5916 80.7967 17.2397C80.5394 16.8852 80.1323 16.708 79.5761 16.708Z" fill="white"/>
<path fill-rule="evenodd" clip-rule="evenodd" d="M79.5885 15.7095C78.9785 15.7095 78.4439 15.8568 77.9843 16.1488C77.5244 16.4434 77.1672 16.8602 76.9136 17.4018C76.663 17.9385 76.5367 18.58 76.5367 19.3288C76.5367 20.0875 76.6764 20.7291 76.953 21.2532C77.2327 21.7849 77.6246 22.1817 78.128 22.4513C78.6275 22.7159 79.2014 22.8482 79.8501 22.8482C80.3149 22.8482 80.7163 22.8132 81.0541 22.7408C81.3926 22.6685 81.7354 22.5561 82.0824 22.4039C82.1187 22.3864 82.1422 22.3515 82.1422 22.3115V21.3506C82.1422 21.3181 82.1255 21.2856 82.0973 21.2657C82.0692 21.2482 82.0338 21.2458 82.0029 21.2582C81.6596 21.4055 81.3266 21.5178 81.0037 21.5977C80.6826 21.675 80.3147 21.7125 79.8999 21.7125C79.2674 21.7125 78.774 21.5278 78.4222 21.1509C78.0839 20.7889 77.9036 20.2673 77.8734 19.5908H82.3412C82.3965 19.5908 82.4411 19.5459 82.4411 19.491V18.8296C82.4411 18.2055 82.3273 17.6615 82.1011 17.1947C81.8721 16.723 81.5438 16.3585 81.1163 16.0989C80.6908 15.8393 80.1817 15.7095 79.5885 15.7095ZM79.5885 15.9092C80.1413 15.9092 80.6161 16.0291 81.0127 16.2687C81.4073 16.5083 81.71 16.8477 81.9212 17.282C82.1352 17.7238 82.2413 18.238 82.2413 18.8296V19.3912H77.77C77.7431 19.3912 77.7175 19.4012 77.6985 19.4211C77.6799 19.4411 77.6696 19.4661 77.6701 19.4935C77.6873 20.2798 77.8924 20.8763 78.2762 21.2882C78.6636 21.7025 79.2039 21.9122 79.8999 21.9122C80.3321 21.9122 80.7158 21.8722 81.0506 21.7899C81.3398 21.7225 81.6372 21.6251 81.9424 21.5003V22.2466C81.6287 22.3789 81.3189 22.4788 81.0127 22.5437C80.6864 22.6135 80.2987 22.6485 79.8501 22.6485C79.2368 22.6485 78.6937 22.5237 78.2217 22.2741C77.7536 22.0245 77.3899 21.6526 77.1298 21.1609C76.8668 20.6616 76.7365 20.0501 76.7365 19.3288C76.7365 18.6124 76.8551 17.9984 77.0944 17.4867C77.3309 16.98 77.6629 16.5907 78.0914 16.3186C78.5204 16.044 79.0196 15.9092 79.5885 15.9092ZM79.5761 16.6081C79.0213 16.6081 78.5841 16.7878 78.2625 17.1472C77.9469 17.4967 77.7561 17.9834 77.6956 18.6074C77.6928 18.6349 77.702 18.6649 77.721 18.6848C77.7399 18.7048 77.7668 18.7172 77.7949 18.7172H81.1953C81.2219 18.7172 81.2476 18.7073 81.2665 18.6873C81.2852 18.6699 81.2957 18.6424 81.2952 18.6149C81.2865 18.0259 81.1457 17.5466 80.8774 17.1797C80.6027 16.8028 80.1702 16.6081 79.5761 16.6081ZM79.5761 16.8078C80.0947 16.8078 80.4761 16.9676 80.716 17.297C80.9469 17.614 81.0712 18.0208 81.0924 18.5176H77.9068C77.9726 17.9959 78.1392 17.5816 78.411 17.2795C78.6957 16.965 79.0848 16.8078 79.5761 16.8078Z" fill="white"/>
<path d="M88.2448 20.9138C88.2448 21.5627 88.004 22.0544 87.5224 22.3864C87.0409 22.7184 86.3932 22.8856 85.5794 22.8856C85.1143 22.8856 84.7137 22.8482 84.3774 22.7733C84.0411 22.6984 83.7442 22.5936 83.4868 22.4613V21.4629C83.7526 21.5952 84.0742 21.72 84.4521 21.8323C84.83 21.9446 85.2139 21.9996 85.6043 21.9996C86.1605 21.9996 86.5634 21.9097 86.8125 21.7325C87.0616 21.5527 87.1861 21.3131 87.1861 21.0136C87.1861 20.8463 87.1405 20.6966 87.0491 20.5643C86.9577 20.4321 86.7938 20.2972 86.5571 20.165C86.3205 20.0327 85.9822 19.8829 85.542 19.7157C85.1103 19.5484 84.7406 19.3837 84.4335 19.2165C84.1263 19.0492 83.8897 18.8496 83.7235 18.6174C83.5573 18.3853 83.4744 18.0858 83.4744 17.7189C83.4744 17.1523 83.7048 16.7155 84.1657 16.4084C84.6265 16.1014 85.2306 15.9467 85.9779 15.9467C86.3847 15.9467 86.7646 15.9866 87.1176 16.0665C87.4706 16.1439 87.8007 16.2537 88.1078 16.396L87.7342 17.2696C87.4519 17.1522 87.157 17.0524 86.8498 16.97C86.5427 16.8877 86.2271 16.8452 85.9032 16.8452C85.4548 16.8452 85.1123 16.9177 84.8756 17.0649C84.639 17.2097 84.5207 17.4068 84.5207 17.6565C84.5207 17.8387 84.5747 17.9959 84.6826 18.1257C84.7904 18.253 84.971 18.3778 85.2244 18.5001C85.4777 18.6199 85.816 18.7622 86.2395 18.9294C86.663 19.0867 87.0242 19.2489 87.3231 19.4162C87.6221 19.5834 87.8505 19.7855 88.0082 20.0227C88.1659 20.2598 88.2448 20.5568 88.2448 20.9138Z" fill="white"/>
<path fill-rule="evenodd" clip-rule="evenodd" d="M88.3447 20.9138C88.3447 20.5344 88.2591 20.2174 88.0914 19.9653C87.9255 19.7157 87.6861 19.5035 87.3717 19.3288C87.0691 19.1591 86.7034 18.9968 86.2749 18.8371C85.8549 18.6699 85.5188 18.5276 85.2672 18.4078C85.0303 18.2955 84.8602 18.1807 84.7593 18.0609C84.6661 17.9485 84.6206 17.8137 84.6206 17.6565C84.6206 17.4418 84.7247 17.2746 84.928 17.1498C85.1524 17.0125 85.478 16.9451 85.9032 16.9451C86.2181 16.9451 86.525 16.9851 86.8237 17.0674C87.1268 17.1498 87.4176 17.2471 87.6961 17.362C87.7466 17.3844 87.8044 17.3595 87.8261 17.3096L88.1998 16.4359C88.2212 16.386 88.1988 16.3286 88.1497 16.3062C87.8361 16.1614 87.4995 16.049 87.1395 15.9667C86.7798 15.8868 86.3927 15.8469 85.978 15.8469C85.2075 15.8469 84.5854 16.0091 84.1104 16.3261C83.6201 16.6531 83.3745 17.1173 83.3745 17.7189C83.3745 18.1083 83.4652 18.4278 83.6423 18.6749C83.8164 18.9195 84.0638 19.1316 84.3859 19.3039C84.6965 19.4736 85.0699 19.6408 85.5061 19.8081C85.5064 19.8106 85.5069 19.8106 85.5069 19.8106C85.9408 19.9728 86.2749 20.1201 86.5083 20.2524C86.728 20.3772 86.882 20.497 86.9669 20.6218C87.0466 20.7366 87.0862 20.8688 87.0862 21.0136C87.0862 21.2807 86.9751 21.4904 86.7542 21.6501C86.5175 21.8198 86.1334 21.8997 85.6043 21.8997C85.2236 21.8997 84.8492 21.8448 84.4806 21.735C84.1091 21.6252 83.7928 21.5054 83.5317 21.3731C83.5006 21.3581 83.4639 21.3606 83.4343 21.3781C83.4049 21.3955 83.387 21.428 83.387 21.4629V22.4613C83.387 22.4987 83.4079 22.5337 83.441 22.5512C83.7056 22.6885 84.0102 22.7933 84.3558 22.8707C84.698 22.9481 85.1061 22.9855 85.5794 22.9855C86.4171 22.9855 87.0833 22.8108 87.5792 22.4688C88.0882 22.1169 88.3447 21.6002 88.3447 20.9138ZM88.145 20.9138C88.145 21.5253 87.92 21.9896 87.4656 22.3041C86.9983 22.6286 86.3691 22.7858 85.5794 22.7858C85.1228 22.7858 84.7294 22.7484 84.3991 22.676C84.0952 22.6086 83.8244 22.5162 83.5868 22.3989V21.6227C83.8266 21.73 84.1056 21.8323 84.4238 21.9272C84.8109 22.042 85.2045 22.0994 85.6043 22.0994C86.188 22.0994 86.6094 21.9996 86.8708 21.8124C87.148 21.6127 87.286 21.3481 87.286 21.0136C87.286 20.8264 87.2345 20.6567 87.1316 20.507C87.0337 20.3647 86.8596 20.2199 86.6062 20.0776C86.3663 19.9428 86.0235 19.7906 85.5776 19.6234C85.1507 19.4586 84.785 19.2939 84.4811 19.1292C84.1886 18.9694 83.9629 18.7822 83.805 18.5601C83.6498 18.3429 83.5743 18.0608 83.5743 17.7189C83.5743 17.1897 83.7898 16.7804 84.2212 16.4909C84.6676 16.1938 85.2538 16.0466 85.978 16.0466C86.377 16.0466 86.7497 16.0865 87.096 16.1639C87.4078 16.2338 87.7015 16.3286 87.9773 16.4484L87.6809 17.1398C87.4228 17.0375 87.1543 16.9501 86.876 16.8728C86.5604 16.7879 86.236 16.7455 85.9032 16.7455C85.4317 16.7455 85.0722 16.8253 84.8233 16.9776C84.5533 17.1448 84.4208 17.3719 84.4208 17.6565C84.4208 17.8661 84.4833 18.0434 84.6061 18.1882C84.7209 18.3254 84.912 18.4602 85.1816 18.59C85.4364 18.7123 85.7769 18.8546 86.2031 19.0218C86.2036 19.0243 86.2041 19.0243 86.2046 19.0243C86.6229 19.179 86.9794 19.3388 87.2746 19.5036C87.5581 19.6608 87.7755 19.853 87.925 20.0776C88.073 20.2997 88.145 20.5793 88.145 20.9138Z" fill="white"/>
<path d="M94.2357 20.764C94.2357 21.4129 93.995 21.9047 93.5133 22.2367C93.0317 22.5686 92.384 22.7359 91.5702 22.7359C91.1054 22.7359 90.7045 22.6984 90.3682 22.6236C90.0319 22.5487 89.7353 22.4438 89.4777 22.3116V21.3132C89.7435 21.4454 90.0653 21.5702 90.443 21.6801C90.8209 21.7949 91.205 21.8498 91.5951 21.8498C92.1516 21.8498 92.5542 21.7599 92.8033 21.5827C93.0524 21.403 93.177 21.1634 93.177 20.8639C93.177 20.6966 93.1314 20.5469 93.0399 20.4146C92.9488 20.2823 92.7846 20.1475 92.548 20.0152C92.3113 19.8829 91.973 19.7332 91.5328 19.5659C91.1011 19.3987 90.7317 19.234 90.4243 19.0667C90.1171 18.8995 89.8805 18.6998 89.7143 18.4677C89.5484 18.2355 89.4652 17.936 89.4652 17.5691C89.4652 17.0025 89.6957 16.5657 90.1565 16.2587C90.6174 15.9517 91.2215 15.7969 91.9688 15.7969C92.3758 15.7969 92.7557 15.8369 93.1085 15.9142C93.4614 15.9941 93.7915 16.104 94.0987 16.2462L93.725 17.1198C93.4428 17.0025 93.1481 16.9027 92.8407 16.8203C92.5335 16.738 92.2179 16.6955 91.894 16.6955C91.4456 16.6955 91.1031 16.7679 90.8665 16.9126C90.6298 17.0599 90.5115 17.2571 90.5115 17.5067C90.5115 17.6889 90.5655 17.8462 90.6734 17.9735C90.7815 18.1032 90.9621 18.228 91.2152 18.3479C91.4686 18.4702 91.8069 18.6124 92.2303 18.7797C92.6538 18.9369 93.015 19.0991 93.314 19.2664C93.6129 19.4336 93.8413 19.6358 93.999 19.8704C94.157 20.1101 94.2357 20.4071 94.2357 20.764Z" fill="white"/>
<path fill-rule="evenodd" clip-rule="evenodd" d="M94.3356 20.764C94.3356 20.3846 94.2499 20.0677 94.0822 19.8156C93.9163 19.566 93.6769 19.3538 93.3625 19.1791C93.0599 19.0093 92.6944 18.8471 92.2657 18.6849C91.8457 18.5201 91.5097 18.3779 91.2581 18.2581C91.0212 18.1457 90.851 18.0309 90.7501 17.9111C90.657 17.7988 90.6114 17.664 90.6114 17.5068C90.6114 17.2921 90.7155 17.1249 90.9188 17.0001C91.1432 16.8603 91.4688 16.7954 91.894 16.7954C92.2089 16.7954 92.5158 16.8353 92.8147 16.9177C93.1177 17 93.4084 17.0974 93.6869 17.2122C93.7375 17.2346 93.7955 17.2097 93.8169 17.1598L94.1906 16.2862C94.212 16.2362 94.1896 16.1788 94.1405 16.1539C93.8271 16.0116 93.4903 15.8993 93.1304 15.8169C92.7707 15.7371 92.3835 15.6971 91.9688 15.6971C91.1983 15.6971 90.5762 15.8569 90.1012 16.1764C89.611 16.5033 89.3653 16.9676 89.3653 17.5692C89.3653 17.9585 89.456 18.278 89.6331 18.5251C89.8072 18.7697 90.0546 18.9794 90.3767 19.1541C90.6873 19.3238 91.0608 19.4911 91.497 19.6583H91.4977C91.9317 19.823 92.2657 19.9703 92.4991 20.1026C92.7188 20.2249 92.8728 20.3472 92.9577 20.472C93.0375 20.5868 93.0771 20.7191 93.0771 20.8639C93.0771 21.1285 92.966 21.3406 92.7453 21.5004C92.5083 21.6701 92.1242 21.75 91.5951 21.75C91.2145 21.75 90.8401 21.695 90.4714 21.5852C90.1 21.4754 89.7836 21.3556 89.5225 21.2233C89.4914 21.2083 89.4548 21.2108 89.4251 21.2283C89.3957 21.2458 89.3778 21.2782 89.3778 21.3132V22.3116C89.3778 22.349 89.3987 22.3839 89.4318 22.4014C89.6964 22.5362 90.0011 22.6435 90.3466 22.7209C90.6891 22.7983 91.0969 22.8357 91.5702 22.8357C92.4082 22.8357 93.0741 22.661 93.57 22.3191C94.079 21.9671 94.3356 21.4504 94.3356 20.764ZM94.1358 20.764C94.1358 21.3755 93.9108 21.8398 93.4565 22.1543C92.9891 22.4763 92.3599 22.636 91.5702 22.636C91.1136 22.636 90.7202 22.5986 90.3899 22.5262C90.0863 22.4588 89.8152 22.3665 89.5776 22.2492V21.4729C89.8177 21.5802 90.0965 21.6826 90.4146 21.7774C90.8017 21.8922 91.1953 21.9496 91.5951 21.9496C92.1788 21.9496 92.6003 21.8498 92.8616 21.6626C93.1388 21.4629 93.2768 21.1983 93.2768 20.8639C93.2768 20.6767 93.2253 20.5069 93.1224 20.3572C93.0245 20.2149 92.8504 20.0701 92.597 19.9279C92.3571 19.7931 92.0144 19.6408 91.5685 19.4711C91.1415 19.3088 90.7758 19.1441 90.4719 18.9794C90.1797 18.8196 89.9537 18.6324 89.7958 18.4103C89.6406 18.1931 89.5651 17.9111 89.5651 17.5692C89.5651 17.04 89.7806 16.6306 90.2121 16.3411C90.6587 16.044 91.2446 15.8968 91.9688 15.8968C92.3678 15.8968 92.7405 15.9368 93.0868 16.0141C93.3987 16.084 93.6926 16.1789 93.9681 16.2987L93.6717 16.9901C93.4136 16.8877 93.1451 16.7979 92.8668 16.723C92.5512 16.6381 92.2268 16.5957 91.894 16.5957C91.4225 16.5957 91.063 16.6756 90.8141 16.8278C90.5441 16.9951 90.4116 17.2222 90.4116 17.5068C90.4116 17.7139 90.4741 17.8911 90.5969 18.0384C90.7118 18.1757 90.9028 18.3105 91.1724 18.4403C91.4272 18.5601 91.7677 18.7048 92.194 18.8721C92.1945 18.8721 92.195 18.8721 92.1955 18.8746C92.6137 19.0293 92.9704 19.189 93.2654 19.3538C93.5491 19.511 93.7663 19.7032 93.9158 19.9279C94.0638 20.15 94.1358 20.4295 94.1358 20.764Z" fill="white"/>
<path d="M47.6935 28.1854C48.8561 28.1854 49.7031 28.415 50.2345 28.8718C50.7658 29.3285 51.0316 29.975 51.0316 30.8062C51.0316 31.2979 50.9215 32.2115 50.7015 32.6408C50.4816 33.0701 50.1119 33.417 49.593 33.6816C49.0741 33.9487 48.3704 34.081 47.4818 34.081H46.2081V37.7027H45.0871V28.1854H47.6935ZM47.5939 29.1464H46.2081V33.12H47.3572C48.2042 33.12 48.8352 32.9827 49.2505 32.7082C49.6657 32.4336 49.8733 31.5126 49.8733 30.8561C49.8733 30.2821 49.6907 29.8527 49.3252 29.5707C48.9598 29.2886 48.3828 29.1464 47.5939 29.1464Z" fill="white"/>
<path fill-rule="evenodd" clip-rule="evenodd" d="M47.6935 28.0856H45.0871C45.0318 28.0856 44.987 28.1305 44.987 28.1854V37.7027C44.987 37.7576 45.0318 37.8025 45.0871 37.8025H46.2081C46.2632 37.8025 46.308 37.7576 46.308 37.7027V34.1833H47.4818C48.3898 34.1833 49.1082 34.0436 49.6386 33.7715C50.1784 33.4944 50.5615 33.1325 50.7905 32.6857C51.0162 32.2464 51.1315 31.3104 51.1315 30.8062C51.1315 29.9401 50.8523 29.2712 50.2997 28.797C49.7542 28.3252 48.8868 28.0856 47.6935 28.0856ZM47.6935 28.2853C48.8255 28.2853 49.6518 28.5024 50.1694 28.9467C50.6796 29.386 50.9317 30.0075 50.9317 30.8062C50.9317 31.2854 50.8271 32.1766 50.6126 32.5959C50.4016 33.0052 50.0456 33.3372 49.5474 33.5943C49.0397 33.8539 48.3509 33.9812 47.4818 33.9812H46.2081C46.1528 33.9812 46.108 34.0261 46.108 34.081V37.6029H45.187V28.2853H47.6935ZM47.5939 29.0466H46.2081C46.1528 29.0466 46.108 29.0915 46.108 29.1464V33.12C46.108 33.1774 46.1528 33.2224 46.2081 33.2224H47.3572C48.2294 33.2224 48.8781 33.0751 49.3055 32.7931C49.4859 32.6733 49.6341 32.4436 49.7422 32.1641C49.8959 31.7647 49.9731 31.263 49.9731 30.8562C49.9731 30.2446 49.7749 29.7929 49.3862 29.4909C49.0079 29.1988 48.4112 29.0466 47.5939 29.0466ZM47.5939 29.2462C48.3544 29.2462 48.9119 29.376 49.2642 29.6506C49.6065 29.9152 49.7734 30.317 49.7734 30.8562C49.7734 31.2381 49.7011 31.7148 49.5559 32.0917C49.4647 32.3288 49.3471 32.526 49.1954 32.6258C48.7926 32.8929 48.1793 33.0202 47.3572 33.0202H46.308V29.2462H47.5939Z" fill="white"/>
<path d="M54.9621 30.5366C55.7759 30.5366 56.7205 30.7513 57.1106 31.1107C57.501 31.4676 57.6961 32.0367 57.6961 32.8205V37.7027H56.8989L56.6872 36.7542H56.6373C56.3469 37.1211 56.0417 37.3907 55.7219 37.5654C55.4022 37.7401 54.9601 37.8275 54.3954 37.8275C53.7893 37.8275 53.2868 37.6677 52.8882 37.3483C52.4897 37.0263 52.2904 36.5271 52.2904 35.8432C52.2904 35.1792 52.5519 34.665 53.0751 34.3031C53.5982 33.9411 54.4038 33.744 55.4914 33.709L56.6249 33.6716V32.9453C56.6249 32.3861 56.5046 31.9993 56.2637 31.7846C56.023 31.5675 55.4023 31.4277 54.9621 31.4277C54.6133 31.4277 53.293 31.6498 53.019 31.7846L52.6827 30.9609C52.9734 30.8012 54.5304 30.5366 54.9621 30.5366ZM55.6284 34.4703C54.7982 34.5053 54.2232 34.6375 53.9034 34.8697C53.5838 35.1043 53.4238 35.4313 53.4238 35.8556C53.4238 36.23 53.5382 36.5046 53.7663 36.6793C53.9948 36.854 54.2875 36.9414 54.6445 36.9414C55.2092 36.9414 55.6783 36.7867 56.0519 36.4746C56.4256 36.1626 56.6124 35.6809 56.6124 35.0319V34.4329L55.6284 34.4703Z" fill="white"/>
<path fill-rule="evenodd" clip-rule="evenodd" d="M56.6236 36.9289L56.8015 37.7252C56.8117 37.7701 56.8521 37.8025 56.8989 37.8025H57.696C57.7514 37.8025 57.7959 37.7576 57.7959 37.7027V32.8205C57.7959 32.0018 57.5857 31.4103 57.1781 31.0358C56.7753 30.6664 55.8023 30.4368 54.9621 30.4368C54.5211 30.4368 52.9318 30.7113 52.6351 30.8711C52.5903 30.896 52.5709 30.9509 52.5903 30.9984L52.9266 31.8221C52.9371 31.847 52.9575 31.867 52.9834 31.877C53.009 31.887 53.0379 31.887 53.0626 31.8745C53.3304 31.7447 54.6213 31.5276 54.9621 31.5276C55.3791 31.5276 55.969 31.6524 56.1969 31.8595C56.4219 32.0592 56.525 32.4236 56.525 32.9453V33.5743L55.4882 33.6093C54.3759 33.6442 53.5534 33.8514 53.0183 34.2208C52.467 34.6027 52.1905 35.1418 52.1905 35.8432C52.1905 36.562 52.406 37.0886 52.8257 37.4256C53.241 37.7601 53.7639 37.9273 54.3953 37.9273C54.9808 37.9273 55.4384 37.835 55.7697 37.6553C56.0664 37.493 56.3513 37.2509 56.6236 36.9289ZM54.9621 30.639C55.7495 30.639 56.6655 30.8361 57.0431 31.1831C57.416 31.525 57.5962 32.0717 57.5962 32.8205V37.6029H56.9791L56.7848 36.7342C56.7746 36.6868 56.734 36.6544 56.6872 36.6544H56.6373C56.6069 36.6544 56.578 36.6693 56.5591 36.6918C56.2779 37.0462 55.9834 37.3083 55.674 37.4781C55.3661 37.6478 54.9394 37.7277 54.3953 37.7277C53.8147 37.7277 53.3326 37.5754 52.9508 37.2684C52.5736 36.9664 52.3903 36.4896 52.3903 35.8432C52.3903 35.2142 52.6369 34.7274 53.1319 34.3855C53.6433 34.031 54.4315 33.8413 55.4944 33.8089L56.6281 33.7715C56.6822 33.7715 56.7248 33.7266 56.7248 33.6717V32.9453C56.7248 32.3487 56.5873 31.9394 56.3304 31.7098C56.0768 31.4826 55.4254 31.3279 54.9621 31.3279C54.6372 31.3279 53.4886 31.5176 53.0746 31.6549L52.8123 31.0134C53.2328 30.8561 54.5705 30.639 54.9621 30.639ZM55.6247 34.3705H55.6245C54.767 34.4054 54.1746 34.5478 53.8446 34.7899C53.4985 35.042 53.3239 35.3964 53.3239 35.8557C53.3239 36.2675 53.4547 36.567 53.7058 36.7592C53.9499 36.9464 54.2626 37.0413 54.6445 37.0413C55.2351 37.0413 55.7251 36.8765 56.1159 36.552C56.51 36.2225 56.7123 35.7184 56.7123 35.032V34.4329C56.7123 34.4054 56.7013 34.3805 56.6817 34.3605C56.6622 34.343 56.6358 34.3331 56.6087 34.3331L55.6247 34.3705ZM55.6324 34.5702L56.5125 34.5378V35.032C56.5125 35.646 56.3411 36.1028 55.9879 36.3973C55.6314 36.6943 55.1833 36.8416 54.6445 36.8416C54.3124 36.8416 54.0394 36.7642 53.8271 36.5995C53.6214 36.4422 53.5237 36.1926 53.5237 35.8557C53.5237 35.4663 53.6689 35.1642 53.9621 34.9521C54.2715 34.7249 54.829 34.6026 55.6324 34.5702Z" fill="white"/>
<path d="M62.5746 30.8885C62.6992 30.8885 62.8977 30.906 63.0058 30.931V31.887C62.9513 31.8745 62.4167 31.8471 61.8836 31.9843C61.3587 32.1166 60.8356 32.4136 60.774 32.6483C60.6771 33.0177 60.5568 33.6841 60.5568 34.1334V37.7027H59.4607V31.0134H60.3575L60.4821 31.887H60.5319C60.7476 31.5225 62.1095 30.8885 62.5746 30.8885Z" fill="white"/>
<path fill-rule="evenodd" clip-rule="evenodd" d="M60.5568 31.7048L60.4564 31.0009C60.4495 30.951 60.4071 30.9136 60.3575 30.9136H59.4607C59.4054 30.9136 59.3606 30.9585 59.3606 31.0134V37.7027C59.3606 37.7576 59.4054 37.8025 59.4607 37.8025H60.5568C60.6119 37.8025 60.6567 37.7576 60.6567 37.7027V34.1334C60.6567 33.6916 60.7755 33.0377 60.8707 32.6733C60.8911 32.5959 60.9788 32.516 61.0969 32.4336C61.3032 32.2913 61.6056 32.1566 61.9082 32.0792C62.4192 31.9494 62.9311 31.9744 62.9832 31.9844C63.013 31.9918 63.0442 31.9843 63.0678 31.9669C63.0918 31.9469 63.1057 31.9194 63.1057 31.887V30.931C63.1057 30.8836 63.0736 30.8437 63.0282 30.8337C62.9146 30.8062 62.7056 30.7888 62.5746 30.7888C62.2861 30.7888 61.6624 31.0209 61.1627 31.2905C60.9111 31.4252 60.6918 31.5725 60.5568 31.7048ZM62.5746 30.9885C62.6668 30.9885 62.8023 30.9984 62.9059 31.0134V31.7797C62.7014 31.7722 62.2794 31.7797 61.8589 31.887C61.4758 31.9843 61.0942 32.1666 60.8772 32.3513C60.7688 32.4411 60.6998 32.5384 60.6774 32.6233C60.579 32.9977 60.4567 33.6766 60.4567 34.1334V37.6029H59.5606V31.1133H60.2708L60.3829 31.902C60.3902 31.9519 60.4323 31.9869 60.4821 31.9869H60.5319C60.5673 31.9869 60.5999 31.9693 60.6179 31.9394C60.6988 31.8021 60.9554 31.6299 61.2576 31.4652C61.7249 31.2131 62.3048 30.9885 62.5746 30.9885Z" fill="white"/>
<path d="M66.8344 36.9289C67 36.9389 67.1707 36.9139 67.3451 36.8865C67.5194 36.8565 67.6604 36.8266 67.7685 36.7917V37.6278C67.6522 37.6877 67.4861 37.7351 67.2703 37.7726C67.0543 37.81 66.8468 37.8275 66.6475 37.8275C66.2988 37.8275 65.9725 37.7776 65.6822 37.6478C65.0844 37.3782 64.9661 36.2974 64.9661 35.7558V31.862H63.9978V30.901H64.9661V28.9741H66.0808V31.0133H67.7187V31.862H66.0808V35.7309C66.0808 36.1402 66.0808 36.8865 66.8344 36.9289Z" fill="white"/>
<path fill-rule="evenodd" clip-rule="evenodd" d="M66.8401 36.8291C66.4458 36.8066 66.2893 36.562 66.2263 36.2949C66.18 36.0977 66.1807 35.8881 66.1807 35.7309V31.9619H67.7187C67.7738 31.9619 67.8186 31.917 67.8186 31.862V31.0134C67.8186 30.9585 67.7738 30.9135 67.7187 30.9135H66.1807V28.9741C66.1807 28.9167 66.1359 28.8718 66.0808 28.8718H64.9661C64.9108 28.8718 64.8659 28.9167 64.8659 28.9741V30.8012H63.9978C63.9427 30.8012 63.8979 30.8461 63.8979 30.9011V31.862C63.8979 31.917 63.9427 31.9619 63.9978 31.9619H64.8659V35.7558C64.8659 36.0903 64.9107 36.6244 65.0786 37.0562C65.1977 37.3632 65.3796 37.6203 65.6411 37.7376C65.9441 37.8749 66.2838 37.9273 66.6475 37.9273C66.8523 37.9273 67.0655 37.9098 67.2873 37.8699C67.5152 37.83 67.6903 37.7801 67.8131 37.7177C67.847 37.7002 67.8684 37.6677 67.8684 37.6278V36.7917C67.8684 36.7592 67.8532 36.7318 67.8278 36.7118C67.8024 36.6918 67.7693 36.6868 67.7391 36.6968C67.6345 36.7292 67.4975 36.7592 67.3286 36.7867C67.1617 36.8141 66.9988 36.8391 66.8401 36.8291ZM66.8284 37.0288C67.0015 37.0388 67.1794 37.0138 67.3615 36.9838C67.4783 36.9663 67.5807 36.9439 67.6684 36.9239V37.5629C67.5635 37.6078 67.425 37.6428 67.2531 37.6727C67.0431 37.7102 66.8413 37.7277 66.6475 37.7277C66.3135 37.7277 66.0011 37.6802 65.7231 37.5554C65.5064 37.4581 65.3636 37.2384 65.265 36.9838C65.1065 36.5745 65.0659 36.0728 65.0659 35.7558V31.862C65.0659 31.8071 65.0211 31.7622 64.9661 31.7622H64.0977V31.0009H64.9661C65.0211 31.0009 65.0659 30.956 65.0659 30.9011V29.074H65.9807V31.0134C65.9807 31.0683 66.0255 31.1132 66.0808 31.1132H67.6186V31.7622H66.0808C66.0255 31.7622 65.9807 31.8071 65.9807 31.862V35.7309C65.9807 35.9006 65.9817 36.1277 66.0317 36.3399C66.1132 36.6868 66.3185 36.9988 66.8284 37.0288Z" fill="white"/>
<path d="M72.6177 30.6863C73.4149 30.6863 73.8652 30.931 74.2723 31.3178C74.6791 31.7047 74.7311 32.4835 74.7311 33.3471V37.7027H73.6475V33.422C73.6475 32.3487 73.3008 31.7621 72.3043 31.7621C70.1488 31.7621 70.5551 33.7565 70.5551 34.2332V37.7027H69.3075V30.8885H70.3538V31.6223C70.3538 31.6223 70.7245 31.3154 71.1066 31.1456C71.4885 30.9734 72.1942 30.6863 72.6177 30.6863Z" fill="white"/>
<path fill-rule="evenodd" clip-rule="evenodd" d="M72.6177 30.5865C72.183 30.5865 71.4579 30.8785 71.0658 31.0533C70.8318 31.1581 70.6017 31.3129 70.4537 31.4202V30.8886C70.4537 30.8336 70.4089 30.7887 70.3538 30.7887H69.3075C69.2522 30.7887 69.2074 30.8336 69.2074 30.8886V37.7027C69.2074 37.7576 69.2522 37.8025 69.3075 37.8025H70.5551C70.6101 37.8025 70.655 37.7576 70.655 37.7027V34.2333C70.655 34.0685 70.6051 33.7166 70.6328 33.3322C70.6587 32.9677 70.7544 32.5659 71.0463 32.2764C71.2974 32.0268 71.6928 31.862 72.3043 31.862C72.6735 31.862 72.9478 31.9443 73.1423 32.1141C73.4395 32.3712 73.5474 32.8155 73.5474 33.422V37.7027C73.5474 37.7576 73.5922 37.8025 73.6475 37.8025H74.7311C74.7862 37.8025 74.831 37.7576 74.831 37.7027V33.3472C74.831 32.818 74.8109 32.3238 74.7062 31.9244C74.6323 31.6449 74.5162 31.4127 74.341 31.2455C73.9171 30.8411 73.4482 30.5865 72.6177 30.5865ZM72.6177 30.7862C73.3815 30.7862 73.8137 31.0184 74.2035 31.3903C74.3538 31.5325 74.4497 31.7347 74.5129 31.9768C74.6138 32.3587 74.631 32.838 74.631 33.3472V37.6029H73.7474V33.422C73.7474 32.7431 73.6059 32.2489 73.2729 31.9619C73.0472 31.7672 72.7323 31.6623 72.3043 31.6623C71.6225 31.6623 71.1856 31.857 70.9056 32.1341C70.5775 32.461 70.4627 32.9078 70.4333 33.3172C70.4054 33.709 70.4552 34.066 70.4552 34.2333V37.6029H69.4074V30.9884H70.2537V31.6224C70.2537 31.6598 70.2761 31.6948 70.311 31.7123C70.3461 31.7297 70.3874 31.7247 70.4173 31.6998C70.4173 31.6998 70.7768 31.4028 71.1472 31.2355C71.5191 31.0708 72.2052 30.7862 72.6177 30.7862Z" fill="white"/>
<path d="M79.377 30.6863C79.95 30.6863 80.442 30.8111 80.853 31.0607C81.264 31.3103 81.5794 31.6623 81.7996 32.1166C82.0196 32.5683 82.1297 33.3022 82.1297 33.9087V34.5702H77.5585C77.575 35.3289 77.768 35.903 78.1377 36.2999C78.5072 36.6942 79.0241 36.8915 79.6884 36.8915C80.1119 36.8915 80.4876 36.8515 80.8157 36.7742C81.1435 36.6943 81.482 36.5794 81.8308 36.4297V37.3907C81.4902 37.5404 81.1539 37.6503 80.8219 37.7227C80.4896 37.7925 80.0952 37.8275 79.6386 37.8275C79.0074 37.8275 78.4491 37.7002 77.9633 37.4406C77.4776 37.1835 77.0997 36.7991 76.8299 36.2874C76.5599 35.7758 76.4251 35.1493 76.4251 34.4079C76.4251 33.6766 76.5474 32.8454 76.7925 32.3212C77.0374 31.7971 77.3819 31.3928 77.8263 31.1107C78.2705 30.8287 78.7874 30.6863 79.377 30.6863ZM79.3646 31.5849C78.8415 31.5849 78.4282 31.7547 78.1253 32.0916C77.8221 32.4286 77.6415 33.0975 77.5835 33.6965H80.9838C80.9753 33.1324 80.8425 32.4685 80.5852 32.1166C80.3276 31.7621 79.9208 31.5849 79.3646 31.5849Z" fill="white"/>
<path fill-rule="evenodd" clip-rule="evenodd" d="M79.377 30.5865C78.767 30.5865 78.2324 30.7338 77.7725 31.0258C77.3127 31.3204 76.9554 31.7372 76.7019 32.2789C76.452 32.813 76.325 33.6617 76.325 34.408C76.325 35.1667 76.4647 35.8082 76.7415 36.3324C77.0212 36.864 77.4131 37.2634 77.9165 37.5305C78.4157 37.7951 78.9897 37.9273 79.6386 37.9273C80.1032 37.9273 80.5045 37.8924 80.8426 37.82C81.1811 37.7476 81.5239 37.6353 81.8709 37.483C81.9072 37.468 81.9307 37.4306 81.9307 37.3907V36.4297C81.9307 36.3972 81.9137 36.3648 81.8856 36.3474C81.8577 36.3274 81.8223 36.3249 81.7914 36.3374C81.4481 36.4846 81.1151 36.5994 80.7922 36.6768C80.4709 36.7542 80.1029 36.7917 79.6884 36.7917C79.0559 36.7917 78.5625 36.607 78.2105 36.2301C77.8724 35.8681 77.6918 35.349 77.6617 34.6701H82.1297C82.1848 34.6701 82.2296 34.6251 82.2296 34.5702V33.9088C82.2296 33.2873 82.115 32.5359 81.8893 32.0717C81.6606 31.5999 81.3321 31.2355 80.9048 30.9759C80.4791 30.7164 79.9702 30.5865 79.377 30.5865ZM79.377 30.7862C79.9296 30.7862 80.4046 30.906 80.8012 31.1482C81.1958 31.3878 81.4985 31.7247 81.7097 32.159C81.9242 32.6008 82.0296 33.3172 82.0296 33.9088V34.4704H77.5585C77.5316 34.4704 77.5057 34.4828 77.487 34.5003C77.4681 34.5203 77.4579 34.5452 77.4586 34.5727C77.4758 35.3589 77.6806 35.958 78.0647 36.3673C78.4519 36.7816 78.9922 36.9913 79.6884 36.9913C80.1206 36.9913 80.504 36.9514 80.8388 36.8715C81.1283 36.8016 81.4255 36.7043 81.7306 36.5795V37.3258C81.4173 37.4606 81.1074 37.5579 80.801 37.6228C80.4746 37.6927 80.0873 37.7277 79.6386 37.7277C79.025 37.7277 78.4822 37.6029 78.0099 37.3533C77.5419 37.1037 77.1782 36.7342 76.9181 36.24C76.655 35.7408 76.525 35.1318 76.525 34.408C76.525 33.6916 76.6431 32.8779 76.883 32.3637C77.1194 31.8595 77.4512 31.4676 77.8799 31.1956C78.3086 30.9235 78.8078 30.7862 79.377 30.7862ZM79.3646 31.4851C78.8096 31.4851 78.3724 31.6673 78.051 32.0243C77.7367 32.3737 77.5441 33.0676 77.4838 33.6866C77.4811 33.7165 77.4905 33.744 77.5095 33.764C77.5284 33.7864 77.5551 33.7964 77.5835 33.7964H80.9838C81.0105 33.7964 81.0361 33.7864 81.0548 33.7665C81.0737 33.749 81.0839 33.7215 81.0837 33.6966C81.075 33.11 80.9327 32.4236 80.6659 32.0567C80.3909 31.6798 79.9587 31.4851 79.3646 31.4851ZM79.3646 31.6848C79.883 31.6848 80.2644 31.8446 80.5045 32.174C80.7369 32.4935 80.86 33.0776 80.8809 33.5968H77.6948C77.7606 33.0501 77.926 32.4611 78.1995 32.1566C78.484 31.8421 78.8731 31.6848 79.3646 31.6848Z" fill="white"/>
<path d="M86.7826 30.8885C86.9071 30.8885 87.0553 30.9011 87.1632 30.926V31.9419C87.0553 31.9169 86.8239 31.887 86.7078 31.887C86.3673 31.887 86.0477 31.9818 85.7488 32.169C85.4498 32.3562 85.2109 32.4935 85.0326 32.8305C84.854 33.1674 84.7648 33.5593 84.7648 34.0086V37.5779H83.6687V30.8885H84.6901V32.1116H84.7399C84.9556 31.7472 85.2339 31.555 85.5744 31.2879C85.9147 31.0234 86.3175 30.8885 86.7826 30.8885Z" fill="white"/>
<path fill-rule="evenodd" clip-rule="evenodd" d="M84.7899 31.8596V30.8886C84.7899 30.8337 84.7451 30.7888 84.6901 30.7888H83.6687C83.6134 30.7888 83.5686 30.8337 83.5686 30.8886V37.5779C83.5686 37.6328 83.6134 37.6777 83.6687 37.6777H84.7648C84.8198 37.6777 84.8647 37.6328 84.8647 37.5779V34.0086C84.8647 33.5768 84.9494 33.1999 85.1208 32.8779C85.2899 32.5584 85.5186 32.4311 85.8016 32.2539C86.0841 32.0767 86.386 31.9869 86.7078 31.9869C86.8182 31.9869 87.0382 32.0168 87.1408 32.0393C87.1704 32.0468 87.2016 32.0392 87.2255 32.0218C87.2491 32.0018 87.2631 31.9743 87.2631 31.9419V30.9261C87.2631 30.8786 87.231 30.8387 87.1856 30.8287C87.0713 30.8012 86.9144 30.7888 86.7826 30.7888C86.2938 30.7888 85.8706 30.931 85.5129 31.2106C85.2294 31.4302 84.989 31.605 84.7899 31.8596ZM86.7826 30.9885C86.872 30.9885 86.9746 30.9959 87.0633 31.0084V31.8221C86.944 31.8046 86.795 31.7872 86.7078 31.7872C86.3486 31.7872 86.0111 31.887 85.6957 32.0842C85.3808 32.2814 85.1322 32.4286 84.9441 32.7831C84.7586 33.1325 84.6646 33.5418 84.6646 34.0086V37.4781H83.7686V30.9885H84.5899V32.1117C84.5899 32.1666 84.6348 32.2115 84.6901 32.2115H84.7399C84.775 32.2115 84.8079 32.194 84.8258 32.1641C85.0348 31.8096 85.3061 31.6249 85.6357 31.3678C85.9588 31.1157 86.3411 30.9885 86.7826 30.9885Z" fill="white"/>
<mask id="mask0_25_179" style="mask-type:luminance" maskUnits="userSpaceOnUse" x="13" y="13" width="25" height="25">
<path d="M37.2968 13.2004H13.2229V37.3218H37.2968V13.2004Z" fill="white"/>
</mask>
<g mask="url(#mask0_25_179)">
<path d="M25.2601 37.3218C25.1404 37.3218 25.0213 37.3197 24.9023 37.3162L27.3623 30.5422H30.7477C31.3419 30.5422 31.9942 30.0845 32.1974 29.5254L34.8662 22.1802C35.3029 20.9777 34.6154 19.9938 33.3383 19.9938H28.6416L24.7011 30.8438H24.6997L22.4656 36.9944C17.1655 35.7319 13.2231 30.958 13.2231 25.2611C13.2231 19.7285 16.9412 15.0664 22.0103 13.6456L19.7051 19.9938H19.7045L15.8724 30.5422L18.4234 30.5424L21.6823 21.579H23.5995L20.3406 30.5424L22.8907 30.5429L25.9276 22.1802C26.3645 20.9777 25.6771 19.9938 24.4012 19.9938H22.2568L24.7189 13.2131C24.8984 13.2051 25.0786 13.2004 25.2599 13.2004C31.9078 13.2004 37.2969 18.6001 37.2969 25.2611C37.2969 31.922 31.9078 37.3218 25.2599 37.3218H25.2601ZM32.5431 21.5725H30.6264L27.9422 28.9518H29.859L32.5431 21.5725Z" fill="#0096D6"/>
</g>
</g>
<defs>
<clipPath id="clip0_25_179">
<rect width="107" height="51" fill="white" transform="translate(0 0.000427246)"/>
</clipPath>
</defs>
</svg>
