<svg width="67" height="63" viewBox="0 0 67 63" fill="none" xmlns="http://www.w3.org/2000/svg">
<path d="M9.51715 7.5424C9.93084 6.17215 10.9111 4.8424 12.3635 4.49815C14.2251 4.0864 16.0935 4.79515 17.6898 5.70865C19.4817 6.77965 21.0308 8.3389 21.8649 10.2739C21.5052 10.2739 21.1432 10.2964 20.7857 10.2514C20.2484 9.58315 19.8549 8.8024 19.2299 8.2039C17.8067 6.76615 15.9518 5.6929 13.9418 5.37565C12.7952 5.1754 11.5541 5.7064 10.9988 6.7504C9.73524 8.9689 10.0455 11.6937 10.9336 13.9909C10.5963 14.0517 10.2613 14.1147 9.92634 14.1732C9.07873 12.0784 8.7797 9.71365 9.51715 7.5424Z" fill="#171714"/>
<path d="M30.177 9.57642C31.0066 9.57867 31.8363 9.57867 32.6659 9.57867C32.6704 11.3382 32.6546 13.0977 32.6636 14.8549C32.6344 15.2419 32.7828 15.5907 33.0076 15.8967C33.6709 14.7447 34.5747 13.7637 35.3346 12.6792C36.2902 12.6567 37.248 12.6634 38.2058 12.6657C37.2435 13.8132 36.2924 14.9674 35.3639 16.1419C36.4093 17.5909 37.4391 19.0489 38.4576 20.5159C37.475 20.5204 36.4925 20.5182 35.51 20.5092C34.6602 19.1547 33.7024 17.8699 32.8952 16.4884C32.8098 16.4592 32.6412 16.4007 32.5557 16.3714C32.7626 17.7439 32.6299 19.1344 32.6614 20.5182C31.834 20.5182 31.0089 20.5159 30.1815 20.5204C30.1747 16.8732 30.177 13.2237 30.177 9.57642Z" fill="#171714"/>
<path d="M16.2307 10.8229C16.5499 10.4201 16.9344 10.0781 17.2986 9.7204C17.6741 10.0894 18.0495 10.4584 18.425 10.8274C18.0518 11.2099 17.6763 11.5901 17.3009 11.9704C16.9366 11.5969 16.5297 11.2549 16.2307 10.8229Z" fill="#171714"/>
<path d="M20.9589 11.2977C22.1438 11.2887 23.3983 11.1694 24.5023 11.6982C26.0086 12.3079 27.225 13.8492 27.0429 15.5322C26.818 17.2422 25.8243 18.7204 25.3948 20.3742C24.889 22.1449 24.4753 24.2284 22.798 25.2837C21.2961 26.3074 19.475 25.1509 18.3823 24.0462C18.7038 23.9404 19.0298 23.8482 19.3626 23.7694C20.1855 24.0349 20.9072 24.7729 21.8335 24.5817C22.6586 24.3657 23.1555 23.5894 23.486 22.8582C24.0773 21.4812 24.3089 19.9804 24.9025 18.6012C25.3319 17.4627 26.0176 16.3557 25.9727 15.0979C25.9502 14.0652 25.215 13.1764 24.3134 12.7399C23.3264 12.2269 22.1842 12.2787 21.105 12.2562C21.0556 11.9367 21.0084 11.6172 20.9589 11.2977Z" fill="#171714"/>
<path d="M40.0899 13.0099C42.0234 12.4114 44.2088 11.9974 46.1446 12.7984C48.4941 13.8874 48.6919 17.3007 47.3587 19.2492C46.2682 20.7679 44.2268 20.7612 42.554 20.6037C42.5563 21.5847 42.5518 22.5657 42.5608 23.5467C41.7334 23.5512 40.906 23.5489 40.0786 23.5534C40.0876 20.0389 40.0674 16.5244 40.0899 13.0099ZM42.5743 14.3824C42.5405 15.8449 42.5518 17.3097 42.5675 18.7722C43.1835 18.8059 43.8176 18.9139 44.4246 18.7564C45.1059 18.5269 45.5083 17.8204 45.5488 17.1297C45.6185 16.2814 45.6365 15.2622 44.9462 14.6434C44.2852 14.0674 43.3589 14.2947 42.5743 14.3824Z" fill="#171714"/>
<path d="M50.2927 13.0234C52.1768 12.4204 54.2565 12.0739 56.1878 12.6544C57.3277 12.9896 58.0494 14.1304 58.1056 15.2824C58.2068 17.0261 58.1259 18.7721 58.1461 20.5159C57.3232 20.5159 56.4981 20.5159 55.6752 20.5181C55.655 18.9971 55.7067 17.4761 55.6482 15.9574C55.628 15.3611 55.4324 14.6614 54.8321 14.4071C54.1666 14.1259 53.4381 14.3554 52.7659 14.4904C52.7749 16.4996 52.7749 18.5089 52.7659 20.5181C51.943 20.5159 51.1201 20.5159 50.295 20.5181C50.2882 18.0206 50.2905 15.5209 50.2927 13.0234Z" fill="#171714"/>
<path d="M15.1335 12.7264C15.6798 12.5914 16.2509 12.6477 16.8085 12.6499C16.8107 13.0009 16.8107 13.3519 16.8129 13.7029C16.3543 13.8087 15.9271 13.9999 15.5516 14.2834C15.736 15.4759 16.3093 16.5492 16.8714 17.5999C16.406 17.6292 15.9428 17.6607 15.4797 17.6922C14.9064 16.7269 14.2116 15.7639 14.0655 14.6209C13.9351 13.8469 14.3645 12.9762 15.1335 12.7264Z" fill="#171714"/>
<path d="M17.8112 12.6521C18.506 12.6656 19.2974 12.5036 19.8954 12.9514C20.4822 13.3789 20.6756 14.1821 20.507 14.8661C20.2776 15.9034 19.6639 16.7921 19.1288 17.6921C18.6678 17.6606 18.2069 17.6291 17.746 17.5999C18.2182 16.5581 18.9624 15.5569 18.9781 14.3734C18.823 13.8559 18.2564 13.8311 17.818 13.7209C17.8157 13.3631 17.8135 13.0076 17.8112 12.6521Z" fill="#171714"/>
<path d="M7.62407 18.5539C7.04401 16.9676 7.80394 15.1946 9.17991 14.3014C9.31706 14.5714 9.44971 14.8414 9.58011 15.1136C8.89213 15.8134 8.24236 16.7336 8.44921 17.7731C8.74599 19.1074 9.83867 20.0749 10.9359 20.7971C13.0763 22.2146 15.7877 22.7726 18.2946 22.1156C18.4992 22.3766 18.7083 22.6331 18.9241 22.8829C16.1767 23.8324 13.0763 23.2631 10.6368 21.7646C9.37327 20.9951 8.21538 19.9331 7.62407 18.5539Z" fill="#171714"/>
<path d="M11.435 15.5546C11.5856 14.7581 12.4512 14.5579 13.1122 14.3824C13.1752 14.6726 13.2404 14.9606 13.3101 15.2509C13.0763 15.5096 12.6963 15.7594 12.8649 16.1666C13.1302 16.9001 13.816 17.3681 14.3623 17.8901C13.9351 18.0049 13.5057 18.1174 13.0763 18.2231C12.3343 17.5076 11.2461 16.7246 11.435 15.5546Z" fill="#171714"/>
<path d="M21.2894 15.2509C21.3568 14.9584 21.4265 14.6659 21.494 14.3734C22.1483 14.5669 23.0049 14.7469 23.1712 15.5322C23.3736 16.5042 22.5552 17.2849 21.9054 17.8812C21.476 18.4212 20.7813 17.9914 20.2372 17.9149C20.7858 17.3772 21.4603 16.8979 21.7593 16.1644C21.9234 15.7572 21.5255 15.5029 21.2894 15.2509Z" fill="#171714"/>
<path d="M13.7778 19.1344C16.0778 18.5381 18.5285 18.5426 20.8285 19.1321C20.7093 19.5439 20.5879 19.9556 20.471 20.3674C18.4138 19.7689 16.1947 19.7779 14.1375 20.3651C14.0161 19.9534 13.8969 19.5461 13.7778 19.1344Z" fill="#171714"/>
<path d="M32.893 26.5054C33.21 26.5054 33.5292 26.5076 33.8485 26.5076C33.8508 27.3649 33.8508 28.2244 33.853 29.0839C34.6871 29.0816 35.519 29.0816 36.3509 29.0794C36.3531 29.3494 36.3554 29.6216 36.3576 29.8939C35.5235 29.8939 34.6871 29.8961 33.853 29.8961C33.8485 31.7051 33.8508 33.5141 33.844 35.3231C33.8597 35.8069 33.8215 36.4594 34.3184 36.7271C34.9727 36.9521 35.6764 36.7766 36.3464 36.7294C36.3689 36.9926 36.3914 37.2559 36.4138 37.5214C35.4583 37.6969 34.3544 37.9489 33.4843 37.3729C32.9582 37.0286 32.8772 36.3694 32.8862 35.7956C32.875 33.8291 32.8907 31.8649 32.8862 29.8984C32.3961 29.8984 31.9082 29.8961 31.4203 29.8939C31.4181 29.6261 31.4158 29.3584 31.4136 29.0906C31.9037 29.0839 32.3938 29.0794 32.8862 29.0749C32.884 28.2176 32.884 27.3604 32.893 26.5054Z" fill="#171714"/>
<path d="M8.82694 29.9119C9.71278 29.2347 10.7897 28.7374 11.9341 28.8724C13.3281 28.8882 14.4657 30.0177 14.8052 31.3159C15.3021 33.2622 14.9828 35.6562 13.3168 36.9612C12.0308 37.9467 10.2591 37.8702 8.80445 37.3324C8.78197 38.5744 8.86291 39.8187 8.77972 41.0584C8.50768 41.2857 8.11197 41.2024 7.79046 41.2902C7.74774 37.5619 7.83768 33.8292 7.74774 30.1032C7.36328 29.7477 6.79221 29.9074 6.31781 29.8377C6.32456 29.5744 6.3313 29.3112 6.3358 29.0479C6.96308 29.0614 7.6106 28.9804 8.22214 29.1604C8.48969 29.3427 8.62684 29.6622 8.82694 29.9119ZM8.80445 30.9514C8.81345 32.7649 8.80445 34.5784 8.80895 36.3919C10.0365 36.9792 11.6711 37.1254 12.7615 36.1782C13.9958 35.1027 14.2072 33.2442 13.8452 31.7277C13.6473 30.7062 12.802 29.7274 11.698 29.7454C10.5829 29.6127 9.60711 30.2584 8.80445 30.9514Z" fill="#171714"/>
<path d="M17.139 29.7521C18.1889 28.9376 19.5964 28.7374 20.8824 28.9286C21.6716 29.0569 22.4428 29.5114 22.8092 30.2449C23.16 30.9064 23.178 31.6736 23.1915 32.4049C23.1959 33.8066 23.1622 35.2106 23.2139 36.6124C23.6906 36.6664 24.1672 36.7114 24.6461 36.7451C24.6416 37.0061 24.6371 37.2671 24.6349 37.5281C24.075 37.5281 23.513 37.5619 22.9576 37.4831C22.4607 37.4471 22.3371 36.8576 22.0875 36.5201C20.9409 37.5979 19.1512 38.1244 17.6831 37.4066C16.2172 36.6146 16.2217 34.2184 17.6448 33.3814C19.0028 32.5646 20.6778 32.6951 22.1775 32.9494C22.1752 31.9324 22.2562 30.6431 21.2422 30.0446C19.9539 29.3741 18.4385 29.8849 17.2806 30.5959C17.2267 30.3146 17.1659 30.0356 17.139 29.7521ZM18.3103 34.0564C17.3233 34.6211 17.3301 36.4459 18.5082 36.7721C19.8842 37.1659 21.1635 36.3806 22.1617 35.5189C22.1617 34.9384 22.1617 34.3579 22.1617 33.7796C20.8914 33.6266 19.4817 33.4106 18.3103 34.0564Z" fill="#171714"/>
<path d="M29.2102 28.9984C29.7948 28.7779 30.4333 28.9107 31.0381 28.9602C30.9842 29.2909 30.9325 29.6217 30.8852 29.9547C30.3704 29.9187 29.8308 29.7747 29.3294 29.9569C28.6661 30.1977 28.1805 30.7287 27.6701 31.1922C27.6791 33.2869 27.6701 35.3839 27.6769 37.4787C27.3261 37.4922 26.9777 37.5057 26.6292 37.5214C26.6247 35.0149 26.6359 32.5107 26.6224 30.0042C26.1255 29.9434 25.6309 29.8647 25.134 29.8242C25.1363 29.5722 25.1385 29.3202 25.1408 29.0682C25.7456 29.0614 26.3616 28.9962 26.9597 29.1267C27.4318 29.2324 27.4678 29.8084 27.6656 30.1639C28.14 29.7297 28.6077 29.2549 29.2102 28.9984Z" fill="#171714"/>
<path d="M39.4761 30.3484C40.4788 29.5857 41.612 28.7442 42.9475 28.8702C44.1009 28.8679 45.0407 29.9074 45.1171 31.0234C45.2475 32.8887 45.0496 34.7652 45.243 36.6304C45.7129 36.6754 46.1851 36.7137 46.6594 36.7429C46.6549 37.0039 46.6527 37.2627 46.6505 37.5237C45.8613 37.4472 44.627 37.8522 44.2627 36.8869C44.0222 34.9834 44.3167 33.0462 44.1166 31.1359C44.0154 30.4452 43.4871 29.7184 42.7226 29.7544C41.4546 29.6667 40.4743 30.6139 39.5075 31.2867C39.5075 33.3612 39.5053 35.4334 39.5075 37.5079C39.1748 37.5057 38.8443 37.5057 38.5138 37.5057C38.5138 34.6977 38.516 31.8897 38.5093 29.0817C38.8353 29.0794 39.1613 29.0817 39.4873 29.0817C39.4851 29.5047 39.4806 29.9254 39.4761 30.3484Z" fill="#171714"/>
<path d="M48.683 30.2584C50.1196 28.3707 53.4921 28.3347 54.7962 30.3889C55.4055 31.2777 55.4729 32.3802 55.4976 33.4219C53.2538 33.4264 51.01 33.4152 48.7662 33.4264C48.8336 34.5447 49.1349 35.8069 50.1849 36.4054C51.6867 37.2717 53.6045 36.8082 54.8973 35.7664C55.0817 35.9892 55.2661 36.2142 55.4504 36.4392C53.5663 38.0637 50.1938 38.3584 48.5661 36.2389C47.4059 34.4862 47.4621 31.9639 48.683 30.2584ZM50.5671 29.9277C49.4946 30.3552 48.991 31.4847 48.7819 32.5467C50.6705 32.5714 52.5613 32.5669 54.4499 32.5512C54.3195 31.8222 54.1846 31.0302 53.6293 30.4879C52.8761 29.6397 51.5766 29.5767 50.5671 29.9277Z" fill="#171714"/>
<path d="M56.7769 29.0614C57.4244 29.0704 58.1012 28.9691 58.7262 29.1806C59.0567 29.4191 59.1309 29.8444 59.2995 30.1931C59.7806 29.7161 60.2595 29.1806 60.9205 28.9601C61.4916 28.8026 62.0919 28.9106 62.672 28.9466C62.6248 29.2931 62.5776 29.6419 62.5281 29.9884C62.0784 29.9299 61.6175 29.8061 61.1634 29.8961C60.3809 30.0874 59.8234 30.7084 59.2321 31.2101C59.2321 33.3094 59.2276 35.4086 59.2366 37.5079C58.8948 37.4989 58.5531 37.4966 58.2113 37.4989C58.3395 35.5751 58.2158 33.6469 58.2675 31.7231C58.2563 31.1201 58.3597 30.4609 58.0449 29.9141C57.62 29.8624 57.1951 29.8601 56.7701 29.8421C56.7724 29.5811 56.7746 29.3201 56.7769 29.0614Z" fill="#171714"/>
<path d="M58.7419 40.3721C59.0657 40.3699 59.3939 40.3699 59.7199 40.3699C59.6885 42.6784 59.7739 44.9869 59.6682 47.2931C59.8728 47.3944 60.0842 47.4799 60.2978 47.5631C61.4399 46.3639 62.7574 45.3559 63.9805 44.2421C64.4257 44.2466 64.8686 44.2534 65.3138 44.2579C63.8614 45.4774 62.4539 46.7464 60.9992 47.9636C61.7704 48.9559 62.5528 49.9391 63.3195 50.9359C63.5893 51.2531 63.8524 51.6109 64.2368 51.7999C64.6618 51.8966 65.1024 51.8786 65.5364 51.9101C65.5341 52.1171 65.5296 52.5334 65.5274 52.7426C64.6708 52.7606 63.6455 52.8596 63.0587 52.0946C61.8851 50.6771 60.7879 49.1944 59.7154 47.6981C59.7177 49.3676 59.7267 51.0371 59.7109 52.7044C59.3894 52.7066 59.0679 52.7089 58.7487 52.7134C58.7329 48.6004 58.7442 44.4851 58.7419 40.3721Z" fill="#171714"/>
<path d="M23.9582 41.7334C24.2797 41.7244 24.6012 41.7154 24.9249 41.7109C24.9294 42.5546 24.9204 43.3984 24.9204 44.2444C25.7726 44.2511 26.6247 44.2489 27.4768 44.2511C27.4655 44.5324 27.4566 44.8136 27.4476 45.0971C26.6022 45.0949 25.7568 45.0949 24.9137 45.1061C24.9182 46.7194 24.9227 48.3326 24.9114 49.9459C24.9227 50.5489 24.9047 51.1856 25.1678 51.7459C25.8333 52.2566 26.6989 51.9934 27.4453 51.8741C27.4745 52.0811 27.5307 52.4951 27.5577 52.7021C26.5887 52.8574 25.4848 53.1431 24.5989 52.5671C24.0189 52.2049 23.9514 51.4714 23.9582 50.8549C23.9627 48.9334 23.9604 47.0141 23.9672 45.0949C23.4883 45.0949 23.0116 45.0971 22.535 45.0994C22.535 44.8856 22.5372 44.4581 22.5372 44.2466C23.0139 44.2466 23.4905 44.2489 23.9672 44.2511C23.9649 43.4119 23.9627 42.5726 23.9582 41.7334Z" fill="#171714"/>
<path d="M4.21338 44.2512C4.55063 44.2489 4.88788 44.2489 5.22512 44.2489C5.22512 44.6652 5.22288 45.0814 5.21838 45.4999C6.27734 44.6787 7.55214 43.8214 8.95959 44.0757C9.96684 44.2309 10.7178 45.1264 10.8212 46.1187C11.037 48.0042 10.747 49.9122 10.9696 51.7954C11.4125 51.8832 11.8689 51.8787 12.3186 51.9079C12.3208 52.1824 12.3231 52.4592 12.3253 52.7337C11.5609 52.6864 10.3738 53.0104 10.0051 52.1037C9.64308 50.1372 10.0568 48.1099 9.77798 46.1322C9.66556 45.4459 9.02929 44.8879 8.32781 44.9059C7.41049 44.9149 6.62358 45.4594 5.89512 45.9567C5.63207 46.1839 5.1914 46.3594 5.24761 46.7802C5.21163 48.7557 5.2521 50.7334 5.23637 52.7112C4.89912 52.7067 4.55962 52.7044 4.22237 52.7067C4.21788 49.8874 4.22687 47.0682 4.21338 44.2512Z" fill="#171714"/>
<path d="M14.7108 45.0881C16.2104 43.6279 19.0208 43.6391 20.3406 45.3334C21.0735 46.2401 21.1792 47.4484 21.2377 48.5689C18.9781 48.7219 16.714 48.5936 14.4522 48.6476C14.5467 49.7546 14.8637 50.9944 15.9002 51.5861C17.4088 52.4929 19.3266 51.9799 20.6239 50.9314C20.797 51.1519 20.9724 51.3724 21.1455 51.5951C19.7358 52.8664 17.6156 53.2579 15.8394 52.6099C14.7018 52.1869 13.8722 51.1361 13.6271 49.9594C13.2247 48.3056 13.4855 46.3436 14.7108 45.0881ZM15.3718 45.7676C14.8524 46.3054 14.6771 47.0546 14.468 47.7499C16.3835 47.7656 18.2991 47.7634 20.2147 47.7521C20.0303 47.0321 19.8909 46.2379 19.3536 45.6821C18.3328 44.5684 16.3566 44.6471 15.3718 45.7676Z" fill="#171714"/>
<path d="M45.2295 44.1071C46.7651 43.8146 48.5323 44.3794 49.4024 45.7316C50.5311 47.4799 50.4569 49.9976 49.0674 51.5861C47.642 53.2399 44.8473 53.3569 43.233 51.9146C41.893 50.7131 41.5828 48.6904 42.0504 47.0141C42.4574 45.5494 43.7097 44.3411 45.2295 44.1071ZM44.8271 45.1174C42.3 46.2064 42.1876 50.3644 44.5483 51.7009C45.7961 52.4051 47.5386 52.0766 48.3974 50.9111C49.4182 49.5206 49.4159 47.4484 48.4064 46.0511C47.624 44.9531 46.0479 44.6156 44.8271 45.1174Z" fill="#171714"/>
<path d="M53.8586 45.3987C54.3555 44.8992 54.8658 44.3547 55.5606 44.1432C56.1204 43.9294 56.7184 44.1004 57.2873 44.1769C57.249 44.4109 57.1771 44.8812 57.1411 45.1152C56.4846 45.1062 55.7539 44.9329 55.1671 45.3109C54.668 45.6057 54.2633 46.0197 53.8383 46.4067C53.8361 48.5059 53.8406 50.6074 53.8338 52.7089C53.5123 52.7089 53.1886 52.7089 52.8693 52.7089C52.7254 50.1754 53.0177 47.6307 52.7546 45.0994C52.2915 45.0814 51.8283 45.0679 51.3674 45.0589C51.3674 44.8497 51.3674 44.4289 51.3674 44.2174C52.1049 44.1882 52.8513 44.2039 53.5573 44.4492C53.6607 44.7642 53.7619 45.0814 53.8586 45.3987Z" fill="#171714"/>
<path d="M28.5065 44.2556C28.8572 44.2511 29.2057 44.2444 29.5564 44.2421C30.3321 46.6924 31.0156 49.1696 31.798 51.6176C32.5827 49.1696 33.3021 46.7014 34.0711 44.2466C34.4241 44.2466 34.777 44.2466 35.13 44.2511C35.8607 46.7306 36.6117 49.2056 37.3334 51.6874C38.0776 49.2101 38.8622 46.7441 39.5862 44.2601C39.9392 44.2534 40.2899 44.2489 40.6429 44.2466C39.7144 47.0659 38.8218 49.8964 37.8865 52.7111C37.511 52.7111 37.1355 52.7134 36.7601 52.7156C36.0001 50.2766 35.2829 47.8241 34.5859 45.3649C33.7923 47.8039 33.1335 50.2834 32.3309 52.7201C31.9554 52.7134 31.5822 52.7089 31.2067 52.7021C30.2916 49.8919 29.4193 47.0681 28.5065 44.2556Z" fill="#171714"/>
</svg>
