<svg width="162" height="48" viewBox="0 0 162 48" fill="none" xmlns="http://www.w3.org/2000/svg">
<path d="M3.10997 34.0044C3.08802 34.0432 3.06363 34.073 3.0368 34.0937C3.0124 34.1118 2.98191 34.1208 2.94533 34.1208C2.90386 34.1208 2.85508 34.0988 2.79897 34.0549C2.74287 34.0109 2.67214 33.963 2.58677 33.9113C2.50383 33.857 2.40261 33.8079 2.28309 33.7639C2.166 33.7199 2.02331 33.6979 1.85501 33.6979C1.69646 33.6979 1.55621 33.7212 1.43425 33.7678C1.31473 33.8117 1.2135 33.8725 1.13057 33.9501C1.05007 34.0277 0.989093 34.1195 0.947627 34.2256C0.906161 34.329 0.885428 34.4416 0.885428 34.5631C0.885428 34.7183 0.920796 34.8476 0.991532 34.9511C1.06471 35.052 1.15984 35.1386 1.27692 35.2111C1.39644 35.2835 1.53059 35.3468 1.67939 35.4012C1.83062 35.4529 1.98428 35.5072 2.14039 35.5641C2.29894 35.621 2.45261 35.6857 2.6014 35.7581C2.75263 35.8279 2.88679 35.9172 3.00387 36.0258C3.12339 36.1345 3.21852 36.2677 3.28925 36.4254C3.36243 36.5832 3.39902 36.7772 3.39902 37.0074C3.39902 37.2505 3.35999 37.4795 3.28194 37.6941C3.20388 37.9062 3.08924 38.0912 2.93801 38.2489C2.78922 38.4067 2.60506 38.5309 2.38553 38.6214C2.16844 38.7119 1.92087 38.7572 1.6428 38.7572C1.30131 38.7572 0.991532 38.6925 0.713464 38.5632C0.435396 38.4313 0.197575 38.2541 0 38.0317L0.204892 37.6747C0.224406 37.6463 0.247578 37.623 0.274409 37.6049C0.30368 37.5842 0.335389 37.5739 0.369538 37.5739C0.401247 37.5739 0.436616 37.5881 0.475643 37.6165C0.517109 37.6424 0.563454 37.676 0.614677 37.7174C0.6659 37.7588 0.724441 37.8041 0.790299 37.8532C0.856157 37.9024 0.930552 37.9476 1.01349 37.989C1.09886 38.0304 1.1952 38.0653 1.30253 38.0938C1.40985 38.1196 1.53059 38.1326 1.66475 38.1326C1.83305 38.1326 1.98306 38.108 2.11478 38.0588C2.2465 38.0097 2.35748 37.9411 2.44773 37.8532C2.54042 37.7627 2.61116 37.6553 2.65994 37.5312C2.70872 37.407 2.73312 37.2686 2.73312 37.116C2.73312 36.9479 2.69653 36.8108 2.62335 36.7048C2.55262 36.5961 2.45871 36.5056 2.34163 36.4332C2.22455 36.3608 2.09039 36.3 1.93916 36.2508C1.78793 36.1991 1.63426 36.1474 1.47815 36.0957C1.32204 36.0413 1.16837 35.9793 1.01714 35.9094C0.865914 35.8396 0.731758 35.7491 0.614677 35.6378C0.497596 35.5266 0.402467 35.3882 0.329291 35.2227C0.258555 35.0546 0.223186 34.8476 0.223186 34.6019C0.223186 34.4053 0.258555 34.2152 0.329291 34.0316C0.402467 33.8479 0.507352 33.685 0.643947 33.5427C0.782981 33.4005 0.952505 33.2867 1.15252 33.2013C1.35497 33.116 1.5867 33.0733 1.84769 33.0733C2.14039 33.0733 2.40627 33.1224 2.64531 33.2207C2.88679 33.319 3.099 33.4613 3.28194 33.6475L3.10997 34.0044Z" fill="#979797"/>
<path d="M4.89975 34.7649V38.6951H4.24849V34.7649H4.89975ZM5.03878 33.5311C5.03878 33.5983 5.02537 33.6617 4.99854 33.7212C4.97415 33.7781 4.94 33.8298 4.89609 33.8764C4.85462 33.9204 4.80462 33.9553 4.74608 33.9812C4.68998 34.007 4.63022 34.02 4.5668 34.02C4.50338 34.02 4.44362 34.007 4.38752 33.9812C4.33386 33.9553 4.28629 33.9204 4.24483 33.8764C4.20336 33.8298 4.17043 33.7781 4.14604 33.7212C4.12165 33.6617 4.10945 33.5983 4.10945 33.5311C4.10945 33.4638 4.12165 33.4005 4.14604 33.341C4.17043 33.2789 4.20336 33.2259 4.24483 33.1819C4.28629 33.1354 4.33386 33.0991 4.38752 33.0733C4.44362 33.0474 4.50338 33.0345 4.5668 33.0345C4.63022 33.0345 4.68998 33.0474 4.74608 33.0733C4.80462 33.0991 4.85462 33.1354 4.89609 33.1819C4.94 33.2259 4.97415 33.2789 4.99854 33.341C5.02537 33.4005 5.03878 33.4638 5.03878 33.5311Z" fill="#979797"/>
<path d="M6.64305 32.9802V38.6951H5.99178V32.9802H6.64305Z" fill="#979797"/>
<path d="M10.875 34.7649L9.36393 38.6951H8.77853L7.26745 34.7649H7.79797C7.85163 34.7649 7.89554 34.7791 7.92969 34.8076C7.96383 34.836 7.98701 34.8696 7.9992 34.9084L8.93951 37.4381C8.96878 37.5338 8.99439 37.6269 9.01635 37.7174C9.0383 37.8079 9.05903 37.8985 9.07855 37.989C9.09806 37.8985 9.11879 37.8079 9.14075 37.7174C9.1627 37.6269 9.18953 37.5338 9.22124 37.4381L10.1725 34.9084C10.1872 34.867 10.2116 34.8334 10.2457 34.8076C10.2799 34.7791 10.3201 34.7649 10.3664 34.7649H10.875Z" fill="#979797"/>
<path d="M13.8529 36.3013C13.8529 36.1409 13.831 35.9948 13.7871 35.8629C13.7456 35.7284 13.6834 35.6133 13.6005 35.5176C13.52 35.4193 13.4212 35.3443 13.3041 35.2925C13.187 35.2382 13.0541 35.2111 12.9053 35.2111C12.5931 35.2111 12.3455 35.3081 12.1626 35.502C11.9821 35.6934 11.8699 35.9599 11.826 36.3013H13.8529ZM14.3798 38.1442C14.2993 38.2477 14.2029 38.3382 14.0907 38.4158C13.9785 38.4908 13.8578 38.5529 13.7285 38.602C13.6017 38.6512 13.47 38.6874 13.3334 38.7106C13.1968 38.7365 13.0614 38.7494 12.9273 38.7494C12.6711 38.7494 12.4345 38.7042 12.2174 38.6137C12.0028 38.5205 11.8162 38.386 11.6577 38.2101C11.5015 38.0317 11.3796 37.8118 11.2918 37.5506C11.204 37.2893 11.1601 36.9893 11.1601 36.6505C11.1601 36.3763 11.1991 36.1202 11.2771 35.8823C11.3576 35.6443 11.4723 35.4387 11.6211 35.2654C11.7699 35.0895 11.9516 34.9524 12.1662 34.8541C12.3809 34.7532 12.6224 34.7028 12.8907 34.7028C13.1126 34.7028 13.3175 34.7429 13.5053 34.8231C13.6956 34.9007 13.859 35.0145 13.9956 35.1645C14.1347 35.3119 14.2432 35.4956 14.3212 35.7154C14.3993 35.9327 14.4383 36.181 14.4383 36.4604C14.4383 36.569 14.4274 36.6414 14.4054 36.6776C14.3834 36.7138 14.342 36.7319 14.281 36.7319H11.804C11.8113 36.9802 11.843 37.1962 11.8991 37.3799C11.9577 37.5635 12.0382 37.7174 12.1406 37.8416C12.2431 37.9631 12.365 38.055 12.5065 38.117C12.648 38.1765 12.8065 38.2063 12.9821 38.2063C13.1456 38.2063 13.2858 38.1869 13.4029 38.1481C13.5224 38.1067 13.6249 38.0627 13.7102 38.0162C13.7956 37.9696 13.8663 37.9269 13.9224 37.8881C13.981 37.8467 14.031 37.826 14.0725 37.826C14.1261 37.826 14.1676 37.848 14.1969 37.892L14.3798 38.1442Z" fill="#979797"/>
<path d="M15.8566 35.5525C15.9737 35.2835 16.1176 35.074 16.2884 34.9239C16.4591 34.7713 16.6677 34.695 16.914 34.695C16.9921 34.695 17.0665 34.7041 17.1372 34.7222C17.2104 34.7403 17.275 34.7688 17.3311 34.8076L17.2836 35.3236C17.2689 35.3882 17.2323 35.4206 17.1738 35.4206C17.1396 35.4206 17.0896 35.4128 17.0238 35.3973C16.9579 35.3818 16.8835 35.374 16.8006 35.374C16.6835 35.374 16.5786 35.3921 16.4859 35.4283C16.3957 35.4645 16.314 35.5189 16.2408 35.5913C16.1701 35.6611 16.1054 35.7491 16.0469 35.8551C15.9908 35.9586 15.9396 36.0775 15.8932 36.212V38.6951H15.2383V34.7649H15.6115C15.6822 34.7649 15.731 34.7791 15.7578 34.8076C15.7847 34.836 15.803 34.8852 15.8127 34.955L15.8566 35.5525Z" fill="#979797"/>
<path d="M3.10997 43.2475C3.08802 43.2863 3.06363 43.316 3.0368 43.3367C3.0124 43.3548 2.98191 43.3639 2.94533 43.3639C2.90386 43.3639 2.85508 43.3419 2.79897 43.2979C2.74287 43.2539 2.67214 43.2061 2.58677 43.1544C2.50383 43.1 2.40261 43.0509 2.28309 43.0069C2.166 42.963 2.02331 42.941 1.85501 42.941C1.69646 42.941 1.55621 42.9642 1.43425 43.0108C1.31473 43.0548 1.2135 43.1156 1.13057 43.1932C1.05007 43.2708 0.989093 43.3626 0.947627 43.4686C0.906161 43.5721 0.885428 43.6846 0.885428 43.8062C0.885428 43.9614 0.920796 44.0907 0.991532 44.1941C1.06471 44.295 1.15984 44.3817 1.27692 44.4541C1.39644 44.5265 1.53059 44.5899 1.67939 44.6442C1.83062 44.6959 1.98428 44.7503 2.14039 44.8072C2.29894 44.8641 2.45261 44.9287 2.6014 45.0012C2.75263 45.071 2.88679 45.1602 3.00387 45.2689C3.12339 45.3775 3.21852 45.5107 3.28925 45.6685C3.36243 45.8263 3.39902 46.0202 3.39902 46.2505C3.39902 46.4936 3.35999 46.7225 3.28194 46.9372C3.20388 47.1493 3.08924 47.3342 2.93801 47.492C2.78922 47.6498 2.60506 47.7739 2.38553 47.8645C2.16844 47.955 1.92087 48.0002 1.6428 48.0002C1.30131 48.0002 0.991532 47.9356 0.713464 47.8063C0.435396 47.6743 0.197575 47.4972 0 47.2747L0.204892 46.9178C0.224406 46.8893 0.247578 46.866 0.274409 46.8479C0.30368 46.8272 0.335389 46.8169 0.369538 46.8169C0.401247 46.8169 0.436616 46.8311 0.475643 46.8596C0.517109 46.8854 0.563454 46.9191 0.614677 46.9605C0.6659 47.0018 0.724441 47.0471 0.790299 47.0962C0.856157 47.1454 0.930552 47.1907 1.01349 47.232C1.09886 47.2734 1.1952 47.3083 1.30253 47.3368C1.40985 47.3627 1.53059 47.3756 1.66475 47.3756C1.83305 47.3756 1.98306 47.351 2.11478 47.3019C2.2465 47.2527 2.35748 47.1842 2.44773 47.0962C2.54042 47.0057 2.61116 46.8984 2.65994 46.7742C2.70872 46.6501 2.73312 46.5117 2.73312 46.3591C2.73312 46.191 2.69653 46.0539 2.62335 45.9478C2.55262 45.8392 2.45871 45.7487 2.34163 45.6762C2.22455 45.6038 2.09039 45.543 1.93916 45.4939C1.78793 45.4422 1.63426 45.3904 1.47815 45.3387C1.32204 45.2844 1.16837 45.2223 1.01714 45.1525C0.865914 45.0826 0.731758 44.9921 0.614677 44.8809C0.497596 44.7697 0.402467 44.6313 0.329291 44.4657C0.258555 44.2976 0.223186 44.0907 0.223186 43.845C0.223186 43.6484 0.258555 43.4583 0.329291 43.2746C0.402467 43.091 0.507352 42.928 0.643947 42.7858C0.782981 42.6435 0.952505 42.5297 1.15252 42.4444C1.35497 42.359 1.5867 42.3163 1.84769 42.3163C2.14039 42.3163 2.40627 42.3655 2.64531 42.4638C2.88679 42.562 3.099 42.7043 3.28194 42.8905L3.10997 43.2475Z" fill="#979797"/>
<path d="M4.89975 44.0079V47.9382H4.24849V44.0079H4.89975ZM5.03878 42.7741C5.03878 42.8414 5.02537 42.9048 4.99854 42.9642C4.97415 43.0212 4.94 43.0729 4.89609 43.1194C4.85462 43.1634 4.80462 43.1983 4.74608 43.2242C4.68998 43.2501 4.63022 43.263 4.5668 43.263C4.50338 43.263 4.44362 43.2501 4.38752 43.2242C4.33386 43.1983 4.28629 43.1634 4.24483 43.1194C4.20336 43.0729 4.17043 43.0212 4.14604 42.9642C4.12165 42.9048 4.10945 42.8414 4.10945 42.7741C4.10945 42.7069 4.12165 42.6435 4.14604 42.584C4.17043 42.522 4.20336 42.4689 4.24483 42.425C4.28629 42.3784 4.33386 42.3422 4.38752 42.3163C4.44362 42.2905 4.50338 42.2775 4.5668 42.2775C4.63022 42.2775 4.68998 42.2905 4.74608 42.3163C4.80462 42.3422 4.85462 42.3784 4.89609 42.425C4.94 42.4689 4.97415 42.522 4.99854 42.584C5.02537 42.6435 5.03878 42.7069 5.03878 42.7741Z" fill="#979797"/>
<path d="M6.64305 42.2232V47.9382H5.99178V42.2232H6.64305Z" fill="#979797"/>
<path d="M10.875 44.0079L9.36393 47.9382H8.77853L7.26745 44.0079H7.79797C7.85163 44.0079 7.89554 44.0221 7.92969 44.0506C7.96383 44.079 7.98701 44.1127 7.9992 44.1515L8.93951 46.6811C8.96878 46.7768 8.99439 46.8699 9.01635 46.9605C9.0383 47.051 9.05903 47.1415 9.07855 47.232C9.09806 47.1415 9.11879 47.051 9.14075 46.9605C9.1627 46.8699 9.18953 46.7768 9.22124 46.6811L10.1725 44.1515C10.1872 44.1101 10.2116 44.0765 10.2457 44.0506C10.2799 44.0221 10.3201 44.0079 10.3664 44.0079H10.875Z" fill="#979797"/>
<path d="M13.8529 45.5443C13.8529 45.384 13.831 45.2378 13.7871 45.1059C13.7456 44.9714 13.6834 44.8563 13.6005 44.7606C13.52 44.6623 13.4212 44.5873 13.3041 44.5356C13.187 44.4813 13.0541 44.4541 12.9053 44.4541C12.5931 44.4541 12.3455 44.5511 12.1626 44.7451C11.9821 44.9365 11.8699 45.2029 11.826 45.5443H13.8529ZM14.3798 47.3872C14.2993 47.4907 14.2029 47.5812 14.0907 47.6588C13.9785 47.7338 13.8578 47.7959 13.7285 47.8451C13.6017 47.8942 13.47 47.9304 13.3334 47.9537C13.1968 47.9796 13.0614 47.9925 12.9273 47.9925C12.6711 47.9925 12.4345 47.9472 12.2174 47.8567C12.0028 47.7636 11.8162 47.6291 11.6577 47.4532C11.5015 47.2747 11.3796 47.0549 11.2918 46.7936C11.204 46.5324 11.1601 46.2323 11.1601 45.8935C11.1601 45.6193 11.1991 45.3633 11.2771 45.1253C11.3576 44.8873 11.4723 44.6817 11.6211 44.5084C11.7699 44.3325 11.9516 44.1954 12.1662 44.0972C12.3809 43.9963 12.6224 43.9458 12.8907 43.9458C13.1126 43.9458 13.3175 43.9859 13.5053 44.0661C13.6956 44.1437 13.859 44.2575 13.9956 44.4075C14.1347 44.555 14.2432 44.7386 14.3212 44.9585C14.3993 45.1757 14.4383 45.4241 14.4383 45.7034C14.4383 45.812 14.4274 45.8845 14.4054 45.9207C14.3834 45.9569 14.342 45.975 14.281 45.975H11.804C11.8113 46.2233 11.843 46.4393 11.8991 46.6229C11.9577 46.8066 12.0382 46.9605 12.1406 47.0846C12.2431 47.2062 12.365 47.298 12.5065 47.3601C12.648 47.4196 12.8065 47.4493 12.9821 47.4493C13.1456 47.4493 13.2858 47.4299 13.4029 47.3911C13.5224 47.3497 13.6249 47.3058 13.7102 47.2592C13.7956 47.2126 13.8663 47.17 13.9224 47.1312C13.981 47.0898 14.031 47.0691 14.0725 47.0691C14.1261 47.0691 14.1676 47.0911 14.1969 47.135L14.3798 47.3872Z" fill="#979797"/>
<path d="M15.8566 44.7955C15.9737 44.5265 16.1176 44.317 16.2884 44.167C16.4591 44.0144 16.6677 43.9381 16.914 43.9381C16.9921 43.9381 17.0665 43.9471 17.1372 43.9652C17.2104 43.9833 17.275 44.0118 17.3311 44.0506L17.2836 44.5666C17.2689 44.6313 17.2323 44.6636 17.1738 44.6636C17.1396 44.6636 17.0896 44.6558 17.0238 44.6403C16.9579 44.6248 16.8835 44.617 16.8006 44.617C16.6835 44.617 16.5786 44.6352 16.4859 44.6714C16.3957 44.7076 16.314 44.7619 16.2408 44.8343C16.1701 44.9042 16.1054 44.9921 16.0469 45.0981C15.9908 45.2016 15.9396 45.3206 15.8932 45.4551V47.9382H15.2383V44.0079H15.6115C15.6822 44.0079 15.731 44.0221 15.7578 44.0506C15.7847 44.079 15.803 44.1282 15.8127 44.198L15.8566 44.7955Z" fill="#979797"/>
<path d="M23.1832 37.473C23.2234 37.473 23.2585 37.4896 23.2887 37.5227L23.5786 37.8395C23.3577 38.0991 23.0891 38.3014 22.7728 38.4465C22.4591 38.5915 22.0788 38.6641 21.632 38.6641C21.2454 38.6641 20.894 38.5966 20.5777 38.4617C20.2614 38.3243 19.9916 38.1334 19.7682 37.8891C19.5448 37.6423 19.3716 37.3471 19.2486 37.0035C19.1256 36.6599 19.0641 36.282 19.0641 35.8697C19.0641 35.4574 19.1281 35.0795 19.2561 34.7359C19.3841 34.3924 19.5636 34.0972 19.7945 33.8503C20.028 33.6034 20.3066 33.4126 20.6304 33.2777C20.9542 33.1403 21.3119 33.0715 21.7035 33.0715C22.0876 33.0715 22.4264 33.1339 22.7201 33.2586C23.0138 33.3833 23.2723 33.5525 23.4958 33.7663L23.2548 34.1061C23.2397 34.1315 23.2196 34.1531 23.1945 34.171C23.1719 34.1862 23.1406 34.1939 23.1004 34.1939C23.0552 34.1939 23 34.1697 22.9347 34.1213C22.8695 34.0704 22.7841 34.0144 22.6787 33.9534C22.5733 33.8923 22.4415 33.8376 22.2834 33.7892C22.1252 33.7383 21.9307 33.7129 21.6997 33.7129C21.4211 33.7129 21.1663 33.7625 20.9354 33.8617C20.7045 33.9585 20.5049 34.0997 20.3367 34.2855C20.1711 34.4713 20.0418 34.6978 19.9489 34.965C19.856 35.2322 19.8096 35.5338 19.8096 35.8697C19.8096 36.2107 19.8573 36.5149 19.9527 36.7821C20.0506 37.0493 20.1824 37.2758 20.348 37.4616C20.5162 37.6448 20.7133 37.7848 20.9392 37.8815C21.1676 37.9782 21.4136 38.0266 21.6772 38.0266C21.8378 38.0266 21.9821 38.0177 22.1102 37.9998C22.2407 37.9795 22.3599 37.9489 22.4678 37.9082C22.5783 37.8675 22.68 37.8166 22.7728 37.7555C22.8682 37.6919 22.9623 37.6168 23.0552 37.5303C23.0979 37.4921 23.1406 37.473 23.1832 37.473Z" fill="#0B0B0B"/>
<path d="M24.9602 32.9799V38.603H24.29V32.9799H24.9602Z" fill="#0B0B0B"/>
<path d="M27.6548 34.6749C27.9334 34.6749 28.1844 34.7219 28.4078 34.8161C28.6312 34.9103 28.822 35.0439 28.9802 35.2169C29.1383 35.39 29.2588 35.5999 29.3416 35.8468C29.427 36.0911 29.4696 36.3647 29.4696 36.6676C29.4696 36.9729 29.427 37.2478 29.3416 37.4921C29.2588 37.7364 29.1383 37.9451 28.9802 38.1182C28.822 38.2912 28.6312 38.4248 28.4078 38.519C28.1844 38.6106 27.9334 38.6564 27.6548 38.6564C27.3737 38.6564 27.1201 38.6106 26.8942 38.519C26.6708 38.4248 26.48 38.2912 26.3219 38.1182C26.1638 37.9451 26.042 37.7364 25.9567 37.4921C25.8738 37.2478 25.8324 36.9729 25.8324 36.6676C25.8324 36.3647 25.8738 36.0911 25.9567 35.8468C26.042 35.5999 26.1638 35.39 26.3219 35.2169C26.48 35.0439 26.6708 34.9103 26.8942 34.8161C27.1201 34.7219 27.3737 34.6749 27.6548 34.6749ZM27.6548 38.1258C28.0313 38.1258 28.3125 37.9986 28.4982 37.7441C28.684 37.487 28.7768 37.1295 28.7768 36.6714C28.7768 36.2107 28.684 35.8519 28.4982 35.5949C28.3125 35.3378 28.0313 35.2093 27.6548 35.2093C27.464 35.2093 27.2971 35.2424 27.154 35.3086C27.0135 35.3747 26.8955 35.4702 26.8001 35.5949C26.7072 35.7196 26.6369 35.8735 26.5892 36.0568C26.5441 36.2375 26.5215 36.4423 26.5215 36.6714C26.5215 37.1295 26.6143 37.487 26.8001 37.7441C26.9883 37.9986 27.2733 38.1258 27.6548 38.1258Z" fill="#0B0B0B"/>
<path d="M33.4561 34.7359V38.603H33.057C32.9616 38.603 32.9014 38.5559 32.8763 38.4617L32.8236 38.0456C32.6579 38.2314 32.4721 38.3816 32.2663 38.4961C32.0605 38.6081 31.8245 38.6641 31.5584 38.6641C31.3501 38.6641 31.1656 38.6297 31.005 38.561C30.8468 38.4897 30.7138 38.3905 30.6058 38.2632C30.4979 38.136 30.4163 37.982 30.3611 37.8013C30.3084 37.6206 30.282 37.4209 30.282 37.202V34.7359H30.9522V37.202C30.9522 37.4947 31.0175 37.7212 31.148 37.8815C31.2811 38.0418 31.4831 38.122 31.7542 38.122C31.9525 38.122 32.137 38.0749 32.3077 37.9807C32.4809 37.884 32.6403 37.7517 32.7859 37.5837V34.7359H33.4561Z" fill="#0B0B0B"/>
<path d="M37.0038 35.6559C36.8783 35.4854 36.7428 35.3671 36.5972 35.3009C36.4516 35.2322 36.2884 35.1978 36.1077 35.1978C35.7538 35.1978 35.4814 35.3264 35.2907 35.5834C35.0999 35.8404 35.0045 36.2069 35.0045 36.6828C35.0045 36.9348 35.0258 37.1511 35.0685 37.3318C35.1112 37.5099 35.1739 37.6575 35.2568 37.7746C35.3396 37.8891 35.4413 37.9731 35.5618 38.0266C35.6822 38.08 35.819 38.1067 35.9722 38.1067C36.1931 38.1067 36.3851 38.0558 36.5482 37.954C36.7139 37.8522 36.8658 37.7084 37.0038 37.5227V35.6559ZM37.674 32.9799V38.603H37.2749C37.1795 38.603 37.1193 38.5559 37.0942 38.4617L37.034 37.9922C36.8708 38.1907 36.685 38.351 36.4767 38.4732C36.2684 38.5954 36.0274 38.6564 35.7538 38.6564C35.5354 38.6564 35.3371 38.6144 35.1589 38.5305C34.9807 38.4439 34.8288 38.318 34.7033 38.1525C34.5778 37.9871 34.4811 37.781 34.4134 37.5341C34.3456 37.2872 34.3117 37.0035 34.3117 36.6828C34.3117 36.3978 34.3494 36.1331 34.4247 35.8888C34.5 35.6419 34.6079 35.4282 34.7485 35.2475C34.889 35.0668 35.061 34.9255 35.2643 34.8237C35.4701 34.7194 35.7011 34.6672 35.9571 34.6672C36.1905 34.6672 36.3901 34.7079 36.5558 34.7894C36.724 34.8683 36.8733 34.979 37.0038 35.1215V32.9799H37.674Z" fill="#0B0B0B"/>
<path d="M42.4102 35.969C42.6185 35.969 42.8018 35.941 42.9599 35.885C43.1205 35.829 43.2548 35.7514 43.3628 35.6521C43.4732 35.5503 43.556 35.4294 43.6113 35.2895C43.6665 35.1495 43.6941 34.9955 43.6941 34.8276C43.6941 34.4789 43.5874 34.2066 43.3741 34.0106C43.1632 33.8147 42.8419 33.7167 42.4102 33.7167H41.5442V35.969H42.4102ZM42.4102 33.1326C42.7515 33.1326 43.0477 33.1733 43.2988 33.2548C43.5523 33.3337 43.7619 33.4469 43.9276 33.5945C44.0932 33.7421 44.2162 33.9203 44.2965 34.129C44.3794 34.3377 44.4208 34.5705 44.4208 34.8276C44.4208 35.082 44.3769 35.3149 44.289 35.5261C44.2012 35.7374 44.0719 35.9193 43.9012 36.072C43.733 36.2247 43.5234 36.3443 43.2724 36.4309C43.0239 36.5149 42.7365 36.5568 42.4102 36.5568H41.5442V38.603H40.8175V33.1326H42.4102Z" fill="#0B0B0B"/>
<path d="M45.7448 35.5109C45.8653 35.2462 46.0134 35.0401 46.1891 34.8925C46.3648 34.7423 46.5794 34.6672 46.8329 34.6672C46.9133 34.6672 46.9898 34.6761 47.0626 34.6939C47.1379 34.7118 47.2044 34.7398 47.2622 34.7779L47.2132 35.2856C47.1982 35.3493 47.1605 35.3811 47.1003 35.3811C47.0651 35.3811 47.0137 35.3734 46.9459 35.3582C46.8781 35.3429 46.8016 35.3353 46.7162 35.3353C46.5957 35.3353 46.4878 35.3531 46.3924 35.3887C46.2995 35.4243 46.2155 35.4778 46.1401 35.549C46.0674 35.6178 46.0008 35.7043 45.9406 35.8086C45.8829 35.9104 45.8301 36.0275 45.7825 36.1598V38.603H45.1085V34.7359H45.4925C45.5653 34.7359 45.6155 34.7499 45.6431 34.7779C45.6707 34.8059 45.6896 34.8543 45.6996 34.923L45.7448 35.5109Z" fill="#0B0B0B"/>
<path d="M49.3048 34.6749C49.5834 34.6749 49.8345 34.7219 50.0579 34.8161C50.2813 34.9103 50.472 35.0439 50.6302 35.2169C50.7883 35.39 50.9088 35.5999 50.9916 35.8468C51.077 36.0911 51.1197 36.3647 51.1197 36.6676C51.1197 36.9729 51.077 37.2478 50.9916 37.4921C50.9088 37.7364 50.7883 37.9451 50.6302 38.1182C50.472 38.2912 50.2813 38.4248 50.0579 38.519C49.8345 38.6106 49.5834 38.6564 49.3048 38.6564C49.0237 38.6564 48.7702 38.6106 48.5442 38.519C48.3208 38.4248 48.1301 38.2912 47.9719 38.1182C47.8138 37.9451 47.692 37.7364 47.6067 37.4921C47.5239 37.2478 47.4824 36.9729 47.4824 36.6676C47.4824 36.3647 47.5239 36.0911 47.6067 35.8468C47.692 35.5999 47.8138 35.39 47.9719 35.2169C48.1301 35.0439 48.3208 34.9103 48.5442 34.8161C48.7702 34.7219 49.0237 34.6749 49.3048 34.6749ZM49.3048 38.1258C49.6813 38.1258 49.9625 37.9986 50.1482 37.7441C50.334 37.487 50.4268 37.1295 50.4268 36.6714C50.4268 36.2107 50.334 35.8519 50.1482 35.5949C49.9625 35.3378 49.6813 35.2093 49.3048 35.2093C49.114 35.2093 48.9471 35.2424 48.804 35.3086C48.6635 35.3747 48.5455 35.4702 48.4501 35.5949C48.3572 35.7196 48.2869 35.8735 48.2393 36.0568C48.1941 36.2375 48.1715 36.4423 48.1715 36.6714C48.1715 37.1295 48.2644 37.487 48.4501 37.7441C48.6384 37.9986 48.9233 38.1258 49.3048 38.1258Z" fill="#0B0B0B"/>
<path d="M54.4548 35.6559C54.3292 35.4854 54.1937 35.3671 54.0481 35.3009C53.9025 35.2322 53.7394 35.1978 53.5586 35.1978C53.2047 35.1978 52.9324 35.3264 52.7416 35.5834C52.5508 35.8404 52.4554 36.2069 52.4554 36.6828C52.4554 36.9348 52.4768 37.1511 52.5194 37.3318C52.5621 37.5099 52.6249 37.6575 52.7077 37.7746C52.7905 37.8891 52.8922 37.9731 53.0127 38.0266C53.1332 38.08 53.27 38.1067 53.4231 38.1067C53.644 38.1067 53.836 38.0558 53.9992 37.954C54.1648 37.8522 54.3167 37.7084 54.4548 37.5227V35.6559ZM55.125 32.9799V38.603H54.7259C54.6305 38.603 54.5702 38.5559 54.5451 38.4617L54.4849 37.9922C54.3217 38.1907 54.136 38.351 53.9276 38.4732C53.7193 38.5954 53.4783 38.6564 53.2047 38.6564C52.9863 38.6564 52.788 38.6144 52.6098 38.5305C52.4316 38.4439 52.2797 38.318 52.1542 38.1525C52.0287 37.9871 51.9321 37.781 51.8643 37.5341C51.7965 37.2872 51.7626 37.0035 51.7626 36.6828C51.7626 36.3978 51.8003 36.1331 51.8756 35.8888C51.9509 35.6419 52.0588 35.4282 52.1994 35.2475C52.34 35.0668 52.5119 34.9255 52.7152 34.8237C52.9211 34.7194 53.152 34.6672 53.408 34.6672C53.6415 34.6672 53.841 34.7079 54.0067 34.7894C54.1749 34.8683 54.3242 34.979 54.4548 35.1215V32.9799H55.125Z" fill="#0B0B0B"/>
<path d="M59.32 34.7359V38.603H58.9208C58.8255 38.603 58.7652 38.5559 58.7401 38.4617L58.6874 38.0456C58.5217 38.2314 58.336 38.3816 58.1301 38.4961C57.9243 38.6081 57.6884 38.6641 57.4223 38.6641C57.2139 38.6641 57.0294 38.6297 56.8688 38.561C56.7107 38.4897 56.5776 38.3905 56.4697 38.2632C56.3617 38.136 56.2802 37.982 56.2249 37.8013C56.1722 37.6206 56.1459 37.4209 56.1459 37.202V34.7359H56.8161V37.202C56.8161 37.4947 56.8813 37.7212 57.0119 37.8815C57.1449 38.0418 57.347 38.122 57.6181 38.122C57.8164 38.122 58.0009 38.0749 58.1716 37.9807C58.3448 37.884 58.5042 37.7517 58.6497 37.5837V34.7359H59.32Z" fill="#0B0B0B"/>
<path d="M63.0371 35.4231C63.017 35.4511 62.9969 35.4727 62.9769 35.488C62.9568 35.5032 62.9292 35.5109 62.894 35.5109C62.8564 35.5109 62.815 35.4956 62.7698 35.4651C62.7246 35.432 62.6681 35.3964 62.6003 35.3582C62.5351 35.32 62.4535 35.2856 62.3556 35.2551C62.2602 35.222 62.1422 35.2055 62.0017 35.2055C61.8134 35.2055 61.6477 35.2398 61.5047 35.3086C61.3616 35.3747 61.2411 35.4714 61.1432 35.5987C61.0478 35.7259 60.975 35.8799 60.9248 36.0606C60.8771 36.2413 60.8533 36.4436 60.8533 36.6676C60.8533 36.9017 60.8796 37.1104 60.9323 37.2936C60.9851 37.4743 61.0591 37.627 61.1545 37.7517C61.2524 37.8739 61.3691 37.968 61.5047 38.0342C61.6427 38.0978 61.7971 38.1296 61.9678 38.1296C62.1309 38.1296 62.2652 38.1105 62.3707 38.0724C62.4761 38.0316 62.5627 37.9871 62.6305 37.9388C62.7007 37.8904 62.7585 37.8471 62.8037 37.809C62.8514 37.7682 62.8978 37.7479 62.943 37.7479C62.9982 37.7479 63.0409 37.7695 63.071 37.8128L63.2593 38.0609C63.1764 38.1653 63.0823 38.2543 62.9769 38.3281C62.8714 38.4019 62.7572 38.4643 62.6342 38.5152C62.5137 38.5635 62.387 38.5992 62.2539 38.6221C62.1209 38.645 61.9854 38.6564 61.8473 38.6564C61.6088 38.6564 61.3867 38.6119 61.1809 38.5228C60.9775 38.4338 60.8006 38.3052 60.65 38.1373C60.4993 37.9668 60.3814 37.7581 60.296 37.5112C60.2107 37.2643 60.168 36.9831 60.168 36.6676C60.168 36.38 60.2069 36.114 60.2847 35.8697C60.3651 35.6254 60.4805 35.4154 60.6311 35.2398C60.7842 35.0617 60.9713 34.923 61.1922 34.8237C61.4156 34.7245 61.6716 34.6749 61.9603 34.6749C62.2288 34.6749 62.4648 34.7194 62.6681 34.8085C62.8739 34.895 63.0559 35.0184 63.2141 35.1788L63.0371 35.4231Z" fill="#0B0B0B"/>
<path d="M67.518 38.603H66.8478V35.3047H64.8824V37.6257C64.8824 37.7886 64.9213 37.9095 64.9991 37.9884C65.0769 38.0673 65.1773 38.1067 65.3003 38.1067C65.3706 38.1067 65.4308 38.0978 65.481 38.08C65.5337 38.0596 65.5789 38.038 65.6166 38.0151C65.6542 37.9922 65.6856 37.9718 65.7107 37.954C65.7383 37.9337 65.7622 37.9235 65.7822 37.9235C65.8174 37.9235 65.8488 37.9451 65.8764 37.9884L66.0722 38.3129C65.9567 38.4223 65.8174 38.5088 65.6542 38.5725C65.4911 38.6335 65.3229 38.6641 65.1497 38.6641C64.8485 38.6641 64.6163 38.5788 64.4531 38.4083C64.2925 38.2378 64.2122 37.9922 64.2122 37.6715V35.3047H63.7528C63.7126 35.3047 63.6787 35.2933 63.6511 35.2704C63.6235 35.2449 63.6097 35.2068 63.6097 35.1559V34.8848L64.2347 34.8008L64.3891 33.6098C64.3966 33.5716 64.413 33.5411 64.4381 33.5182C64.4657 33.4927 64.5008 33.48 64.5435 33.48H64.8824V34.8123H67.518V38.603ZM67.6837 33.4953C67.6837 33.5614 67.6699 33.6238 67.6423 33.6823C67.6172 33.7383 67.582 33.7879 67.5368 33.8312C67.4942 33.8745 67.444 33.9088 67.3862 33.9343C67.3285 33.9597 67.267 33.9725 67.2017 33.9725C67.1365 33.9725 67.075 33.9597 67.0172 33.9343C66.962 33.9088 66.9131 33.8745 66.8704 33.8312C66.8277 33.7879 66.7938 33.7383 66.7687 33.6823C66.7436 33.6238 66.7311 33.5614 66.7311 33.4953C66.7311 33.4291 66.7436 33.3668 66.7687 33.3082C66.7938 33.2471 66.8277 33.195 66.8704 33.1517C66.9131 33.1059 66.962 33.0703 67.0172 33.0448C67.075 33.0194 67.1365 33.0066 67.2017 33.0066C67.267 33.0066 67.3285 33.0194 67.3862 33.0448C67.444 33.0703 67.4942 33.1059 67.5368 33.1517C67.582 33.195 67.6172 33.2471 67.6423 33.3082C67.6699 33.3668 67.6837 33.4291 67.6837 33.4953Z" fill="#0B0B0B"/>
<path d="M71.8873 34.7359L70.3322 38.603H69.7298L68.1748 34.7359H68.7207C68.7759 34.7359 68.8211 34.7499 68.8563 34.7779C68.8914 34.8059 68.9152 34.839 68.9278 34.8772L69.8955 37.3661C69.9256 37.4603 69.9519 37.5519 69.9745 37.641C69.9971 37.7301 70.0185 37.8191 70.0385 37.9082C70.0586 37.8191 70.08 37.7301 70.1025 37.641C70.1251 37.5519 70.1527 37.4603 70.1854 37.3661L71.1643 34.8772C71.1794 34.8365 71.2045 34.8034 71.2396 34.7779C71.2748 34.7499 71.3162 34.7359 71.3639 34.7359H71.8873Z" fill="#0B0B0B"/>
<path d="M73.2098 34.7359V38.603H72.5396V34.7359H73.2098ZM73.3529 33.522C73.3529 33.5882 73.3391 33.6505 73.3115 33.709C73.2864 33.765 73.2512 33.8159 73.206 33.8617C73.1634 33.905 73.1119 33.9394 73.0517 33.9648C72.9939 33.9903 72.9324 34.003 72.8672 34.003C72.8019 34.003 72.7404 33.9903 72.6827 33.9648C72.6274 33.9394 72.5785 33.905 72.5358 33.8617C72.4932 33.8159 72.4593 33.765 72.4342 33.709C72.4091 33.6505 72.3965 33.5882 72.3965 33.522C72.3965 33.4558 72.4091 33.3935 72.4342 33.3349C72.4593 33.2739 72.4932 33.2217 72.5358 33.1784C72.5785 33.1326 72.6274 33.097 72.6827 33.0715C72.7404 33.0461 72.8019 33.0334 72.8672 33.0334C72.9324 33.0334 72.9939 33.0461 73.0517 33.0715C73.1119 33.097 73.1634 33.1326 73.206 33.1784C73.2512 33.2217 73.2864 33.2739 73.3115 33.3349C73.3391 33.3935 73.3529 33.4558 73.3529 33.522Z" fill="#0B0B0B"/>
<path d="M75.482 38.6641C75.1808 38.6641 74.9486 38.5788 74.7854 38.4083C74.6248 38.2378 74.5444 37.9922 74.5444 37.6715V35.3047H74.0851C74.0449 35.3047 74.011 35.2933 73.9834 35.2704C73.9558 35.2449 73.942 35.2068 73.942 35.1559V34.8848L74.567 34.8046L74.7214 33.6098C74.729 33.5716 74.7453 33.5411 74.7704 33.5182C74.798 33.4927 74.8331 33.48 74.8758 33.48H75.2147V34.8123H76.3179V35.3047H75.2147V37.6257C75.2147 37.7886 75.2536 37.9095 75.3314 37.9884C75.4092 38.0673 75.5096 38.1067 75.6326 38.1067C75.7029 38.1067 75.7631 38.0978 75.8133 38.08C75.866 38.0596 75.9112 38.038 75.9489 38.0151C75.9865 37.9922 76.0179 37.9718 76.043 37.954C76.0706 37.9337 76.0945 37.9235 76.1146 37.9235C76.1497 37.9235 76.1811 37.9451 76.2087 37.9884L76.4045 38.3129C76.289 38.4223 76.1497 38.5088 75.9865 38.5725C75.8234 38.6335 75.6552 38.6641 75.482 38.6641Z" fill="#0B0B0B"/>
<path d="M80.3007 34.7359L78.1734 39.7444C78.1508 39.7953 78.1219 39.836 78.0868 39.8666C78.0541 39.8971 78.0027 39.9124 77.9324 39.9124H77.4354L78.1319 38.3778L76.5581 34.7359H77.1379C77.1957 34.7359 77.2408 34.7512 77.2735 34.7817C77.3086 34.8097 77.3325 34.8416 77.345 34.8772L78.3654 37.3127C78.4055 37.4196 78.4394 37.5316 78.467 37.6486C78.5022 37.529 78.5398 37.4158 78.58 37.3089L79.5703 34.8772C79.5853 34.8365 79.6104 34.8034 79.6456 34.7779C79.6832 34.7499 79.7246 34.7359 79.7698 34.7359H80.3007Z" fill="#0B0B0B"/>
<path d="M22.2684 43.2475C22.2457 43.2863 22.2206 43.316 22.193 43.3367C22.1678 43.3548 22.1364 43.3639 22.0987 43.3639C22.056 43.3639 22.0057 43.3419 21.9479 43.2979C21.8901 43.2539 21.8172 43.2061 21.7293 43.1544C21.6438 43.1 21.5395 43.0509 21.4164 43.0069C21.2958 42.963 21.1487 42.941 20.9753 42.941C20.812 42.941 20.6675 42.9642 20.5418 43.0108C20.4187 43.0548 20.3144 43.1156 20.2289 43.1932C20.146 43.2708 20.0832 43.3626 20.0404 43.4686C19.9977 43.5721 19.9764 43.6846 19.9764 43.8062C19.9764 43.9614 20.0128 44.0907 20.0857 44.1941C20.1611 44.295 20.2591 44.3817 20.3797 44.4541C20.5029 44.5265 20.6411 44.5899 20.7944 44.6442C20.9502 44.6959 21.1085 44.7503 21.2694 44.8072C21.4327 44.8641 21.5911 44.9287 21.7444 45.0012C21.9002 45.071 22.0384 45.1602 22.159 45.2689C22.2822 45.3775 22.3802 45.5107 22.4531 45.6685C22.5285 45.8263 22.5662 46.0202 22.5662 46.2505C22.5662 46.4936 22.5259 46.7225 22.4455 46.9372C22.3651 47.1493 22.247 47.3342 22.0912 47.492C21.9379 47.6498 21.7481 47.7739 21.5219 47.8645C21.2983 47.955 21.0432 48.0002 20.7567 48.0002C20.4049 48.0002 20.0857 47.9356 19.7992 47.8063C19.5127 47.6743 19.2677 47.4972 19.0641 47.2747L19.2752 46.9178C19.2953 46.8893 19.3192 46.866 19.3468 46.8479C19.377 46.8272 19.4096 46.8169 19.4448 46.8169C19.4775 46.8169 19.5139 46.8311 19.5542 46.8596C19.5969 46.8854 19.6446 46.9191 19.6974 46.9605C19.7502 47.0018 19.8105 47.0471 19.8783 47.0962C19.9462 47.1454 20.0229 47.1907 20.1083 47.232C20.1963 47.2734 20.2955 47.3083 20.4061 47.3368C20.5167 47.3627 20.6411 47.3756 20.7793 47.3756C20.9527 47.3756 21.1073 47.351 21.243 47.3019C21.3787 47.2527 21.493 47.1842 21.586 47.0962C21.6815 47.0057 21.7544 46.8984 21.8047 46.7742C21.8549 46.6501 21.8801 46.5117 21.8801 46.3591C21.8801 46.191 21.8424 46.0539 21.767 45.9478C21.6941 45.8392 21.5973 45.7487 21.4767 45.6762C21.3561 45.6038 21.2179 45.543 21.062 45.4939C20.9062 45.4422 20.7479 45.3904 20.5871 45.3387C20.4262 45.2844 20.2679 45.2223 20.1121 45.1525C19.9563 45.0826 19.818 44.9921 19.6974 44.8809C19.5768 44.7697 19.4788 44.6313 19.4034 44.4657C19.3305 44.2976 19.294 44.0907 19.294 43.845C19.294 43.6484 19.3305 43.4583 19.4034 43.2746C19.4788 43.091 19.5868 42.928 19.7276 42.7858C19.8708 42.6435 20.0455 42.5297 20.2515 42.4444C20.4601 42.359 20.6989 42.3163 20.9678 42.3163C21.2694 42.3163 21.5433 42.3655 21.7896 42.4638C22.0384 42.562 22.257 42.7043 22.4455 42.8905L22.2684 43.2475Z" fill="#0B0B0B"/>
<path d="M23.3595 47.9382V44.0079H23.7629C23.8584 44.0079 23.9174 44.0558 23.94 44.1515L23.9891 44.555C24.1298 44.3765 24.2881 44.2304 24.464 44.1166C24.64 44.0027 24.8435 43.9458 25.0747 43.9458C25.3311 43.9458 25.5384 44.0196 25.6967 44.167C25.8576 44.3144 25.9732 44.5136 26.0435 44.7645C26.0988 44.6222 26.1692 44.4994 26.2547 44.3959C26.3426 44.2924 26.4406 44.2071 26.5487 44.1398C26.6568 44.0726 26.7711 44.0234 26.8917 43.9924C27.0149 43.9614 27.1393 43.9458 27.2649 43.9458C27.466 43.9458 27.6444 43.9795 27.8002 44.0467C27.9586 44.1114 28.0918 44.2071 28.1998 44.3338C28.3104 44.4606 28.3946 44.617 28.4524 44.8033C28.5102 44.9869 28.5391 45.1977 28.5391 45.4357V47.9382H27.8643V45.4357C27.8643 45.1279 27.799 44.8951 27.6683 44.7373C27.5376 44.577 27.3491 44.4968 27.1028 44.4968C26.9923 44.4968 26.8867 44.5175 26.7862 44.5589C26.6882 44.5977 26.6015 44.6558 26.5261 44.7334C26.4507 44.811 26.3904 44.9093 26.3451 45.0283C26.3024 45.1447 26.281 45.2805 26.281 45.4357V47.9382H25.6063V45.4357C25.6063 45.1201 25.5447 44.8848 25.4215 44.7296C25.2984 44.5744 25.1187 44.4968 24.8825 44.4968C24.7166 44.4968 24.5633 44.5433 24.4226 44.6364C24.2818 44.727 24.1524 44.8511 24.0343 45.0089V47.9382H23.3595Z" fill="#0B0B0B"/>
<path d="M31.6285 46.169C31.3194 46.1793 31.0555 46.2052 30.8369 46.2466C30.6207 46.2854 30.4436 46.3371 30.3053 46.4018C30.1696 46.4664 30.0704 46.5427 30.0075 46.6307C29.9472 46.7186 29.9171 46.8169 29.9171 46.9255C29.9171 47.029 29.9334 47.1182 29.9661 47.1932C29.9987 47.2683 30.0427 47.3303 30.098 47.3795C30.1558 47.426 30.2224 47.461 30.2978 47.4842C30.3757 47.5049 30.4586 47.5153 30.5466 47.5153C30.6647 47.5153 30.7728 47.5036 30.8708 47.4804C30.9688 47.4545 31.0605 47.4183 31.146 47.3717C31.2339 47.3252 31.3169 47.2695 31.3948 47.2049C31.4752 47.1402 31.5531 47.0665 31.6285 46.9837V46.169ZM29.4609 44.5627C29.672 44.3532 29.8995 44.1967 30.1432 44.0933C30.387 43.9898 30.6572 43.9381 30.9537 43.9381C31.1673 43.9381 31.3571 43.9743 31.523 44.0467C31.6888 44.1191 31.8283 44.22 31.9414 44.3493C32.0545 44.4787 32.1399 44.6352 32.1977 44.8188C32.2555 45.0024 32.2844 45.2042 32.2844 45.4241V47.9382H31.9866C31.9213 47.9382 31.871 47.9278 31.8358 47.9071C31.8007 47.8839 31.773 47.8399 31.7529 47.7752L31.6775 47.4028C31.577 47.4985 31.479 47.5838 31.3835 47.6588C31.288 47.7312 31.1875 47.7933 31.0819 47.8451C30.9763 47.8942 30.8633 47.9317 30.7426 47.9576C30.6245 47.986 30.4926 48.0002 30.3468 48.0002C30.1985 48.0002 30.059 47.9796 29.9284 47.9382C29.7977 47.8942 29.6833 47.8295 29.5853 47.7442C29.4898 47.6588 29.4132 47.5515 29.3554 47.4222C29.3001 47.2902 29.2724 47.135 29.2724 46.9566C29.2724 46.8014 29.3139 46.6527 29.3968 46.5104C29.4798 46.3656 29.6142 46.2375 29.8002 46.1263C29.9862 46.0151 30.2287 45.9245 30.5278 45.8547C30.8268 45.7823 31.1937 45.7409 31.6285 45.7306V45.4241C31.6285 45.1188 31.5644 44.8886 31.4363 44.7334C31.3081 44.5757 31.1209 44.4968 30.8746 44.4968C30.7087 44.4968 30.5692 44.5188 30.4561 44.5627C30.3455 44.6041 30.2488 44.652 30.1659 44.7063C30.0854 44.758 30.0151 44.8059 29.9548 44.8498C29.897 44.8912 29.8391 44.9119 29.7813 44.9119C29.7361 44.9119 29.6972 44.9003 29.6645 44.877C29.6318 44.8511 29.6042 44.8201 29.5815 44.7839L29.4609 44.5627Z" fill="#0B0B0B"/>
<path d="M34.0002 42.2232V47.9382H33.3292V42.2232H34.0002Z" fill="#0B0B0B"/>
<path d="M35.782 42.2232V47.9382H35.111V42.2232H35.782Z" fill="#0B0B0B"/>
<path d="M40.8687 46.169C40.5596 46.1793 40.2957 46.2052 40.0771 46.2466C39.861 46.2854 39.6838 46.3371 39.5456 46.4018C39.4099 46.4664 39.3106 46.5427 39.2478 46.6307C39.1874 46.7186 39.1573 46.8169 39.1573 46.9255C39.1573 47.029 39.1736 47.1182 39.2063 47.1932C39.239 47.2683 39.2829 47.3303 39.3382 47.3795C39.396 47.426 39.4626 47.461 39.538 47.4842C39.6159 47.5049 39.6989 47.5153 39.7868 47.5153C39.9049 47.5153 40.013 47.5036 40.111 47.4804C40.209 47.4545 40.3008 47.4183 40.3862 47.3717C40.4742 47.3252 40.5571 47.2695 40.635 47.2049C40.7154 47.1402 40.7933 47.0665 40.8687 46.9837V46.169ZM38.7012 44.5627C38.9123 44.3532 39.1397 44.1967 39.3835 44.0933C39.6272 43.9898 39.8974 43.9381 40.194 43.9381C40.4076 43.9381 40.5973 43.9743 40.7632 44.0467C40.9291 44.1191 41.0685 44.22 41.1816 44.3493C41.2947 44.4787 41.3802 44.6352 41.438 44.8188C41.4958 45.0024 41.5247 45.2042 41.5247 45.4241V47.9382H41.2269C41.1615 47.9382 41.1113 47.9278 41.0761 47.9071C41.0409 47.8839 41.0132 47.8399 40.9931 47.7752L40.9177 47.4028C40.8172 47.4985 40.7192 47.5838 40.6237 47.6588C40.5282 47.7312 40.4277 47.7933 40.3221 47.8451C40.2166 47.8942 40.1035 47.9317 39.9829 47.9576C39.8647 47.986 39.7328 48.0002 39.587 48.0002C39.4388 48.0002 39.2993 47.9796 39.1686 47.9382C39.0379 47.8942 38.9236 47.8295 38.8256 47.7442C38.7301 47.6588 38.6534 47.5515 38.5956 47.4222C38.5403 47.2902 38.5127 47.135 38.5127 46.9566C38.5127 46.8014 38.5541 46.6527 38.6371 46.5104C38.72 46.3656 38.8545 46.2375 39.0404 46.1263C39.2264 46.0151 39.4689 45.9245 39.768 45.8547C40.067 45.7823 40.434 45.7409 40.8687 45.7306V45.4241C40.8687 45.1188 40.8047 44.8886 40.6765 44.7334C40.5483 44.5757 40.3611 44.4968 40.1148 44.4968C39.9489 44.4968 39.8095 44.5188 39.6964 44.5627C39.5858 44.6041 39.489 44.652 39.4061 44.7063C39.3257 44.758 39.2553 44.8059 39.195 44.8498C39.1372 44.8912 39.0794 44.9119 39.0216 44.9119C38.9763 44.9119 38.9374 44.9003 38.9047 44.877C38.872 44.8511 38.8444 44.8201 38.8218 44.7839L38.7012 44.5627Z" fill="#0B0B0B"/>
<path d="M43.1801 44.5783C43.263 44.4825 43.351 44.3959 43.444 44.3183C43.537 44.2407 43.635 44.1748 43.738 44.1204C43.8436 44.0635 43.9542 44.0209 44.0698 43.9924C44.1879 43.9614 44.3148 43.9458 44.4505 43.9458C44.6591 43.9458 44.8426 43.9821 45.0009 44.0545C45.1617 44.1243 45.2949 44.2252 45.4005 44.3571C45.5085 44.4864 45.5902 44.6429 45.6455 44.8266C45.7008 45.0102 45.7284 45.2132 45.7284 45.4357V47.9382H45.0537V45.4357C45.0537 45.1382 44.9871 44.908 44.8539 44.7451C44.7232 44.5795 44.5234 44.4968 44.2545 44.4968C44.0559 44.4968 43.87 44.5459 43.6966 44.6442C43.5257 44.7425 43.3673 44.8757 43.2216 45.0438V47.9382H42.5468V44.0079H42.9502C43.0457 44.0079 43.1047 44.0558 43.1273 44.1515L43.1801 44.5783Z" fill="#0B0B0B"/>
<path d="M49.2389 44.943C49.1133 44.7697 48.9776 44.6494 48.8318 44.5821C48.686 44.5123 48.5227 44.4774 48.3417 44.4774C47.9874 44.4774 47.7147 44.608 47.5237 44.8692C47.3327 45.1305 47.2372 45.5029 47.2372 45.9866C47.2372 46.2427 47.2586 46.4625 47.3013 46.6462C47.344 46.8272 47.4069 46.9773 47.4898 47.0962C47.5727 47.2126 47.6745 47.298 47.7951 47.3523C47.9158 47.4066 48.0527 47.4338 48.206 47.4338C48.4272 47.4338 48.6194 47.3821 48.7828 47.2786C48.9487 47.1751 49.1007 47.029 49.2389 46.8402V44.943ZM49.9099 42.2232V47.9382H49.5104C49.4149 47.9382 49.3545 47.8903 49.3294 47.7946L49.2691 47.3174C49.1057 47.5191 48.9198 47.6821 48.7112 47.8063C48.5026 47.9304 48.2613 47.9925 47.9874 47.9925C47.7687 47.9925 47.5702 47.9498 47.3918 47.8645C47.2133 47.7765 47.0613 47.6485 46.9356 47.4804C46.81 47.3122 46.7132 47.1027 46.6454 46.8518C46.5775 46.6009 46.5436 46.3125 46.5436 45.9866C46.5436 45.6969 46.5813 45.4279 46.6567 45.1796C46.7321 44.9287 46.8401 44.7115 46.9809 44.5278C47.1216 44.3442 47.2938 44.2006 47.4973 44.0972C47.7034 43.9911 47.9346 43.9381 48.191 43.9381C48.4247 43.9381 48.6245 43.9795 48.7903 44.0622C48.9587 44.1424 49.1083 44.2549 49.2389 44.3998V42.2232H49.9099Z" fill="#0B0B0B"/>
<path d="M58.6778 42.3784V47.9382H58.0369V43.8527C58.0369 43.7984 58.0382 43.7402 58.0407 43.6781C58.0457 43.6161 58.0508 43.5527 58.0558 43.488L56.2011 46.9643C56.1433 47.0807 56.0553 47.1389 55.9372 47.1389H55.8316C55.7135 47.1389 55.6256 47.0807 55.5678 46.9643L53.6754 43.4725C53.6904 43.6096 53.698 43.7363 53.698 43.8527V47.9382H53.0571V42.3784H53.5962C53.6615 42.3784 53.7118 42.3849 53.747 42.3978C53.7822 42.4107 53.8161 42.4469 53.8488 42.5064L55.7148 45.9284C55.7449 45.9905 55.7738 46.0552 55.8015 46.1224C55.8316 46.1897 55.8593 46.2582 55.8844 46.328C55.9096 46.2582 55.9359 46.1897 55.9636 46.1224C55.9912 46.0526 56.0214 45.9866 56.0541 45.9245L57.8861 42.5064C57.9163 42.4469 57.949 42.4107 57.9842 42.3978C58.0219 42.3849 58.0734 42.3784 58.1387 42.3784H58.6778Z" fill="#0B0B0B"/>
<path d="M60.5506 44.0079V47.9382H59.8796V44.0079H60.5506ZM60.6938 42.7741C60.6938 42.8414 60.68 42.9048 60.6524 42.9642C60.6272 43.0212 60.592 43.0729 60.5468 43.1194C60.5041 43.1634 60.4526 43.1983 60.3922 43.2242C60.3344 43.2501 60.2729 43.263 60.2075 43.263C60.1422 43.263 60.0806 43.2501 60.0228 43.2242C59.9675 43.1983 59.9185 43.1634 59.8758 43.1194C59.8331 43.0729 59.7991 43.0212 59.774 42.9642C59.7489 42.9048 59.7363 42.8414 59.7363 42.7741C59.7363 42.7069 59.7489 42.6435 59.774 42.584C59.7991 42.522 59.8331 42.4689 59.8758 42.425C59.9185 42.3784 59.9675 42.3422 60.0228 42.3163C60.0806 42.2905 60.1422 42.2775 60.2075 42.2775C60.2729 42.2775 60.3344 42.2905 60.3922 42.3163C60.4526 42.3422 60.5041 42.3784 60.5468 42.425C60.592 42.4689 60.6272 42.522 60.6524 42.584C60.68 42.6435 60.6938 42.7069 60.6938 42.7741Z" fill="#0B0B0B"/>
<path d="M64.1411 44.943C64.0155 44.7697 63.8797 44.6494 63.734 44.5821C63.5882 44.5123 63.4249 44.4774 63.2439 44.4774C62.8896 44.4774 62.6169 44.608 62.4259 44.8692C62.2349 45.1305 62.1394 45.5029 62.1394 45.9866C62.1394 46.2427 62.1608 46.4625 62.2035 46.6462C62.2462 46.8272 62.309 46.9773 62.392 47.0962C62.4749 47.2126 62.5767 47.298 62.6973 47.3523C62.8179 47.4066 62.9549 47.4338 63.1082 47.4338C63.3294 47.4338 63.5216 47.3821 63.685 47.2786C63.8508 47.1751 64.0029 47.029 64.1411 46.8402V44.943ZM64.8121 42.2232V47.9382H64.4125C64.317 47.9382 64.2567 47.8903 64.2316 47.7946L64.1713 47.3174C64.0079 47.5191 63.8219 47.6821 63.6134 47.8063C63.4048 47.9304 63.1635 47.9925 62.8896 47.9925C62.6709 47.9925 62.4724 47.9498 62.294 47.8645C62.1155 47.7765 61.9635 47.6485 61.8378 47.4804C61.7122 47.3122 61.6154 47.1027 61.5475 46.8518C61.4797 46.6009 61.4458 46.3125 61.4458 45.9866C61.4458 45.6969 61.4835 45.4279 61.5589 45.1796C61.6343 44.9287 61.7423 44.7115 61.8831 44.5278C62.0238 44.3442 62.1959 44.2006 62.3995 44.0972C62.6056 43.9911 62.8368 43.9381 63.0931 43.9381C63.3269 43.9381 63.5266 43.9795 63.6925 44.0622C63.8609 44.1424 64.0104 44.2549 64.1411 44.3998V42.2232H64.8121Z" fill="#0B0B0B"/>
<path d="M65.8719 47.9382V44.0079H66.2753C66.3708 44.0079 66.4299 44.0558 66.4525 44.1515L66.5015 44.555C66.6422 44.3765 66.8006 44.2304 66.9765 44.1166C67.1524 44.0027 67.356 43.9458 67.5872 43.9458C67.8435 43.9458 68.0508 44.0196 68.2092 44.167C68.37 44.3144 68.4856 44.5136 68.556 44.7645C68.6113 44.6222 68.6816 44.4994 68.7671 44.3959C68.8551 44.2924 68.9531 44.2071 69.0611 44.1398C69.1692 44.0726 69.2835 44.0234 69.4042 43.9924C69.5273 43.9614 69.6517 43.9458 69.7774 43.9458C69.9784 43.9458 70.1569 43.9795 70.3127 44.0467C70.471 44.1114 70.6042 44.2071 70.7123 44.3338C70.8228 44.4606 70.907 44.617 70.9648 44.8033C71.0226 44.9869 71.0515 45.1977 71.0515 45.4357V47.9382H70.3768V45.4357C70.3768 45.1279 70.3114 44.8951 70.1807 44.7373C70.0501 44.577 69.8616 44.4968 69.6153 44.4968C69.5047 44.4968 69.3991 44.5175 69.2986 44.5589C69.2006 44.5977 69.1139 44.6558 69.0385 44.7334C68.9631 44.811 68.9028 44.9093 68.8576 45.0283C68.8148 45.1447 68.7935 45.2805 68.7935 45.4357V47.9382H68.1187V45.4357C68.1187 45.1201 68.0571 44.8848 67.934 44.7296C67.8108 44.5744 67.6311 44.4968 67.3949 44.4968C67.229 44.4968 67.0757 44.5433 66.935 44.6364C66.7943 44.727 66.6648 44.8511 66.5467 45.0089V47.9382H65.8719Z" fill="#0B0B0B"/>
<path d="M74.141 46.169C73.8318 46.1793 73.568 46.2052 73.3493 46.2466C73.1332 46.2854 72.956 46.3371 72.8178 46.4018C72.6821 46.4664 72.5828 46.5427 72.52 46.6307C72.4597 46.7186 72.4295 46.8169 72.4295 46.9255C72.4295 47.029 72.4458 47.1182 72.4785 47.1932C72.5112 47.2683 72.5552 47.3303 72.6104 47.3795C72.6682 47.426 72.7348 47.461 72.8102 47.4842C72.8881 47.5049 72.9711 47.5153 73.059 47.5153C73.1772 47.5153 73.2852 47.5036 73.3832 47.4804C73.4813 47.4545 73.573 47.4183 73.6584 47.3717C73.7464 47.3252 73.8293 47.2695 73.9072 47.2049C73.9876 47.1402 74.0656 47.0665 74.141 46.9837V46.169ZM71.9734 44.5627C72.1845 44.3532 72.4119 44.1967 72.6557 44.0933C72.8995 43.9898 73.1696 43.9381 73.4662 43.9381C73.6798 43.9381 73.8695 43.9743 74.0354 44.0467C74.2013 44.1191 74.3407 44.22 74.4538 44.3493C74.5669 44.4787 74.6524 44.6352 74.7102 44.8188C74.768 45.0024 74.7969 45.2042 74.7969 45.4241V47.9382H74.4991C74.4337 47.9382 74.3835 47.9278 74.3483 47.9071C74.3131 47.8839 74.2855 47.8399 74.2654 47.7752L74.19 47.4028C74.0894 47.4985 73.9914 47.5838 73.8959 47.6588C73.8004 47.7312 73.6999 47.7933 73.5943 47.8451C73.4888 47.8942 73.3757 47.9317 73.2551 47.9576C73.137 47.986 73.005 48.0002 72.8592 48.0002C72.711 48.0002 72.5715 47.9796 72.4408 47.9382C72.3101 47.8942 72.1958 47.8295 72.0978 47.7442C72.0023 47.6588 71.9256 47.5515 71.8678 47.4222C71.8125 47.2902 71.7849 47.135 71.7849 46.9566C71.7849 46.8014 71.8263 46.6527 71.9093 46.5104C71.9922 46.3656 72.1267 46.2375 72.3126 46.1263C72.4986 46.0151 72.7411 45.9245 73.0402 45.8547C73.3393 45.7823 73.7062 45.7409 74.141 45.7306V45.4241C74.141 45.1188 74.0769 44.8886 73.9487 44.7334C73.8205 44.5757 73.6333 44.4968 73.387 44.4968C73.2211 44.4968 73.0817 44.5188 72.9686 44.5627C72.858 44.6041 72.7612 44.652 72.6783 44.7063C72.5979 44.758 72.5275 44.8059 72.4672 44.8498C72.4094 44.8912 72.3516 44.9119 72.2938 44.9119C72.2486 44.9119 72.2096 44.9003 72.1769 44.877C72.1443 44.8511 72.1166 44.8201 72.094 44.7839L71.9734 44.5627Z" fill="#0B0B0B"/>
<path d="M76.4561 44.7955C76.5767 44.5265 76.725 44.317 76.9009 44.167C77.0768 44.0144 77.2917 43.9381 77.5455 43.9381C77.626 43.9381 77.7026 43.9471 77.7755 43.9652C77.8509 43.9833 77.9175 44.0118 77.9753 44.0506L77.9263 44.5666C77.9112 44.6313 77.8735 44.6636 77.8132 44.6636C77.778 44.6636 77.7265 44.6558 77.6586 44.6403C77.5908 44.6248 77.5141 44.617 77.4287 44.617C77.308 44.617 77.2 44.6352 77.1045 44.6714C77.0115 44.7076 76.9273 44.7619 76.8519 44.8343C76.779 44.9042 76.7124 44.9921 76.6521 45.0981C76.5943 45.2016 76.5415 45.3206 76.4938 45.4551V47.9382H75.819V44.0079H76.2035C76.2764 44.0079 76.3267 44.0221 76.3543 44.0506C76.382 44.079 76.4008 44.1282 76.4109 44.198L76.4561 44.7955Z" fill="#0B0B0B"/>
<path d="M79.2401 42.2232V45.587H79.4135C79.4638 45.587 79.5052 45.5805 79.5379 45.5676C79.5731 45.5521 79.6095 45.5223 79.6472 45.4784L80.8535 44.1476C80.8887 44.1036 80.9252 44.07 80.9628 44.0467C81.0031 44.0209 81.0558 44.0079 81.1212 44.0079H81.7281L80.322 45.5482C80.2541 45.6361 80.1813 45.7047 80.1034 45.7538C80.1486 45.7849 80.1888 45.8211 80.224 45.8625C80.2617 45.9013 80.2969 45.9465 80.3295 45.9983L81.8223 47.9382H81.223C81.1652 47.9382 81.1149 47.9291 81.0722 47.911C81.032 47.8903 80.9968 47.8541 80.9666 47.8024L79.7113 46.1923C79.6736 46.1379 79.6359 46.103 79.5982 46.0875C79.563 46.0694 79.5077 46.0603 79.4323 46.0603H79.2401V47.9382H78.5653V42.2232H79.2401Z" fill="#0B0B0B"/>
<path d="M84.7363 45.5443C84.7363 45.384 84.7137 45.2378 84.6684 45.1059C84.6257 44.9714 84.5616 44.8563 84.4762 44.7606C84.3932 44.6623 84.2915 44.5873 84.1708 44.5356C84.0502 44.4813 83.9132 44.4541 83.7599 44.4541C83.4382 44.4541 83.1832 44.5511 82.9947 44.7451C82.8087 44.9365 82.6931 45.2029 82.6479 45.5443H84.7363ZM85.2791 47.3872C85.1962 47.4907 85.0969 47.5812 84.9813 47.6588C84.8657 47.7338 84.7413 47.7959 84.6081 47.8451C84.4774 47.8942 84.3417 47.9304 84.201 47.9537C84.0602 47.9796 83.9208 47.9925 83.7825 47.9925C83.5187 47.9925 83.2749 47.9472 83.0512 47.8567C82.8301 47.7636 82.6378 47.6291 82.4744 47.4532C82.3136 47.2747 82.188 47.0549 82.0975 46.7936C82.007 46.5324 81.9618 46.2323 81.9618 45.8935C81.9618 45.6193 82.002 45.3633 82.0824 45.1253C82.1653 44.8873 82.2835 44.6817 82.4368 44.5084C82.5901 44.3325 82.7773 44.1954 82.9984 44.0972C83.2196 43.9963 83.4684 43.9458 83.7448 43.9458C83.9735 43.9458 84.1846 43.9859 84.3782 44.0661C84.5742 44.1437 84.7426 44.2575 84.8833 44.4075C85.0266 44.555 85.1384 44.7386 85.2188 44.9585C85.2992 45.1757 85.3394 45.4241 85.3394 45.7034C85.3394 45.812 85.3281 45.8845 85.3055 45.9207C85.2829 45.9569 85.2402 45.975 85.1773 45.975H82.6252C82.6328 46.2233 82.6655 46.4393 82.7233 46.6229C82.7836 46.8066 82.8665 46.9605 82.9721 47.0846C83.0776 47.2062 83.2033 47.298 83.349 47.3601C83.4948 47.4196 83.6581 47.4493 83.8391 47.4493C84.0075 47.4493 84.152 47.4299 84.2726 47.3911C84.3958 47.3497 84.5013 47.3058 84.5893 47.2592C84.6772 47.2126 84.7501 47.17 84.8079 47.1312C84.8682 47.0898 84.9197 47.0691 84.9625 47.0691C85.0178 47.0691 85.0605 47.0911 85.0906 47.135L85.2791 47.3872Z" fill="#0B0B0B"/>
<path d="M87.3066 48.0002C87.005 48.0002 86.7725 47.9136 86.6092 47.7403C86.4483 47.567 86.3679 47.3174 86.3679 46.9915V44.586H85.908C85.8678 44.586 85.8339 44.5744 85.8062 44.5511C85.7786 44.5252 85.7648 44.4864 85.7648 44.4347V44.1592L86.3905 44.0778L86.5451 42.8634C86.5526 42.8246 86.569 42.7935 86.5941 42.7703C86.6218 42.7444 86.6569 42.7315 86.6997 42.7315H87.0389V44.0855H88.1435V44.586H87.0389V46.9449C87.0389 47.1105 87.0779 47.2333 87.1558 47.3135C87.2337 47.3937 87.3342 47.4338 87.4574 47.4338C87.5277 47.4338 87.5881 47.4247 87.6383 47.4066C87.6911 47.3859 87.7363 47.364 87.774 47.3407C87.8117 47.3174 87.8431 47.2967 87.8683 47.2786C87.8959 47.2579 87.9198 47.2476 87.9399 47.2476C87.9751 47.2476 88.0065 47.2695 88.0341 47.3135L88.2302 47.6433C88.1146 47.7545 87.9751 47.8425 87.8117 47.9071C87.6484 47.9692 87.48 48.0002 87.3066 48.0002Z" fill="#0B0B0B"/>
<path d="M94.716 46.7897C94.7562 46.7897 94.7914 46.8066 94.8216 46.8402L95.1118 47.1622C94.8907 47.426 94.6218 47.6317 94.3051 47.7791C93.991 47.9265 93.6102 48.0002 93.1629 48.0002C92.7759 48.0002 92.424 47.9317 92.1074 47.7946C91.7907 47.6549 91.5206 47.461 91.2969 47.2126C91.0732 46.9617 90.8998 46.6617 90.7767 46.3125C90.6535 45.9633 90.592 45.5792 90.592 45.1602C90.592 44.7412 90.656 44.3571 90.7842 44.0079C90.9124 43.6587 91.0921 43.3587 91.3233 43.1078C91.557 42.8569 91.836 42.6629 92.1602 42.5258C92.4844 42.3862 92.8425 42.3163 93.2345 42.3163C93.619 42.3163 93.9583 42.3797 94.2523 42.5064C94.5464 42.6332 94.8052 42.8052 95.0289 43.0224L94.7877 43.3677C94.7726 43.3936 94.7525 43.4156 94.7273 43.4337C94.7047 43.4492 94.6733 43.457 94.6331 43.457C94.5879 43.457 94.5326 43.4324 94.4672 43.3833C94.4019 43.3315 94.3164 43.2746 94.2109 43.2126C94.1053 43.1505 93.9734 43.0949 93.8151 43.0457C93.6567 42.994 93.462 42.9681 93.2308 42.9681C92.9518 42.9681 92.6967 43.0186 92.4655 43.1194C92.2343 43.2177 92.0345 43.3613 91.8661 43.5501C91.7003 43.7389 91.5708 43.9691 91.4778 44.2407C91.3849 44.5123 91.3384 44.8188 91.3384 45.1602C91.3384 45.5068 91.3861 45.8159 91.4816 46.0875C91.5796 46.3591 91.7116 46.5893 91.8774 46.7781C92.0458 46.9643 92.2431 47.1066 92.4693 47.2049C92.698 47.3032 92.9443 47.3523 93.2081 47.3523C93.369 47.3523 93.5135 47.3433 93.6417 47.3252C93.7723 47.3045 93.8917 47.2734 93.9998 47.232C94.1104 47.1907 94.2121 47.1389 94.3051 47.0768C94.4006 47.0122 94.4949 46.9359 94.5879 46.8479C94.6306 46.8091 94.6733 46.7897 94.716 46.7897Z" fill="#0B0B0B"/>
<path d="M96.4951 42.2232V47.9382H95.8241V42.2232H96.4951Z" fill="#0B0B0B"/>
<path d="M99.1929 43.9458C99.4719 43.9458 99.7232 43.9937 99.9469 44.0894C100.171 44.1851 100.362 44.3209 100.52 44.4968C100.678 44.6727 100.799 44.886 100.882 45.1369C100.967 45.3853 101.01 45.6633 101.01 45.9711C101.01 46.2815 100.967 46.5608 100.882 46.8091C100.799 47.0575 100.678 47.2695 100.52 47.4454C100.362 47.6213 100.171 47.7571 99.9469 47.8528C99.7232 47.9459 99.4719 47.9925 99.1929 47.9925C98.9115 47.9925 98.6576 47.9459 98.4314 47.8528C98.2078 47.7571 98.0168 47.6213 97.8584 47.4454C97.7001 47.2695 97.5782 47.0575 97.4928 46.8091C97.4099 46.5608 97.3684 46.2815 97.3684 45.9711C97.3684 45.6633 97.4099 45.3853 97.4928 45.1369C97.5782 44.886 97.7001 44.6727 97.8584 44.4968C98.0168 44.3209 98.2078 44.1851 98.4314 44.0894C98.6576 43.9937 98.9115 43.9458 99.1929 43.9458ZM99.1929 47.4532C99.5699 47.4532 99.8514 47.3239 100.037 47.0652C100.223 46.804 100.316 46.4406 100.316 45.975C100.316 45.5068 100.223 45.1421 100.037 44.8809C99.8514 44.6196 99.5699 44.489 99.1929 44.489C99.0019 44.489 98.8348 44.5226 98.6916 44.5899C98.5508 44.6571 98.4327 44.7541 98.3372 44.8809C98.2442 45.0076 98.1739 45.1641 98.1261 45.3503C98.0809 45.534 98.0582 45.7422 98.0582 45.975C98.0582 46.4406 98.1512 46.804 98.3372 47.0652C98.5257 47.3239 98.8109 47.4532 99.1929 47.4532Z" fill="#0B0B0B"/>
<path d="M105.001 44.0079V47.9382H104.602C104.506 47.9382 104.446 47.8903 104.421 47.7946L104.368 47.3717C104.202 47.5605 104.016 47.7131 103.81 47.8295C103.604 47.9433 103.368 48.0002 103.101 48.0002C102.893 48.0002 102.708 47.9653 102.547 47.8955C102.389 47.8231 102.256 47.7222 102.148 47.5929C102.039 47.4635 101.958 47.3071 101.902 47.1234C101.85 46.9398 101.823 46.7367 101.823 46.5143V44.0079H102.494V46.5143C102.494 46.8117 102.56 47.0419 102.69 47.2049C102.824 47.3678 103.026 47.4493 103.297 47.4493C103.496 47.4493 103.681 47.4015 103.851 47.3058C104.025 47.2075 104.184 47.073 104.33 46.9023V44.0079H105.001Z" fill="#0B0B0B"/>
<path d="M108.553 44.943C108.427 44.7697 108.292 44.6494 108.146 44.5821C108 44.5123 107.837 44.4774 107.656 44.4774C107.302 44.4774 107.029 44.608 106.838 44.8692C106.647 45.1305 106.551 45.5029 106.551 45.9866C106.551 46.2427 106.573 46.4625 106.616 46.6462C106.658 46.8272 106.721 46.9773 106.804 47.0962C106.887 47.2126 106.989 47.298 107.109 47.3523C107.23 47.4066 107.367 47.4338 107.52 47.4338C107.741 47.4338 107.934 47.3821 108.097 47.2786C108.263 47.1751 108.415 47.029 108.553 46.8402V44.943ZM109.224 42.2232V47.9382H108.825C108.729 47.9382 108.669 47.8903 108.644 47.7946L108.583 47.3174C108.42 47.5191 108.234 47.6821 108.025 47.8063C107.817 47.9304 107.576 47.9925 107.302 47.9925C107.083 47.9925 106.884 47.9498 106.706 47.8645C106.528 47.7765 106.376 47.6485 106.25 47.4804C106.124 47.3122 106.027 47.1027 105.96 46.8518C105.892 46.6009 105.858 46.3125 105.858 45.9866C105.858 45.6969 105.895 45.4279 105.971 45.1796C106.046 44.9287 106.154 44.7115 106.295 44.5278C106.436 44.3442 106.608 44.2006 106.812 44.0972C107.018 43.9911 107.249 43.9381 107.505 43.9381C107.739 43.9381 107.939 43.9795 108.105 44.0622C108.273 44.1424 108.422 44.2549 108.553 44.3998V42.2232H109.224Z" fill="#0B0B0B"/>
<path d="M115.135 43.2475C115.112 43.2863 115.087 43.316 115.059 43.3367C115.034 43.3548 115.003 43.3639 114.965 43.3639C114.922 43.3639 114.872 43.3419 114.814 43.2979C114.756 43.2539 114.683 43.2061 114.595 43.1544C114.51 43.1 114.406 43.0509 114.283 43.0069C114.162 42.963 114.015 42.941 113.842 42.941C113.678 42.941 113.534 42.9642 113.408 43.0108C113.285 43.0548 113.181 43.1156 113.095 43.1932C113.012 43.2708 112.949 43.3626 112.907 43.4686C112.864 43.5721 112.843 43.6846 112.843 43.8062C112.843 43.9614 112.879 44.0907 112.952 44.1941C113.027 44.295 113.125 44.3817 113.246 44.4541C113.369 44.5265 113.507 44.5899 113.661 44.6442C113.816 44.6959 113.975 44.7503 114.136 44.8072C114.299 44.8641 114.457 44.9287 114.611 45.0012C114.766 45.071 114.905 45.1602 115.025 45.2689C115.148 45.3775 115.246 45.5107 115.319 45.6685C115.395 45.8263 115.432 46.0202 115.432 46.2505C115.432 46.4936 115.392 46.7225 115.312 46.9372C115.231 47.1493 115.113 47.3342 114.957 47.492C114.804 47.6498 114.614 47.7739 114.388 47.8645C114.164 47.955 113.909 48.0002 113.623 48.0002C113.271 48.0002 112.952 47.9356 112.665 47.8063C112.379 47.6743 112.134 47.4972 111.93 47.2747L112.141 46.9178C112.161 46.8893 112.185 46.866 112.213 46.8479C112.243 46.8272 112.276 46.8169 112.311 46.8169C112.344 46.8169 112.38 46.8311 112.42 46.8596C112.463 46.8854 112.511 46.9191 112.564 46.9605C112.616 47.0018 112.677 47.0471 112.745 47.0962C112.812 47.1454 112.889 47.1907 112.975 47.232C113.062 47.2734 113.162 47.3083 113.272 47.3368C113.383 47.3627 113.507 47.3756 113.646 47.3756C113.819 47.3756 113.973 47.351 114.109 47.3019C114.245 47.2527 114.359 47.1842 114.452 47.0962C114.548 47.0057 114.621 46.8984 114.671 46.7742C114.721 46.6501 114.746 46.5117 114.746 46.3591C114.746 46.191 114.709 46.0539 114.633 45.9478C114.56 45.8392 114.464 45.7487 114.343 45.6762C114.222 45.6038 114.084 45.543 113.928 45.4939C113.772 45.4422 113.614 45.3904 113.453 45.3387C113.292 45.2844 113.134 45.2223 112.978 45.1525C112.822 45.0826 112.684 44.9921 112.564 44.8809C112.443 44.7697 112.345 44.6313 112.27 44.4657C112.197 44.2976 112.16 44.0907 112.16 43.845C112.16 43.6484 112.197 43.4583 112.27 43.2746C112.345 43.091 112.453 42.928 112.594 42.7858C112.737 42.6435 112.912 42.5297 113.118 42.4444C113.326 42.359 113.565 42.3163 113.834 42.3163C114.136 42.3163 114.41 42.3655 114.656 42.4638C114.905 42.562 115.123 42.7043 115.312 42.8905L115.135 43.2475Z" fill="#0B0B0B"/>
<path d="M117.894 43.9458C118.173 43.9458 118.425 43.9937 118.648 44.0894C118.872 44.1851 119.063 44.3209 119.221 44.4968C119.38 44.6727 119.5 44.886 119.583 45.1369C119.669 45.3853 119.711 45.6633 119.711 45.9711C119.711 46.2815 119.669 46.5608 119.583 46.8091C119.5 47.0575 119.38 47.2695 119.221 47.4454C119.063 47.6213 118.872 47.7571 118.648 47.8528C118.425 47.9459 118.173 47.9925 117.894 47.9925C117.613 47.9925 117.359 47.9459 117.133 47.8528C116.909 47.7571 116.718 47.6213 116.56 47.4454C116.401 47.2695 116.28 47.0575 116.194 46.8091C116.111 46.5608 116.07 46.2815 116.07 45.9711C116.07 45.6633 116.111 45.3853 116.194 45.1369C116.28 44.886 116.401 44.6727 116.56 44.4968C116.718 44.3209 116.909 44.1851 117.133 44.0894C117.359 43.9937 117.613 43.9458 117.894 43.9458ZM117.894 47.4532C118.271 47.4532 118.553 47.3239 118.739 47.0652C118.925 46.804 119.018 46.4406 119.018 45.975C119.018 45.5068 118.925 45.1421 118.739 44.8809C118.553 44.6196 118.271 44.489 117.894 44.489C117.703 44.489 117.536 44.5226 117.393 44.5899C117.252 44.6571 117.134 44.7541 117.039 44.8809C116.946 45.0076 116.875 45.1641 116.827 45.3503C116.782 45.534 116.76 45.7422 116.76 45.975C116.76 46.4406 116.853 46.804 117.039 47.0652C117.227 47.3239 117.512 47.4532 117.894 47.4532Z" fill="#0B0B0B"/>
<path d="M121.256 42.2232V47.9382H120.585V42.2232H121.256Z" fill="#0B0B0B"/>
<path d="M125.484 44.0079V47.9382H125.085C124.989 47.9382 124.929 47.8903 124.904 47.7946L124.851 47.3717C124.685 47.5605 124.499 47.7131 124.293 47.8295C124.087 47.9433 123.851 48.0002 123.584 48.0002C123.376 48.0002 123.191 47.9653 123.03 47.8955C122.872 47.8231 122.739 47.7222 122.631 47.5929C122.523 47.4635 122.441 47.3071 122.386 47.1234C122.333 46.9398 122.306 46.7367 122.306 46.5143V44.0079H122.977V46.5143C122.977 46.8117 123.043 47.0419 123.173 47.2049C123.307 47.3678 123.509 47.4493 123.78 47.4493C123.979 47.4493 124.164 47.4015 124.335 47.3058C124.508 47.2075 124.668 47.073 124.813 46.9023V44.0079H125.484Z" fill="#0B0B0B"/>
<path d="M130.092 47.9382H129.421V44.586H127.453V46.9449C127.453 47.1105 127.492 47.2333 127.57 47.3135C127.648 47.3937 127.748 47.4338 127.871 47.4338C127.942 47.4338 128.002 47.4247 128.052 47.4066C128.105 47.3859 128.15 47.364 128.188 47.3407C128.226 47.3174 128.257 47.2967 128.282 47.2786C128.31 47.2579 128.334 47.2476 128.354 47.2476C128.389 47.2476 128.421 47.2695 128.448 47.3135L128.644 47.6433C128.529 47.7545 128.389 47.8425 128.226 47.9071C128.062 47.9692 127.894 48.0002 127.721 48.0002C127.419 48.0002 127.187 47.9136 127.023 47.7403C126.862 47.567 126.782 47.3174 126.782 46.9915V44.586H126.322C126.282 44.586 126.248 44.5744 126.22 44.5511C126.193 44.5252 126.179 44.4864 126.179 44.4347V44.1592L126.805 44.0739L126.959 42.8634C126.967 42.8246 126.983 42.7935 127.008 42.7703C127.036 42.7444 127.071 42.7315 127.114 42.7315H127.453V44.0855H130.092V47.9382ZM130.258 42.747C130.258 42.8142 130.244 42.8776 130.216 42.9371C130.191 42.994 130.156 43.0444 130.111 43.0884C130.068 43.1324 130.018 43.1673 129.96 43.1932C129.902 43.219 129.84 43.232 129.775 43.232C129.71 43.232 129.648 43.219 129.59 43.1932C129.535 43.1673 129.486 43.1324 129.443 43.0884C129.401 43.0444 129.367 42.994 129.342 42.9371C129.316 42.8776 129.304 42.8142 129.304 42.747C129.304 42.6797 129.316 42.6164 129.342 42.5569C129.367 42.4948 129.401 42.4418 129.443 42.3978C129.486 42.3512 129.535 42.315 129.59 42.2892C129.648 42.2633 129.71 42.2504 129.775 42.2504C129.84 42.2504 129.902 42.2633 129.96 42.2892C130.018 42.315 130.068 42.3512 130.111 42.3978C130.156 42.4418 130.191 42.4948 130.216 42.5569C130.244 42.6164 130.258 42.6797 130.258 42.747Z" fill="#0B0B0B"/>
<path d="M132.804 43.9458C133.083 43.9458 133.334 43.9937 133.558 44.0894C133.781 44.1851 133.972 44.3209 134.131 44.4968C134.289 44.6727 134.41 44.886 134.493 45.1369C134.578 45.3853 134.621 45.6633 134.621 45.9711C134.621 46.2815 134.578 46.5608 134.493 46.8091C134.41 47.0575 134.289 47.2695 134.131 47.4454C133.972 47.6213 133.781 47.7571 133.558 47.8528C133.334 47.9459 133.083 47.9925 132.804 47.9925C132.522 47.9925 132.269 47.9459 132.042 47.8528C131.819 47.7571 131.628 47.6213 131.469 47.4454C131.311 47.2695 131.189 47.0575 131.104 46.8091C131.021 46.5608 130.979 46.2815 130.979 45.9711C130.979 45.6633 131.021 45.3853 131.104 45.1369C131.189 44.886 131.311 44.6727 131.469 44.4968C131.628 44.3209 131.819 44.1851 132.042 44.0894C132.269 43.9937 132.522 43.9458 132.804 43.9458ZM132.804 47.4532C133.181 47.4532 133.462 47.3239 133.648 47.0652C133.834 46.804 133.927 46.4406 133.927 45.975C133.927 45.5068 133.834 45.1421 133.648 44.8809C133.462 44.6196 133.181 44.489 132.804 44.489C132.613 44.489 132.446 44.5226 132.302 44.5899C132.162 44.6571 132.044 44.7541 131.948 44.8809C131.855 45.0076 131.785 45.1641 131.737 45.3503C131.692 45.534 131.669 45.7422 131.669 45.975C131.669 46.4406 131.762 46.804 131.948 47.0652C132.137 47.3239 132.422 47.4532 132.804 47.4532Z" fill="#0B0B0B"/>
<path d="M136.105 44.5783C136.188 44.4825 136.276 44.3959 136.369 44.3183C136.462 44.2407 136.56 44.1748 136.663 44.1204C136.769 44.0635 136.879 44.0209 136.995 43.9924C137.113 43.9614 137.24 43.9458 137.376 43.9458C137.584 43.9458 137.768 43.9821 137.926 44.0545C138.087 44.1243 138.22 44.2252 138.326 44.3571C138.434 44.4864 138.515 44.6429 138.571 44.8266C138.626 45.0102 138.654 45.2132 138.654 45.4357V47.9382H137.979V45.4357C137.979 45.1382 137.912 44.908 137.779 44.7451C137.648 44.5795 137.448 44.4968 137.18 44.4968C136.981 44.4968 136.795 44.5459 136.622 44.6442C136.451 44.7425 136.292 44.8757 136.147 45.0438V47.9382H135.472V44.0079H135.875C135.971 44.0079 136.03 44.0558 136.052 44.1515L136.105 44.5783Z" fill="#0B0B0B"/>
<path d="M141.9 44.6558C141.87 44.7128 141.824 44.7412 141.761 44.7412C141.723 44.7412 141.68 44.727 141.633 44.6985C141.585 44.6701 141.526 44.639 141.455 44.6054C141.387 44.5692 141.306 44.5369 141.21 44.5084C141.115 44.4774 141.002 44.4619 140.871 44.4619C140.758 44.4619 140.656 44.4774 140.566 44.5084C140.475 44.5369 140.397 44.577 140.332 44.6287C140.269 44.6804 140.22 44.7412 140.185 44.811C140.152 44.8783 140.136 44.952 140.136 45.0322C140.136 45.1331 140.164 45.2171 140.219 45.2844C140.277 45.3516 140.352 45.4098 140.445 45.459C140.538 45.5081 140.644 45.5521 140.762 45.5909C140.88 45.6271 141 45.6672 141.124 45.7112C141.249 45.7525 141.371 45.7991 141.489 45.8508C141.607 45.9026 141.713 45.9672 141.806 46.0448C141.899 46.1224 141.973 46.2181 142.028 46.3319C142.086 46.4431 142.115 46.5776 142.115 46.7354C142.115 46.9165 142.084 47.0846 142.021 47.2398C141.958 47.3924 141.865 47.5256 141.742 47.6394C141.619 47.7506 141.468 47.8386 141.289 47.9033C141.111 47.9679 140.905 48.0002 140.671 48.0002C140.405 48.0002 140.164 47.9563 139.947 47.8683C139.731 47.7778 139.548 47.6627 139.397 47.523L139.555 47.2592C139.575 47.2256 139.599 47.1997 139.627 47.1816C139.655 47.1635 139.69 47.1544 139.733 47.1544C139.778 47.1544 139.826 47.1726 139.876 47.2088C139.926 47.245 139.986 47.2851 140.057 47.329C140.13 47.373 140.218 47.4131 140.321 47.4493C140.424 47.4855 140.552 47.5036 140.705 47.5036C140.836 47.5036 140.95 47.4868 141.048 47.4532C141.146 47.417 141.228 47.3691 141.293 47.3096C141.359 47.2501 141.406 47.1816 141.436 47.104C141.469 47.0264 141.485 46.9436 141.485 46.8557C141.485 46.7471 141.457 46.6578 141.399 46.588C141.343 46.5156 141.269 46.4548 141.176 46.4056C141.083 46.3539 140.977 46.3099 140.856 46.2737C140.738 46.2349 140.616 46.1948 140.49 46.1535C140.367 46.1121 140.245 46.0655 140.125 46.0138C140.007 45.9595 139.901 45.8922 139.808 45.812C139.715 45.7318 139.64 45.6336 139.582 45.5172C139.526 45.3982 139.499 45.2546 139.499 45.0865C139.499 44.9365 139.529 44.7929 139.589 44.6558C139.65 44.5162 139.738 44.3946 139.853 44.2911C139.969 44.1851 140.111 44.101 140.279 44.039C140.448 43.9769 140.64 43.9458 140.856 43.9458C141.107 43.9458 141.332 43.9872 141.531 44.07C141.732 44.1502 141.905 44.2614 142.051 44.4037L141.9 44.6558Z" fill="#0B0B0B"/>
<path d="M76.3898 2.90151C77.4627 0.959411 79.6086 0.588857 81.344 1.12484C81.3413 1.99829 81.3386 2.87504 81.344 3.7518C80.5876 3.4408 79.6676 3.15958 78.9836 3.86098C78.203 4.77744 78.4927 6.22988 78.4418 7.41102C79.7427 7.40441 81.0462 7.41102 82.3498 7.40771C82.3498 6.42839 82.3472 5.44907 82.3337 4.46975C83.1867 4.14221 84.0611 3.87091 84.8712 3.39117C85.2279 4.62856 84.9033 6.09092 85.0106 7.40771C85.8931 7.40771 86.7756 7.40771 87.6607 7.40441C87.6607 8.24808 87.658 9.08844 87.6607 9.93211C86.7756 9.92881 85.8931 9.92881 85.0106 9.93211C85.0187 12.0231 84.9999 14.1141 85.016 16.2051C84.9999 16.9362 85.1796 17.8891 85.8395 18.1008C86.4564 18.4218 87.0921 18.0678 87.6661 17.7865C87.658 18.6335 87.6607 19.4805 87.6527 20.3308C86.2579 20.8734 84.5868 21.0421 83.3369 19.9338C82.5725 19.0802 82.3337 17.7336 82.3471 16.5061C82.3418 14.3126 82.3525 12.1224 82.3471 9.92881C81.0436 9.93211 79.7427 9.92881 78.4391 9.93211C78.4418 13.4391 78.4391 16.9462 78.4418 20.4532C77.5486 20.4532 76.6554 20.4565 75.7622 20.4532C75.7649 16.9462 75.7649 13.4391 75.7649 9.93211C75.1479 9.92881 74.5337 9.92881 73.9195 9.93211C73.9141 9.08844 73.9141 8.24808 73.9141 7.40771C74.531 7.40771 75.1453 7.40771 75.7649 7.40771C75.7568 5.88249 75.6254 4.21499 76.3898 2.90151Z" fill="black"/>
<path d="M19.8798 2.06085C20.8052 1.46201 22.3046 2.16341 22.2429 3.60262C22.3314 5.23703 20.4807 5.89211 19.5767 4.9525C18.7291 4.26432 18.9544 2.49096 19.8798 2.06085Z" fill="black"/>
<path d="M0.00154586 2.19049C1.26489 2.19711 2.52556 2.1938 3.78891 2.1938C4.76794 4.97626 5.696 7.78189 6.64284 10.5776C7.24635 12.4006 7.97057 14.1773 8.39168 16.083C9.82938 11.3849 11.5782 6.83896 13.1286 2.19711C14.3571 2.1938 15.5855 2.19711 16.8113 2.19049C16.8194 8.27817 16.8113 14.3625 16.8167 20.4502C15.9101 20.4568 15.0035 20.4535 14.0996 20.4535C14.1183 15.5503 14.054 10.6438 14.1586 5.74053C13.8394 7.37163 13.2037 8.86378 12.7155 10.4221C11.5299 13.7505 10.4114 17.1152 9.23928 20.4535C8.64918 20.4535 8.0564 20.4535 7.4663 20.4568C6.17345 16.8538 4.9557 13.2145 3.64943 9.61812C3.2149 8.31787 2.70259 7.0474 2.46387 5.66444C2.58725 10.5908 2.51215 15.5238 2.53361 20.4535C1.69138 20.4535 0.849143 20.4535 0.00691052 20.4568C-0.00650082 14.3691 0.00422813 8.28147 0.00154586 2.19049Z" fill="black"/>
<path d="M93.5537 2.19356C95.3616 2.21672 97.1721 2.14393 98.98 2.23988C100.377 2.32921 101.882 2.79571 102.853 4.12574C103.84 5.37636 104.09 7.25559 103.867 8.9264C103.602 10.8883 102.381 12.5327 100.906 13.2539C99.4145 14.0381 97.7595 13.9421 96.1743 13.952C96.177 16.1191 96.177 18.2862 96.1743 20.4533C95.2999 20.4566 94.4282 20.4566 93.5537 20.45C93.5564 14.3656 93.5591 8.27793 93.5537 2.19356ZM96.1743 4.84699C96.177 7.01076 96.1743 9.17453 96.177 11.3383C97.4377 11.3151 98.7895 11.5037 99.9563 10.7957C101.593 9.76014 101.66 6.39207 100.018 5.32342C98.8324 4.56577 97.4511 4.89331 96.1743 4.84699Z" fill="black"/>
<path d="M123.735 4.46628C124.628 4.15197 125.518 3.83436 126.404 3.49689C126.404 4.79714 126.401 6.10069 126.406 7.40425C127.289 7.40756 128.171 7.40425 129.054 7.41417C129.046 8.2413 129.046 9.06513 129.054 9.89226C128.168 9.93857 127.283 9.93527 126.401 9.92865C126.422 12.142 126.371 14.3554 126.425 16.5688C126.409 17.1875 126.653 17.8889 127.165 18.0875C127.788 18.4349 128.442 18.0775 129.051 17.8724C129.046 18.6896 129.046 19.5068 129.054 20.3207C127.702 20.8964 126.068 21.0585 124.834 20.0229C123.925 19.2653 123.791 17.7831 123.748 16.5424C123.721 14.3389 123.748 12.1354 123.74 9.93196C123.185 9.92865 122.632 9.92865 122.082 9.92865C122.08 9.08498 122.08 8.24461 122.082 7.40425C122.635 7.40425 123.187 7.40756 123.74 7.40756C123.737 6.42493 123.737 5.44561 123.735 4.46628Z" fill="black"/>
<path d="M19.3058 7.41161C20.1829 7.40499 21.06 7.4083 21.9371 7.4083C21.9452 11.7557 21.9398 16.1064 21.9398 20.4571C21.052 20.4571 20.1642 20.4604 19.2763 20.4439C19.3005 16.0998 19.2468 11.7557 19.3058 7.41161Z" fill="black"/>
<path d="M25.8935 8.45C27.7872 6.85199 30.2951 6.75273 32.4114 7.68242C32.4248 8.69814 32.4168 9.71054 32.4329 10.723C31.2098 9.63445 29.5012 9.22088 28.1252 10.1175C26.1617 11.4641 25.9016 15.2126 27.3956 17.158C28.785 18.7461 30.9925 18.3789 32.4168 17.0488C32.4168 18.005 32.4222 18.9579 32.4329 19.9107C30.2844 21.1382 27.5565 21.1183 25.6038 19.3582C22.9162 16.6816 23.1469 10.9446 25.8935 8.45Z" fill="black"/>
<path d="M34.4204 7.40744C35.2895 7.40744 36.1585 7.40744 37.0276 7.40744C37.0383 8.15848 37.0464 8.90951 37.0356 9.66385C37.5372 7.69859 39.337 6.75236 40.89 7.32473C40.8874 8.35037 40.882 9.37932 40.9035 10.4083C40.1149 10.041 39.1788 9.70356 38.3875 10.2428C37.5345 10.8251 37.0973 12.0294 37.0785 13.1974C36.9793 15.6126 37.0651 18.0344 37.0329 20.4529C36.1612 20.4562 35.2895 20.4529 34.4177 20.4562C34.4231 16.1055 34.415 11.7581 34.4204 7.40744Z" fill="black"/>
<path d="M44.6372 7.47699C46.8635 6.69618 49.6397 6.94763 51.2651 9.19742C52.6197 11.3149 52.786 14.3587 52.0081 16.8236C51.4395 18.6631 50.0849 20.0295 48.5426 20.4729C46.6194 21.0353 44.3985 20.8269 42.8025 19.2719C39.7823 16.1288 40.6245 8.78386 44.6372 7.47699ZM45.7396 9.8095C44.6506 10.1966 43.9532 11.52 43.8218 12.86C43.6394 14.3786 43.7735 16.1453 44.6935 17.2901C45.6913 18.3984 47.2927 18.5175 48.4434 17.7036C49.3366 17.0717 49.6209 15.7284 49.7013 14.5473C49.7577 13.2404 49.6799 11.7847 48.9691 10.7392C48.1859 9.60768 46.8394 9.42902 45.7396 9.8095Z" fill="black"/>
<path d="M55.1034 8.01321C56.7289 6.75598 58.7728 6.95118 60.535 7.61288C60.535 8.57235 60.535 9.53182 60.5377 10.4913C59.4836 9.74688 58.1612 9.18112 56.9703 9.75019C56.2407 10.0579 56.1951 11.4739 56.8281 11.9371C58.0593 12.8867 59.6472 13.1778 60.6182 14.6071C61.5731 16.2316 61.1573 18.7361 59.7733 19.7882C57.9547 21.1547 55.6721 20.8966 53.7382 20.0728C53.7301 19.0637 53.7328 18.0546 53.7247 17.0455C54.9452 17.9851 56.5009 18.7394 57.9225 18.0678C58.6038 17.7767 58.636 16.4665 58.0647 16C56.9703 15.0901 55.6023 14.7891 54.5697 13.7502C53.2473 12.2283 53.486 9.10172 55.1034 8.01321Z" fill="black"/>
<path d="M65.8297 7.49688C67.7261 6.81863 69.9336 6.88149 71.6234 8.25784C72.7205 9.14452 73.3991 10.6764 73.5842 12.2611C73.8658 14.4812 73.5949 17.0023 72.2806 18.6797C71.1085 20.2909 69.2631 20.8203 67.5705 20.7475C65.9504 20.678 64.2016 19.9568 63.2601 18.2297C62.2382 16.6284 62.1309 14.4745 62.3348 12.5291C62.6137 10.2198 63.9736 8.11557 65.8297 7.49688ZM66.9402 9.81284C65.8673 10.2198 65.1726 11.5399 65.0385 12.8732C64.8427 14.5308 65.0277 16.5291 66.2133 17.5846C67.3667 18.5076 69.078 18.4779 70.1026 17.2802C70.8161 16.3935 70.9717 15.0701 70.9663 13.8724C70.9636 12.6946 70.7946 11.3712 70.0382 10.554C69.2389 9.5647 67.9809 9.46545 66.9402 9.81284Z" fill="black"/>
<path d="M104.916 8.21846C106.839 7.26891 109.063 6.65684 111.064 7.61631C112.442 8.26809 113.134 10.1506 113.137 11.881C113.156 14.7395 113.137 17.5948 113.142 20.4534C112.314 20.4534 111.485 20.4534 110.659 20.4567C110.659 19.8644 110.661 19.2689 110.669 18.6767C109.419 20.9629 106.646 21.4095 104.865 19.8512C103.239 18.1705 103.556 14.4451 105.495 13.3003C107.118 12.3376 108.982 12.4699 110.72 12.063C110.64 11.0539 110.355 9.84625 109.443 9.57495C107.874 9.08529 106.235 9.84956 104.905 10.862C104.913 9.9819 104.913 9.09852 104.916 8.21846ZM107.22 14.7892C106.147 15.216 105.959 17.2673 106.901 18.0051C107.888 18.819 109.35 18.4782 110.09 17.3467C110.752 16.4831 110.683 15.216 110.71 14.1109C109.548 14.3392 108.346 14.3458 107.22 14.7892Z" fill="black"/>
<path d="M115.092 7.40102C115.967 7.40764 116.841 7.41095 117.716 7.40102C117.74 8.12559 117.78 8.84684 117.834 9.5681C118.271 7.5863 120.132 6.7724 121.629 7.33485C121.624 8.36711 121.618 9.39936 121.637 10.4349C120.916 10.0776 120.114 9.77654 119.344 10.0875C118.263 10.6599 117.734 12.162 117.742 13.5482C117.718 15.8477 117.74 18.1471 117.737 20.4465C116.855 20.4564 115.969 20.4564 115.087 20.4531C115.092 16.1024 115.084 11.7517 115.092 7.40102Z" fill="black"/>
<path d="M133.528 9.55823C134.721 6.87172 138.098 6.27949 139.871 8.40687C140.628 9.43913 140.839 10.8949 140.877 12.2414C140.882 14.9776 140.872 17.7104 140.877 20.4466C140.035 20.4565 139.193 20.4565 138.353 20.4532C138.337 17.8031 138.399 15.1463 138.321 12.4962C138.299 11.3349 137.876 9.90563 136.846 9.64095C135.327 9.0421 133.584 10.5739 133.57 12.5425C133.503 15.1761 133.565 17.813 133.541 20.4499C132.696 20.4565 131.854 20.4565 131.012 20.4532C131.017 16.1223 131.012 11.7948 131.014 7.46394C131.857 7.47056 132.699 7.46725 133.541 7.46725C133.544 8.16535 133.544 8.86344 133.528 9.55823Z" fill="black"/>
<path d="M143.436 10.0716C145.032 6.70681 149.38 6.07157 151.547 8.92021C152.711 10.5116 152.776 12.7713 152.706 14.8028C150.182 14.8028 147.661 14.7961 145.139 14.8061C145.265 15.9773 145.574 17.304 146.502 17.8764C148.178 18.9616 150.236 18.3826 151.786 17.2246C151.786 18.0815 151.789 18.9417 151.772 19.7986C149.696 20.7945 147.269 21.2345 145.179 20.0732C143.911 19.4082 143.109 17.8532 142.787 16.2519C142.387 14.194 142.537 11.9078 143.436 10.0716ZM146.66 9.80027C145.799 10.3462 145.375 11.5009 145.134 12.596C146.842 12.5993 148.551 12.596 150.26 12.5993C150.147 11.9674 150.144 11.2759 149.857 10.7134C149.251 9.36686 147.693 9.08563 146.66 9.80027Z" fill="black"/>
<path d="M157.354 9.65056C157.885 7.71508 159.69 6.6729 161.243 7.38423C161.217 8.39663 161.217 9.41235 161.23 10.4248C160.455 10.031 159.53 9.70681 158.744 10.2362C157.757 10.8449 157.416 12.304 157.378 13.5678C157.343 15.8607 157.378 18.1568 157.365 20.4496C156.493 20.4562 155.621 20.4562 154.75 20.4529C154.752 16.1022 154.75 11.7548 154.75 7.40739C155.621 7.40739 156.493 7.40739 157.365 7.40077C157.365 8.1518 157.368 8.90284 157.354 9.65056Z" fill="black"/>
</svg>
