<svg width="121" height="49" viewBox="0 0 121 49" fill="none" xmlns="http://www.w3.org/2000/svg">
<g clip-path="url(#clip0_25_329)">
<path d="M3.02259 0.300136C2.80963 0.618874 2.92337 0.97567 3.00807 1.31106C3.51385 1.50611 4.32213 1.41334 4.20839 0.706884C4.25437 0.0955729 3.41463 0.219262 3.02259 0.300136ZM3.00081 2.45994C3.02743 4.47703 3.00081 6.49412 3.01775 8.50883C3.37107 8.50169 3.72439 8.49455 4.07771 8.48742C4.05593 6.48222 4.08255 4.47465 4.06319 2.46708C3.70987 2.46708 3.35413 2.4647 3.00081 2.45994ZM15.6381 2.44805C16.4488 4.46989 17.2885 6.47984 18.0871 8.50645C18.4186 8.49693 18.7477 8.4898 19.0793 8.48742C19.9021 6.4846 20.708 4.47465 21.5404 2.47659C21.1605 2.47184 20.7806 2.46708 20.4006 2.4647C19.7787 3.95849 19.2801 5.50698 18.5638 6.96033C17.9637 5.46654 17.3659 3.97276 16.7875 2.46946C16.4028 2.46232 16.0204 2.45518 15.6381 2.44805ZM22.2229 4.21776C22.5859 4.22252 22.9489 4.22727 23.3119 4.22965C23.5006 3.5446 24.246 3.18543 24.926 3.40902C25.6012 3.5113 25.9013 4.20586 25.8456 4.8148C24.7276 4.81717 23.5055 4.83145 22.5496 5.47844C21.6856 6.13494 21.8018 7.57402 22.6827 8.16868C23.6337 8.87989 25.0156 8.59684 25.8964 7.90703C25.9715 8.10921 26.0465 8.31378 26.1215 8.51834C26.3127 8.51358 26.6975 8.49931 26.8886 8.49455C26.879 7.16489 26.8983 5.83761 26.8838 4.50795C26.8983 3.83242 26.5644 3.14261 25.9618 2.79295C24.6526 1.87717 22.4213 2.52654 22.2229 4.21776ZM28.5826 2.44329C28.5802 4.46514 28.5657 6.48936 28.5923 8.5112C28.9287 8.50883 29.2626 8.50407 29.599 8.50169C29.6184 7.27907 29.5652 6.05645 29.6232 4.83383C29.645 4.11785 30.2089 3.43043 30.9615 3.38048C31.8109 3.20208 32.6361 3.93232 32.687 4.75533C32.7571 6.00412 32.6797 7.25528 32.7184 8.50645C33.062 8.49931 33.4081 8.49455 33.7542 8.48742C33.73 7.24577 33.776 6.00174 33.7324 4.76009C33.7082 3.48514 32.5393 2.25538 31.1938 2.40285C30.5622 2.37669 30.0467 2.78582 29.5361 3.09028C29.4974 2.93567 29.4151 2.62645 29.3764 2.47184C29.1102 2.46946 28.8464 2.45994 28.5826 2.44329ZM0.30009 12.964C0.25169 13.3375 0.25169 13.7157 0.34123 14.0844C3.28879 14.0891 6.23635 14.082 9.18149 14.0867C9.71147 14.0701 10.2947 14.1747 10.7569 13.8513C10.9481 13.3969 10.6529 12.8927 10.1301 12.9569C6.85345 12.9331 3.57677 12.9236 0.30009 12.964ZM51.0185 22.3715C51.0306 24.7573 51.0064 27.1431 51.033 29.5289C49.8907 28.1326 48.2718 27.0694 46.4471 26.803C43.9206 26.3748 41.2659 27.5522 39.763 29.5622C37.314 32.6639 37.4907 37.5045 40.2785 40.3469C41.8636 42.0905 44.4046 42.9658 46.7447 42.4734C48.4387 42.1381 49.9319 41.12 51.0015 39.8046C51.1274 40.7347 50.5901 42.4116 52.001 42.54C52.2018 42.4068 52.41 42.2855 52.6205 42.1714C52.7173 41.7575 52.7923 41.3388 52.7826 40.9154C52.773 34.7262 52.7802 28.537 52.7802 22.3478C52.7657 21.9981 52.6955 21.6532 52.6374 21.3083C52.2938 21.168 51.938 20.9087 51.5557 21.099C51.0741 21.3226 50.9918 21.9053 51.0185 22.3715ZM58.46 22.0362C58.414 22.3715 58.1865 22.7236 58.339 23.059C58.489 23.7631 59.5054 24.058 60.0305 23.5609C60.7493 23.0637 60.4008 21.7531 59.5078 21.7103C59.1158 21.6199 58.7915 21.8839 58.46 22.0362ZM84.0006 22.657C84.1265 23.2279 84.4895 23.8415 85.1719 23.8059C85.8011 23.8415 86.1205 23.2778 86.302 22.7759C86.1375 22.1813 85.6462 21.5057 84.9251 21.7269C84.3854 21.7388 84.2475 22.2954 84.0006 22.657ZM92.8143 23.6394C92.7247 24.7288 92.824 25.823 92.7731 26.9124C92.0181 26.8767 91.2098 26.7221 90.5008 27.0551C90.0821 27.4452 90.1571 28.1088 90.5855 28.4609C91.2897 28.6892 92.052 28.5513 92.7804 28.5703C92.7901 31.8124 92.7828 35.0568 92.7852 38.2989C92.7562 39.7951 93.504 41.3721 94.9003 42.0691C95.9361 42.6447 97.1824 42.6542 98.3222 42.4211C98.7046 41.9739 98.8086 41.2675 98.2569 40.8988C97.6083 40.7347 96.921 40.9678 96.2749 40.7846C95.2294 40.5681 94.5228 39.543 94.5301 38.5201C94.5131 35.2019 94.5204 31.8814 94.5325 28.5631C95.4303 28.5536 96.3475 28.6678 97.238 28.5108C97.7486 28.2848 97.768 27.7068 97.6857 27.243C96.7758 26.5794 95.5706 26.9243 94.5204 26.9005C94.4865 25.7587 94.593 24.6098 94.472 23.4729C94.2276 22.6713 92.8699 22.8021 92.8143 23.6394ZM102.066 29.7834C101.463 30.5636 102.828 31.5698 103.426 30.7824C104.377 29.6216 105.703 28.7106 107.223 28.4751C108.518 28.2706 109.982 28.4371 110.996 29.3243C111.932 30.1354 112.283 31.4223 112.177 32.6116C110.074 33.6511 107.661 33.7081 105.454 34.4289C104.271 34.8023 103.061 35.3518 102.308 36.3627C101.183 37.8375 101.391 40.1566 102.833 41.3579C104.043 42.3498 105.689 42.5829 107.216 42.5591C109.043 42.5829 110.855 41.9002 112.213 40.699C112.232 41.2437 112.044 41.9359 112.552 42.3236C113.048 42.7898 113.965 42.2831 113.926 41.6457C113.938 38.4607 113.936 35.2733 113.929 32.0883C113.926 30.1663 112.878 28.2135 111.1 27.3381C108.019 25.8539 103.995 27.0527 102.066 29.7834ZM21.3856 27.8258C21.3783 33.7652 21.3759 39.7047 21.388 45.6442C21.342 46.1151 21.7026 46.6313 22.2253 46.579C26.0997 46.5837 29.979 46.617 33.8534 46.5623C34.7222 46.3435 34.606 44.9544 33.6937 44.9234C30.1629 44.8735 26.6297 44.9258 23.0965 44.8973C23.0989 39.2076 23.1013 33.5179 23.0989 27.8305C23.1279 27.4832 22.9924 27.1122 22.6633 26.948C22.0898 26.5342 21.2742 27.1812 21.3856 27.8258ZM58.5084 27.595C58.46 32.3547 58.4987 37.1167 58.489 41.8764C58.5689 42.0072 58.731 42.2665 58.8109 42.3973C59.411 42.6495 60.2508 42.3854 60.1927 41.6362C60.1999 36.9621 60.212 32.2857 60.1878 27.6117C60.2314 26.5984 58.5084 26.5984 58.5084 27.595ZM84.3031 27.6236C84.2813 32.2857 84.2934 36.9479 84.2959 41.61C84.1918 42.5924 85.806 42.8398 85.9947 41.8574C86.0504 37.1905 86.0117 32.5188 86.0141 27.8519C86.1133 27.2882 85.6656 26.9124 85.1792 26.7482C84.7775 26.9219 84.2571 27.0931 84.3031 27.6236ZM38.3522 45.078C37.9819 45.6251 38.1562 46.5837 38.9499 46.579C43.0639 46.6075 47.1828 46.5742 51.2968 46.5932C51.7372 46.5885 52.1897 46.6099 52.6181 46.491C53.1626 46.0723 53.0585 45.0495 52.3107 44.9258C48.1072 44.8711 43.8988 44.9234 39.6929 44.8997C39.2379 44.883 38.7854 44.9377 38.3522 45.078Z" fill="white"/>
<path d="M0.208145 0.000427246H1.28262C1.28988 2.84766 1.28262 5.69252 1.28504 8.53975C0.948665 8.52072 0.614705 8.49455 0.280745 8.45888C0.159745 8.11397 0.210565 7.73577 0.196045 7.37421C0.217825 4.91708 0.196045 2.45756 0.208145 0.000427246Z" fill="#251D4E"/>
<path d="M10.0793 0.000427246H11.1514C11.1417 2.83101 11.1611 5.66397 11.1417 8.49455C10.8707 8.50169 10.5996 8.50883 10.3286 8.51596C10.2826 8.36373 10.1931 8.06164 10.1471 7.90941C9.23231 8.61586 7.91099 8.82518 6.88975 8.20912C4.85695 7.13635 4.88841 3.79436 6.91879 2.73349C7.92309 2.13645 9.21295 2.37431 10.0841 3.0879C10.0745 2.06033 10.0769 1.03038 10.0793 0.000427246ZM7.63511 3.48989C5.99193 4.20349 6.03791 6.96271 7.78031 7.51931C9.16939 7.9998 10.4617 6.53693 10.21 5.2263C10.1616 4.01082 8.84027 2.96421 7.63511 3.48989Z" fill="#251D4E"/>
<path d="M3.02256 0.300123C3.4146 0.219249 4.25434 0.0955596 4.20836 0.70687C4.3221 1.41333 3.51382 1.50609 3.00804 1.31105C2.92334 0.975657 2.8096 0.618861 3.02256 0.300123Z" fill="#251D4E"/>
<path d="M3.00085 2.45996C3.35417 2.46472 3.70991 2.4671 4.06323 2.4671C4.08259 4.47467 4.05597 6.48224 4.07775 8.48744C3.72443 8.49457 3.37111 8.50171 3.01779 8.50885C3.00085 6.49414 3.02747 4.47705 3.00085 2.45996Z" fill="#251D4E"/>
<path d="M15.6381 2.44806C16.0204 2.4552 16.4028 2.46233 16.7876 2.46947C17.3659 3.97277 17.9637 5.46655 18.5638 6.96034C19.2802 5.50699 19.7787 3.9585 20.4006 2.46471C20.7806 2.46709 21.1605 2.47185 21.5404 2.4766C20.708 4.47466 19.9021 6.48461 19.0793 8.48743C18.7478 8.48981 18.4186 8.49694 18.0871 8.50646C17.2885 6.47986 16.4488 4.4699 15.6381 2.44806Z" fill="#251D4E"/>
<path d="M22.2229 4.21774C22.4213 2.52652 24.6526 1.87716 25.9618 2.79293C26.5644 3.14259 26.8983 3.8324 26.8838 4.50793C26.8983 5.83759 26.879 7.16487 26.8886 8.49453C26.6975 8.49929 26.3127 8.51356 26.1215 8.51832C26.0465 8.31376 25.9715 8.1092 25.8964 7.90701C25.0156 8.59682 23.6337 8.87988 22.6827 8.16866C21.8018 7.574 21.6856 6.13492 22.5496 5.47842C23.5055 4.83143 24.7276 4.81716 25.8456 4.81478C25.9013 4.20585 25.6012 3.51128 24.926 3.409C24.246 3.18541 23.5006 3.54458 23.3119 4.22963C22.9489 4.22725 22.5859 4.2225 22.2229 4.21774ZM23.3627 6.13017C22.8327 6.42987 22.9344 7.36944 23.5515 7.51929C24.6768 7.90939 26.1021 6.98886 25.8311 5.7472C25.0035 5.79716 24.125 5.75196 23.3627 6.13017Z" fill="#251D4E"/>
<path d="M28.5827 2.4433C28.8464 2.45995 29.1102 2.46947 29.3764 2.47185C29.4151 2.62646 29.4974 2.93568 29.5361 3.09029C30.0468 2.78583 30.5622 2.3767 31.1938 2.40286C32.5394 2.25539 33.7082 3.48515 33.7324 4.7601C33.776 6.00175 33.73 7.24578 33.7542 8.48743C33.4081 8.49456 33.0621 8.49932 32.7184 8.50646C32.6797 7.25529 32.7572 6.00413 32.687 4.75534C32.6362 3.93233 31.8109 3.20209 30.9615 3.38049C30.2089 3.43044 29.645 4.11786 29.6233 4.83384C29.5652 6.05646 29.6184 7.27908 29.5991 8.5017C29.2627 8.50408 28.9287 8.50884 28.5923 8.51121C28.5657 6.48937 28.5802 4.46515 28.5827 2.4433Z" fill="#251D4E"/>
<path d="M0.300026 12.964C3.57671 12.9236 6.85339 12.9331 10.1301 12.9569C10.6528 12.8926 10.948 13.3969 10.7568 13.8512C10.2946 14.1747 9.71141 14.0701 9.18143 14.0867C6.23629 14.082 3.28873 14.0891 0.341166 14.0843C0.251626 13.7157 0.251626 13.3374 0.300026 12.964Z" fill="#251D4E"/>
<path d="M51.0184 22.3716C50.9918 21.9053 51.0741 21.3226 51.5557 21.099C51.938 20.9087 52.2938 21.168 52.6374 21.3083C52.6955 21.6532 52.7657 21.9981 52.7802 22.3478C52.7802 28.537 52.7729 34.7262 52.7826 40.9154C52.7923 41.3388 52.7173 41.7575 52.6205 42.1714C52.4099 42.2855 52.2018 42.4069 52.001 42.5401C50.5901 42.4116 51.1273 40.7347 51.0015 39.8046C49.9319 41.12 48.4387 42.1381 46.7447 42.4735C44.4046 42.9658 41.8636 42.0905 40.2785 40.347C37.4906 37.5045 37.314 32.6639 39.763 29.5622C41.2658 27.5522 43.9206 26.3748 46.4471 26.803C48.2717 27.0694 49.8907 28.1326 51.033 29.5289C51.0063 27.1431 51.0305 24.7573 51.0184 22.3716ZM44.0876 28.5941C40.4963 29.5669 38.8531 33.9865 40.2736 37.2119C41.019 39.1386 42.8509 40.7513 44.9999 40.8821C46.7205 41.0415 48.4411 40.2161 49.4987 38.896C51.6912 36.3556 51.4637 32.1787 49.0074 29.8809C47.7297 28.6702 45.8106 28.1065 44.0876 28.5941Z" fill="#251D4E"/>
<path d="M119.408 21.2964C119.959 20.98 120.753 20.9206 121 21.6484V41.8478C120.814 42.6066 119.942 42.5686 119.398 42.226C119.243 40.6847 119.345 39.1362 119.318 37.5901C119.318 33.2253 119.316 28.8605 119.318 24.4957C119.311 23.4276 119.284 22.3596 119.408 21.2964Z" fill="#251D4E"/>
<path d="M58.4599 22.0362C58.7914 21.8839 59.1157 21.6199 59.5077 21.7103C60.4007 21.7531 60.7492 23.0637 60.0305 23.5609C59.5053 24.058 58.4889 23.7631 58.3389 23.059C58.1864 22.7236 58.4139 22.3716 58.4599 22.0362Z" fill="#251D4E"/>
<path d="M84.0006 22.657C84.2475 22.2954 84.3854 21.7388 84.9251 21.7269C85.6462 21.5057 86.1375 22.1813 86.302 22.7759C86.1205 23.2778 85.8011 23.8415 85.1719 23.8059C84.4895 23.8415 84.1265 23.2279 84.0006 22.657Z" fill="#251D4E"/>
<path d="M92.8143 23.6393C92.8699 22.8021 94.2275 22.6712 94.472 23.4728C94.593 24.6098 94.4865 25.7587 94.5204 26.9004C95.5706 26.9242 96.7758 26.5793 97.6857 27.243C97.768 27.7068 97.7486 28.2848 97.238 28.5108C96.3475 28.6678 95.4303 28.5536 94.5325 28.5631C94.5204 31.8813 94.5131 35.2019 94.53 38.5201C94.5228 39.5429 95.2294 40.5681 96.2749 40.7846C96.921 40.9677 97.6083 40.7346 98.2568 40.8988C98.8086 41.2674 98.7045 41.9739 98.3222 42.4211C97.1824 42.6542 95.9361 42.6447 94.9003 42.069C93.504 41.3721 92.7562 39.7951 92.7852 38.2989C92.7828 35.0568 92.7901 31.8123 92.7804 28.5703C92.052 28.5512 91.2897 28.6892 90.5854 28.4608C90.1571 28.1088 90.0821 27.4452 90.5007 27.0551C91.2098 26.7221 92.0181 26.8767 92.7731 26.9123C92.8239 25.8229 92.7247 24.7287 92.8143 23.6393Z" fill="#251D4E"/>
<path d="M78.2845 25.1022C78.8726 24.6408 79.4268 25.2093 79.7607 25.6684C79.2453 26.803 78.3789 27.7235 77.6892 28.7535C78.8871 29.9927 79.7753 31.5579 79.9664 33.2753C80.4359 36.3699 78.8121 39.6809 75.9759 41.1414C73.8777 42.2427 71.2254 42.2356 69.1587 41.0605C68.2464 42.3331 67.3558 43.62 66.4556 44.8997C69.5532 44.9116 72.6508 44.9021 75.7484 44.8997C76.472 44.8925 77.2488 45.059 77.7376 45.6275C78.6596 46.51 78.6766 48.3677 77.4593 49.0005H76.9027C76.2711 48.608 76.3098 47.8706 76.6752 47.3069C76.6414 47.1618 76.5736 46.8716 76.5397 46.7265C76.1186 46.6646 75.6951 46.6099 75.2692 46.598C71.8014 46.598 68.3287 46.5933 64.8608 46.579C64.1638 46.6718 63.6629 45.7798 64.1227 45.2565C65.3085 43.5343 66.5016 41.8098 67.7212 40.1091C67.0073 39.3265 66.308 38.5035 65.8941 37.5235C64.8535 35.2115 65.0375 32.3999 66.3902 30.2472C67.7358 27.9899 70.4123 26.5461 73.0815 26.7364C74.2286 26.7839 75.3249 27.1836 76.3243 27.7211C76.9753 26.8482 77.5198 25.8824 78.2845 25.1022ZM71.2109 28.5917C68.9482 29.2006 67.2542 31.2677 66.9977 33.5393C66.5838 36.2129 68.2198 39.1148 70.8697 39.9806C73.1203 40.7894 75.7823 39.8641 77.1326 37.9517C78.967 35.5659 78.6258 31.879 76.3655 29.8714C75.0079 28.6345 73.0065 28.0898 71.2109 28.5917Z" fill="#251D4E"/>
<path d="M102.066 29.7834C103.995 27.0527 108.019 25.8539 111.1 27.3381C112.878 28.2135 113.926 30.1663 113.929 32.0883C113.936 35.2733 113.938 38.4607 113.926 41.6457C113.965 42.2831 113.048 42.7898 112.552 42.3236C112.044 41.9359 112.232 41.2437 112.213 40.699C110.855 41.9002 109.043 42.5828 107.216 42.5591C105.689 42.5828 104.043 42.3497 102.833 41.3578C101.391 40.1566 101.183 37.8375 102.308 36.3627C103.061 35.3518 104.271 34.8023 105.454 34.4289C107.661 33.7081 110.074 33.6511 112.177 32.6116C112.283 31.4223 111.932 30.1354 110.996 29.3243C109.982 28.4371 108.518 28.2706 107.223 28.4751C105.703 28.7106 104.377 29.6216 103.426 30.7824C102.828 31.5697 101.463 30.5636 102.066 29.7834ZM104.401 36.7409C103.206 37.3522 102.966 39.1291 103.939 40.0329C104.844 40.7703 106.09 40.8845 107.223 40.8678C108.922 40.8036 110.773 40.1495 111.673 38.6438C112.448 37.3927 112.128 35.8822 112.208 34.4978C109.691 35.5207 106.792 35.3827 104.401 36.7409Z" fill="#251D4E"/>
<path d="M9.98144e-06 27.5522C0.24685 27.2287 0.50095 26.7649 0.98495 26.8053C1.46169 26.7792 1.71821 27.2525 2.00377 27.5499C6.19763 32.8614 10.4205 38.1538 14.6216 43.463C14.6023 38.2514 14.6144 33.0374 14.6144 27.8258C14.5055 27.243 15.0355 26.9362 15.4735 26.6959C15.9357 26.9243 16.4875 27.2216 16.3883 27.8258C16.3931 33.8509 16.3955 39.876 16.3858 45.8987C16.4657 46.5766 15.7155 47.0642 15.0984 46.7978C14.791 46.5385 14.5394 46.2222 14.2949 45.9082C10.164 40.6514 5.95805 35.4517 1.85373 30.1759C1.84889 35.4898 1.88519 40.8036 1.83921 46.1175C1.75209 47.2046 -0.00483002 47 9.98144e-06 45.932V27.5522Z" fill="#251D4E"/>
<path d="M21.3855 27.8258C21.2742 27.1812 22.0898 26.5342 22.6633 26.9481C22.9924 27.1122 23.1279 27.4833 23.0989 27.8306C23.1013 33.5179 23.0989 39.2076 23.0965 44.8973C26.6297 44.9258 30.1629 44.8735 33.6937 44.9235C34.606 44.9544 34.7222 46.3435 33.8534 46.5623C29.979 46.6171 26.0997 46.5838 22.2253 46.579C21.7026 46.6313 21.342 46.1152 21.388 45.6442C21.3759 39.7047 21.3783 33.7653 21.3855 27.8258Z" fill="#251D4E"/>
<path d="M58.5083 27.595C58.5083 26.5984 60.2314 26.5984 60.1878 27.6117C60.212 32.2857 60.1999 36.9621 60.1927 41.6361C60.2507 42.3854 59.411 42.6494 58.8108 42.3973C58.731 42.2665 58.5688 42.0072 58.489 41.8764C58.4987 37.1167 58.4599 32.3547 58.5083 27.595Z" fill="#251D4E"/>
<path d="M84.3031 27.6236C84.2571 27.0931 84.7774 26.9219 85.1791 26.7482C85.6655 26.9124 86.1132 27.2882 86.014 27.8519C86.0116 32.5188 86.0503 37.1905 85.9947 41.8574C85.8059 42.8397 84.1918 42.5924 84.2958 41.61C84.2934 36.9478 84.2813 32.2857 84.3031 27.6236Z" fill="#251D4E"/>
<path d="M38.3521 45.078C38.7853 44.9377 39.2378 44.883 39.6928 44.8996C43.8988 44.9234 48.1071 44.8711 52.3107 44.9258C53.0585 45.0495 53.1625 46.0723 52.618 46.4909C52.1897 46.6099 51.7371 46.5885 51.2967 46.5932C47.1827 46.5742 43.0639 46.6075 38.9499 46.5789C38.1561 46.5837 37.9819 45.6251 38.3521 45.078Z" fill="#251D4E"/>
</g>
<defs>
<clipPath id="clip0_25_329">
<rect width="121" height="49" fill="white" transform="translate(0 0.000427246)"/>
</clipPath>
</defs>
</svg>
